M48
; DRILL file {KiCad 9.0.7} date 2026-02-23T18:54:19+0530
; FORMAT={-:-/ absolute / metric / decimal}
; #@! TF.CreationDate,2026-02-23T18:54:19+05:30
; #@! TF.GenerationSoftware,Kicad,Pcbnew,9.0.7
; #@! TF.FileFunction,Plated,1,2,PTH
FMAT,2
METRIC
; #@! TA.AperFunction,Plated,PTH,ViaDrill
T1C0.300
; #@! TA.AperFunction,Plated,PTH,ComponentDrill
T2C0.889
%
G90
G05
T1
X14.8Y-114.76
X15.77Y-128.31
X15.96Y-127.01
X18.72Y-113.618
X34.505Y-82.89
X35.16Y-125.67
X35.333Y-96.793
X48.401Y-126.071
X50.16Y-68.307
X50.49Y-105.998
X53.5Y-87.74
X53.55Y-86.54
X53.657Y-116.41
X56.3Y-125.89
X72.515Y-110.81
X72.55Y-64.1
X72.6Y-84.25
X72.65Y-81.71
X72.67Y-100.71
X72.737Y-53.554
X72.83Y-102.03
X86.54Y-123.26
X87.371Y-121.581
X89.24Y-122.12
X90.687Y-118.013
X91.627Y-94.13
X91.735Y-113.21
X91.79Y-98.421
X91.79Y-99.78
X91.92Y-62.11
X91.97Y-60.233
X92.9Y-78.88
X110.7Y-77.239
X110.7Y-79.715
X110.775Y-117.94
X110.85Y-115.464
X111.04Y-97.554
X127.737Y-124.013
X129.705Y-121.0
X153.72Y-123.41
X190.85Y-102.31
X191.99Y-84.477
X192.045Y-75.102
X192.045Y-113.203
X192.45Y-116.7
X210.76Y-78.47
X210.91Y-80.22
X211.04Y-98.858
X211.095Y-91.771
X211.1Y-56.85
X211.1Y-60.887
X211.25Y-115.2
X212.57Y-119.0
X230.145Y-97.337
X230.145Y-113.901
X230.3Y-115.53
X230.31Y-60.05
X230.31Y-63.26
X230.47Y-80.55
X232.53Y-127.23
X240.6Y-127.827
X243.747Y-122.215
X245.65Y-129.745
X249.18Y-118.664
X249.195Y-83.04
X249.195Y-121.14
X249.2Y-101.36
X249.21Y-64.64
X262.04Y-128.54
X265.18Y-106.16
X274.02Y-126.627
T2
X13.204Y-115.534
X13.204Y-118.074
X13.204Y-120.614
X13.204Y-123.154
X13.204Y-125.694
X13.204Y-128.234
X13.204Y-130.774
X28.444Y-115.534
X28.444Y-118.074
X28.444Y-120.614
X28.444Y-123.154
X28.444Y-125.694
X28.444Y-128.234
X28.444Y-130.774
X268.884Y-115.59
X268.884Y-118.13
X268.884Y-120.67
X268.884Y-123.21
X268.884Y-125.75
X268.884Y-128.29
X268.884Y-130.83
X284.124Y-115.59
X284.124Y-118.13
X284.124Y-120.67
X284.124Y-123.21
X284.124Y-125.75
X284.124Y-128.29
X284.124Y-130.83
M30
