%TF.GenerationSoftware,KiCad,Pcbnew,9.0.7*%
%TF.CreationDate,2026-02-23T18:54:17+05:30*%
%TF.ProjectId,Tao Te Ching,54616f20-5465-4204-9368-696e672e6b69,rev?*%
%TF.SameCoordinates,Original*%
%TF.FileFunction,Soldermask,Top*%
%TF.FilePolarity,Negative*%
%FSLAX46Y46*%
G04 Gerber Fmt 4.6, Leading zero omitted, Abs format (unit mm)*
G04 Created by KiCad (PCBNEW 9.0.7) date 2026-02-23 18:54:17*
%MOMM*%
%LPD*%
G01*
G04 APERTURE LIST*
G04 Aperture macros list*
%AMRoundRect*
0 Rectangle with rounded corners*
0 $1 Rounding radius*
0 $2 $3 $4 $5 $6 $7 $8 $9 X,Y pos of 4 corners*
0 Add a 4 corners polygon primitive as box body*
4,1,4,$2,$3,$4,$5,$6,$7,$8,$9,$2,$3,0*
0 Add four circle primitives for the rounded corners*
1,1,$1+$1,$2,$3*
1,1,$1+$1,$4,$5*
1,1,$1+$1,$6,$7*
1,1,$1+$1,$8,$9*
0 Add four rect primitives between the rounded corners*
20,1,$1+$1,$2,$3,$4,$5,0*
20,1,$1+$1,$4,$5,$6,$7,0*
20,1,$1+$1,$6,$7,$8,$9,0*
20,1,$1+$1,$8,$9,$2,$3,0*%
G04 Aperture macros list end*
%ADD10C,1.750000*%
%ADD11C,3.050000*%
%ADD12C,4.000000*%
%ADD13C,0.500000*%
%ADD14RoundRect,0.152400X1.063600X0.609600X-1.063600X0.609600X-1.063600X-0.609600X1.063600X-0.609600X0*%
%ADD15C,1.524000*%
%ADD16RoundRect,0.152400X-1.063600X-0.609600X1.063600X-0.609600X1.063600X0.609600X-1.063600X0.609600X0*%
G04 APERTURE END LIST*
D10*
%TO.C,SW17*%
X232150000Y-99877500D03*
D11*
X233420000Y-97337500D03*
D12*
X237230000Y-99877500D03*
D11*
X239770000Y-94797500D03*
D10*
X242310000Y-99877500D03*
%TD*%
D13*
%TO.C,B1*%
X148170000Y-122350000D03*
X149670000Y-122350000D03*
X148170000Y-121500000D03*
X149670000Y-121500000D03*
X148170000Y-120650000D03*
X149670000Y-120650000D03*
%TD*%
D10*
%TO.C,SW30*%
X55560000Y-80665000D03*
D11*
X56830000Y-78125000D03*
D12*
X60640000Y-80665000D03*
D11*
X63180000Y-75585000D03*
D10*
X65720000Y-80665000D03*
%TD*%
%TO.C,SW38*%
X93690000Y-77492500D03*
D11*
X94960000Y-74952500D03*
D12*
X98770000Y-77492500D03*
D11*
X101310000Y-72412500D03*
D10*
X103850000Y-77492500D03*
%TD*%
%TO.C,SW12*%
X251200000Y-85580000D03*
D11*
X252470000Y-83040000D03*
D12*
X256280000Y-85580000D03*
D11*
X258820000Y-80500000D03*
D10*
X261360000Y-85580000D03*
%TD*%
%TO.C,SW33*%
X74742500Y-56093750D03*
D11*
X76012500Y-53553750D03*
D12*
X79822500Y-56093750D03*
D11*
X82362500Y-51013750D03*
D10*
X84902500Y-56093750D03*
%TD*%
%TO.C,SW23*%
X232150000Y-118917500D03*
D11*
X233420000Y-116377500D03*
D12*
X237230000Y-118917500D03*
D11*
X239770000Y-113837500D03*
D10*
X242310000Y-118917500D03*
%TD*%
D14*
%TO.C,U1*%
X268048750Y-115590000D03*
D15*
X268883750Y-115590000D03*
D14*
X268048750Y-118130000D03*
D15*
X268883750Y-118130000D03*
D14*
X268048750Y-120670000D03*
D15*
X268883750Y-120670000D03*
D14*
X268048750Y-123210000D03*
D15*
X268883750Y-123210000D03*
D14*
X268048750Y-125750000D03*
D15*
X268883750Y-125750000D03*
D14*
X268048750Y-128290000D03*
D15*
X268883750Y-128290000D03*
D14*
X268048750Y-130830000D03*
D15*
X268883750Y-130830000D03*
X284123750Y-130830000D03*
D16*
X284958750Y-130830000D03*
D15*
X284123750Y-128290000D03*
D16*
X284958750Y-128290000D03*
D15*
X284123750Y-125750000D03*
D16*
X284958750Y-125750000D03*
D15*
X284123750Y-123210000D03*
D16*
X284958750Y-123210000D03*
D15*
X284123750Y-120670000D03*
D16*
X284958750Y-120670000D03*
D15*
X284123750Y-118130000D03*
D16*
X284958750Y-118130000D03*
D15*
X284123750Y-115590000D03*
D16*
X284958750Y-115590000D03*
%TD*%
D10*
%TO.C,SW46*%
X131755000Y-85430000D03*
D11*
X133025000Y-82890000D03*
D12*
X136835000Y-85430000D03*
D11*
X139375000Y-80350000D03*
D10*
X141915000Y-85430000D03*
%TD*%
D13*
%TO.C,B3*%
X148170000Y-81340000D03*
X149670000Y-81340000D03*
X148170000Y-80490000D03*
X149670000Y-80490000D03*
X148170000Y-79640000D03*
X149670000Y-79640000D03*
%TD*%
D10*
%TO.C,SW28*%
X36520000Y-123560000D03*
D11*
X37790000Y-121020000D03*
D12*
X41600000Y-123560000D03*
D11*
X44140000Y-118480000D03*
D10*
X46680000Y-123560000D03*
%TD*%
%TO.C,SW45*%
X131867500Y-66420000D03*
D11*
X133137500Y-63880000D03*
D12*
X136947500Y-66420000D03*
D11*
X139487500Y-61340000D03*
D10*
X142027500Y-66420000D03*
%TD*%
%TO.C,SW13*%
X155950000Y-104630000D03*
D11*
X157220000Y-102090000D03*
D12*
X161030000Y-104630000D03*
D11*
X163570000Y-99550000D03*
D10*
X166110000Y-104630000D03*
%TD*%
%TO.C,SW24*%
X251200000Y-123680000D03*
D11*
X252470000Y-121140000D03*
D12*
X256280000Y-123680000D03*
D11*
X258820000Y-118600000D03*
D10*
X261360000Y-123680000D03*
%TD*%
%TO.C,SW44*%
X112780000Y-120480000D03*
D11*
X114050000Y-117940000D03*
D12*
X117860000Y-120480000D03*
D11*
X120400000Y-115400000D03*
D10*
X122940000Y-120480000D03*
%TD*%
%TO.C,SW35*%
X74652500Y-94330000D03*
D11*
X75922500Y-91790000D03*
D12*
X79732500Y-94330000D03*
D11*
X82272500Y-89250000D03*
D10*
X84812500Y-94330000D03*
%TD*%
%TO.C,SW2*%
X175000000Y-63355000D03*
D11*
X176270000Y-60815000D03*
D12*
X180080000Y-63355000D03*
D11*
X182620000Y-58275000D03*
D10*
X185160000Y-63355000D03*
%TD*%
%TO.C,SW42*%
X112705000Y-82255000D03*
D11*
X113975000Y-79715000D03*
D12*
X117785000Y-82255000D03*
D11*
X120325000Y-77175000D03*
D10*
X122865000Y-82255000D03*
%TD*%
D13*
%TO.C,B2*%
X148170000Y-65050000D03*
X149670000Y-65050000D03*
X148170000Y-64200000D03*
X149670000Y-64200000D03*
X148170000Y-63350000D03*
X149670000Y-63350000D03*
%TD*%
D10*
%TO.C,SW20*%
X175000000Y-120505000D03*
D11*
X176270000Y-117965000D03*
D12*
X180080000Y-120505000D03*
D11*
X182620000Y-115425000D03*
D10*
X185160000Y-120505000D03*
%TD*%
%TO.C,SW22*%
X213100000Y-113361250D03*
D11*
X214370000Y-110821250D03*
D12*
X218180000Y-113361250D03*
D11*
X220720000Y-108281250D03*
D10*
X223260000Y-113361250D03*
%TD*%
%TO.C,SW43*%
X112752500Y-101370000D03*
D11*
X114022500Y-98830000D03*
D12*
X117832500Y-101370000D03*
D11*
X120372500Y-96290000D03*
D10*
X122912500Y-101370000D03*
%TD*%
%TO.C,SW11*%
X232150000Y-80817500D03*
D11*
X233420000Y-78277500D03*
D12*
X237230000Y-80817500D03*
D11*
X239770000Y-75737500D03*
D10*
X242310000Y-80817500D03*
%TD*%
%TO.C,SW4*%
X213100000Y-56211250D03*
D11*
X214370000Y-53671250D03*
D12*
X218180000Y-56211250D03*
D11*
X220720000Y-51131250D03*
D10*
X223260000Y-56211250D03*
%TD*%
%TO.C,SW47*%
X131810000Y-104610000D03*
D11*
X133080000Y-102070000D03*
D12*
X136890000Y-104610000D03*
D11*
X139430000Y-99530000D03*
D10*
X141970000Y-104610000D03*
%TD*%
%TO.C,SW36*%
X74520000Y-113350000D03*
D11*
X75790000Y-110810000D03*
D12*
X79600000Y-113350000D03*
D11*
X82140000Y-108270000D03*
D10*
X84680000Y-113350000D03*
%TD*%
%TO.C,SW9*%
X194050000Y-77642500D03*
D11*
X195320000Y-75102500D03*
D12*
X199130000Y-77642500D03*
D11*
X201670000Y-72562500D03*
D10*
X204210000Y-77642500D03*
%TD*%
%TO.C,SW41*%
X112817500Y-63245000D03*
D11*
X114087500Y-60705000D03*
D12*
X117897500Y-63245000D03*
D11*
X120437500Y-58165000D03*
D10*
X122977500Y-63245000D03*
%TD*%
%TO.C,SW26*%
X36510000Y-85430000D03*
D11*
X37780000Y-82890000D03*
D12*
X41590000Y-85430000D03*
D11*
X44130000Y-80350000D03*
D10*
X46670000Y-85430000D03*
%TD*%
%TO.C,SW39*%
X93632500Y-96670000D03*
D11*
X94902500Y-94130000D03*
D12*
X98712500Y-96670000D03*
D11*
X101252500Y-91590000D03*
D10*
X103792500Y-96670000D03*
%TD*%
%TO.C,SW48*%
X131710000Y-123540000D03*
D11*
X132980000Y-121000000D03*
D12*
X136790000Y-123540000D03*
D11*
X139330000Y-118460000D03*
D10*
X141870000Y-123540000D03*
%TD*%
%TO.C,SW18*%
X251200000Y-104630000D03*
D11*
X252470000Y-102090000D03*
D12*
X256280000Y-104630000D03*
D11*
X258820000Y-99550000D03*
D10*
X261360000Y-104630000D03*
%TD*%
%TO.C,SW6*%
X251200000Y-66530000D03*
D11*
X252470000Y-63990000D03*
D12*
X256280000Y-66530000D03*
D11*
X258820000Y-61450000D03*
D10*
X261360000Y-66530000D03*
%TD*%
D14*
%TO.C,U2*%
X12368750Y-115533750D03*
D15*
X13203750Y-115533750D03*
D14*
X12368750Y-118073750D03*
D15*
X13203750Y-118073750D03*
D14*
X12368750Y-120613750D03*
D15*
X13203750Y-120613750D03*
D14*
X12368750Y-123153750D03*
D15*
X13203750Y-123153750D03*
D14*
X12368750Y-125693750D03*
D15*
X13203750Y-125693750D03*
D14*
X12368750Y-128233750D03*
D15*
X13203750Y-128233750D03*
D14*
X12368750Y-130773750D03*
D15*
X13203750Y-130773750D03*
X28443750Y-130773750D03*
D16*
X29278750Y-130773750D03*
D15*
X28443750Y-128233750D03*
D16*
X29278750Y-128233750D03*
D15*
X28443750Y-125693750D03*
D16*
X29278750Y-125693750D03*
D15*
X28443750Y-123153750D03*
D16*
X29278750Y-123153750D03*
D15*
X28443750Y-120613750D03*
D16*
X29278750Y-120613750D03*
D15*
X28443750Y-118073750D03*
D16*
X29278750Y-118073750D03*
D15*
X28443750Y-115533750D03*
D16*
X29278750Y-115533750D03*
%TD*%
D10*
%TO.C,SW7*%
X155950000Y-85580000D03*
D11*
X157220000Y-83040000D03*
D12*
X161030000Y-85580000D03*
D11*
X163570000Y-80500000D03*
D10*
X166110000Y-85580000D03*
%TD*%
%TO.C,SW15*%
X194050000Y-96692500D03*
D11*
X195320000Y-94152500D03*
D12*
X199130000Y-96692500D03*
D11*
X201670000Y-91612500D03*
D10*
X204210000Y-96692500D03*
%TD*%
%TO.C,SW1*%
X155950000Y-66530000D03*
D11*
X157220000Y-63990000D03*
D12*
X161030000Y-66530000D03*
D11*
X163570000Y-61450000D03*
D10*
X166110000Y-66530000D03*
%TD*%
%TO.C,SW5*%
X232150000Y-61767500D03*
D11*
X233420000Y-59227500D03*
D12*
X237230000Y-61767500D03*
D11*
X239770000Y-56687500D03*
D10*
X242310000Y-61767500D03*
%TD*%
%TO.C,SW27*%
X36580000Y-104590000D03*
D11*
X37850000Y-102050000D03*
D12*
X41660000Y-104590000D03*
D11*
X44200000Y-99510000D03*
D10*
X46740000Y-104590000D03*
%TD*%
%TO.C,SW8*%
X175000000Y-82405000D03*
D11*
X176270000Y-79865000D03*
D12*
X180080000Y-82405000D03*
D11*
X182620000Y-77325000D03*
D10*
X185160000Y-82405000D03*
%TD*%
%TO.C,SW31*%
X55562500Y-99960000D03*
D11*
X56832500Y-97420000D03*
D12*
X60642500Y-99960000D03*
D11*
X63182500Y-94880000D03*
D10*
X65722500Y-99960000D03*
%TD*%
%TO.C,SW21*%
X194050000Y-115742500D03*
D11*
X195320000Y-113202500D03*
D12*
X199130000Y-115742500D03*
D11*
X201670000Y-110662500D03*
D10*
X204210000Y-115742500D03*
%TD*%
%TO.C,SW40*%
X93740000Y-115750000D03*
D11*
X95010000Y-113210000D03*
D12*
X98820000Y-115750000D03*
D11*
X101360000Y-110670000D03*
D10*
X103900000Y-115750000D03*
%TD*%
%TO.C,SW16*%
X213100000Y-94311250D03*
D11*
X214370000Y-91771250D03*
D12*
X218180000Y-94311250D03*
D11*
X220720000Y-89231250D03*
D10*
X223260000Y-94311250D03*
%TD*%
%TO.C,SW37*%
X93802500Y-58482500D03*
D11*
X95072500Y-55942500D03*
D12*
X98882500Y-58482500D03*
D11*
X101422500Y-53402500D03*
D10*
X103962500Y-58482500D03*
%TD*%
%TO.C,SW14*%
X175000000Y-101455000D03*
D11*
X176270000Y-98915000D03*
D12*
X180080000Y-101455000D03*
D11*
X182620000Y-96375000D03*
D10*
X185160000Y-101455000D03*
%TD*%
%TO.C,SW29*%
X55672500Y-61655000D03*
D11*
X56942500Y-59115000D03*
D12*
X60752500Y-61655000D03*
D11*
X63292500Y-56575000D03*
D10*
X65832500Y-61655000D03*
%TD*%
%TO.C,SW10*%
X213100000Y-75261250D03*
D11*
X214370000Y-72721250D03*
D12*
X218180000Y-75261250D03*
D11*
X220720000Y-70181250D03*
D10*
X223260000Y-75261250D03*
%TD*%
%TO.C,SW32*%
X55662500Y-118950000D03*
D11*
X56932500Y-116410000D03*
D12*
X60742500Y-118950000D03*
D11*
X63282500Y-113870000D03*
D10*
X65822500Y-118950000D03*
%TD*%
%TO.C,SW3*%
X194050000Y-58592500D03*
D11*
X195320000Y-56052500D03*
D12*
X199130000Y-58592500D03*
D11*
X201670000Y-53512500D03*
D10*
X204210000Y-58592500D03*
%TD*%
%TO.C,SW34*%
X74625000Y-75111250D03*
D11*
X75895000Y-72571250D03*
D12*
X79705000Y-75111250D03*
D11*
X82245000Y-70031250D03*
D10*
X84785000Y-75111250D03*
%TD*%
%TO.C,SW25*%
X36622500Y-66420000D03*
D11*
X37892500Y-63880000D03*
D12*
X41702500Y-66420000D03*
D11*
X44242500Y-61340000D03*
D10*
X46782500Y-66420000D03*
%TD*%
%TO.C,SW19*%
X155950000Y-123680000D03*
D11*
X157220000Y-121140000D03*
D12*
X161030000Y-123680000D03*
D11*
X163570000Y-118600000D03*
D10*
X166110000Y-123680000D03*
%TD*%
M02*
