%TF.GenerationSoftware,KiCad,Pcbnew,9.0.7*%
%TF.CreationDate,2026-02-10T15:30:13+05:30*%
%TF.ProjectId,Tao Te Ching,54616f20-5465-4204-9368-696e672e6b69,rev?*%
%TF.SameCoordinates,Original*%
%TF.FileFunction,Soldermask,Bot*%
%TF.FilePolarity,Negative*%
%FSLAX46Y46*%
G04 Gerber Fmt 4.6, Leading zero omitted, Abs format (unit mm)*
G04 Created by KiCad (PCBNEW 9.0.7) date 2026-02-10 15:30:13*
%MOMM*%
%LPD*%
G01*
G04 APERTURE LIST*
%ADD10C,1.700000*%
%ADD11C,4.000000*%
%ADD12C,2.200000*%
%ADD13C,0.500000*%
%ADD14C,1.524000*%
G04 APERTURE END LIST*
D10*
%TO.C,SW17*%
X232073750Y-99905000D03*
D11*
X237153750Y-99905000D03*
D10*
X242233750Y-99905000D03*
D12*
X239693750Y-94825000D03*
X233343750Y-97365000D03*
%TD*%
D13*
%TO.C,B1*%
X148170000Y-122350000D03*
X149670000Y-122350000D03*
X148170000Y-121500000D03*
X149670000Y-121500000D03*
X148170000Y-120650000D03*
X149670000Y-120650000D03*
%TD*%
D10*
%TO.C,SW30*%
X55595000Y-80765000D03*
D11*
X60675000Y-80765000D03*
D10*
X65755000Y-80765000D03*
D12*
X63215000Y-75685000D03*
X56865000Y-78225000D03*
%TD*%
D10*
%TO.C,SW38*%
X93725000Y-77592500D03*
D11*
X98805000Y-77592500D03*
D10*
X103885000Y-77592500D03*
D12*
X101345000Y-72512500D03*
X94995000Y-75052500D03*
%TD*%
D10*
%TO.C,SW12*%
X251123750Y-85607500D03*
D11*
X256203750Y-85607500D03*
D10*
X261283750Y-85607500D03*
D12*
X258743750Y-80527500D03*
X252393750Y-83067500D03*
%TD*%
D10*
%TO.C,SW33*%
X74665000Y-56153750D03*
D11*
X79745000Y-56153750D03*
D10*
X84825000Y-56153750D03*
D12*
X82285000Y-51073750D03*
X75935000Y-53613750D03*
%TD*%
D10*
%TO.C,SW23*%
X232073750Y-118945000D03*
D11*
X237153750Y-118945000D03*
D10*
X242233750Y-118945000D03*
D12*
X239693750Y-113865000D03*
X233343750Y-116405000D03*
%TD*%
D14*
%TO.C,U1*%
X268883750Y-115590000D03*
X268883750Y-118130000D03*
X268883750Y-120670000D03*
X268883750Y-123210000D03*
X268883750Y-125750000D03*
X268883750Y-128290000D03*
X268883750Y-130830000D03*
X284123750Y-130830000D03*
X284123750Y-128290000D03*
X284123750Y-125750000D03*
X284123750Y-123210000D03*
X284123750Y-120670000D03*
X284123750Y-118130000D03*
X284123750Y-115590000D03*
%TD*%
D10*
%TO.C,SW46*%
X131790000Y-85530000D03*
D11*
X136870000Y-85530000D03*
D10*
X141950000Y-85530000D03*
D12*
X139410000Y-80450000D03*
X133060000Y-82990000D03*
%TD*%
D13*
%TO.C,B3*%
X148170000Y-81340000D03*
X149670000Y-81340000D03*
X148170000Y-80490000D03*
X149670000Y-80490000D03*
X148170000Y-79640000D03*
X149670000Y-79640000D03*
%TD*%
D10*
%TO.C,SW28*%
X36540000Y-123582500D03*
D11*
X41620000Y-123582500D03*
D10*
X46700000Y-123582500D03*
D12*
X44160000Y-118502500D03*
X37810000Y-121042500D03*
%TD*%
D10*
%TO.C,SW45*%
X131790000Y-66480000D03*
D11*
X136870000Y-66480000D03*
D10*
X141950000Y-66480000D03*
D12*
X139410000Y-61400000D03*
X133060000Y-63940000D03*
%TD*%
D10*
%TO.C,SW13*%
X155873750Y-104657500D03*
D11*
X160953750Y-104657500D03*
D10*
X166033750Y-104657500D03*
D12*
X163493750Y-99577500D03*
X157143750Y-102117500D03*
%TD*%
D10*
%TO.C,SW24*%
X251123750Y-123707500D03*
D11*
X256203750Y-123707500D03*
D10*
X261283750Y-123707500D03*
D12*
X258743750Y-118627500D03*
X252393750Y-121167500D03*
%TD*%
D10*
%TO.C,SW44*%
X112740000Y-120455000D03*
D11*
X117820000Y-120455000D03*
D10*
X122900000Y-120455000D03*
D12*
X120360000Y-115375000D03*
X114010000Y-117915000D03*
%TD*%
D10*
%TO.C,SW35*%
X74660000Y-94261250D03*
D11*
X79740000Y-94261250D03*
D10*
X84820000Y-94261250D03*
D12*
X82280000Y-89181250D03*
X75930000Y-91721250D03*
%TD*%
D10*
%TO.C,SW2*%
X174923750Y-63382500D03*
D11*
X180003750Y-63382500D03*
D10*
X185083750Y-63382500D03*
D12*
X182543750Y-58302500D03*
X176193750Y-60842500D03*
%TD*%
D10*
%TO.C,SW42*%
X112740000Y-82355000D03*
D11*
X117820000Y-82355000D03*
D10*
X122900000Y-82355000D03*
D12*
X120360000Y-77275000D03*
X114010000Y-79815000D03*
%TD*%
D13*
%TO.C,B2*%
X148170000Y-65050000D03*
X149670000Y-65050000D03*
X148170000Y-64200000D03*
X149670000Y-64200000D03*
X148170000Y-63350000D03*
X149670000Y-63350000D03*
%TD*%
D10*
%TO.C,SW20*%
X174923750Y-120532500D03*
D11*
X180003750Y-120532500D03*
D10*
X185083750Y-120532500D03*
D12*
X182543750Y-115452500D03*
X176193750Y-117992500D03*
%TD*%
D10*
%TO.C,SW22*%
X213023750Y-113388750D03*
D11*
X218103750Y-113388750D03*
D10*
X223183750Y-113388750D03*
D12*
X220643750Y-108308750D03*
X214293750Y-110848750D03*
%TD*%
D10*
%TO.C,SW43*%
X112740000Y-101405000D03*
D11*
X117820000Y-101405000D03*
D10*
X122900000Y-101405000D03*
D12*
X120360000Y-96325000D03*
X114010000Y-98865000D03*
%TD*%
D10*
%TO.C,SW11*%
X232073750Y-80845000D03*
D11*
X237153750Y-80845000D03*
D10*
X242233750Y-80845000D03*
D12*
X239693750Y-75765000D03*
X233343750Y-78305000D03*
%TD*%
D10*
%TO.C,SW4*%
X213023750Y-56238750D03*
D11*
X218103750Y-56238750D03*
D10*
X223183750Y-56238750D03*
D12*
X220643750Y-51158750D03*
X214293750Y-53698750D03*
%TD*%
D10*
%TO.C,SW47*%
X131790000Y-104580000D03*
D11*
X136870000Y-104580000D03*
D10*
X141950000Y-104580000D03*
D12*
X139410000Y-99500000D03*
X133060000Y-102040000D03*
%TD*%
D10*
%TO.C,SW36*%
X74640000Y-113311250D03*
D11*
X79720000Y-113311250D03*
D10*
X84800000Y-113311250D03*
D12*
X82260000Y-108231250D03*
X75910000Y-110771250D03*
%TD*%
D10*
%TO.C,SW9*%
X193973750Y-77670000D03*
D11*
X199053750Y-77670000D03*
D10*
X204133750Y-77670000D03*
D12*
X201593750Y-72590000D03*
X195243750Y-75130000D03*
%TD*%
D10*
%TO.C,SW41*%
X112740000Y-63305000D03*
D11*
X117820000Y-63305000D03*
D10*
X122900000Y-63305000D03*
D12*
X120360000Y-58225000D03*
X114010000Y-60765000D03*
%TD*%
D10*
%TO.C,SW26*%
X36545000Y-85530000D03*
D11*
X41625000Y-85530000D03*
D10*
X46705000Y-85530000D03*
D12*
X44165000Y-80450000D03*
X37815000Y-82990000D03*
%TD*%
D10*
%TO.C,SW39*%
X93725000Y-96642500D03*
D11*
X98805000Y-96642500D03*
D10*
X103885000Y-96642500D03*
D12*
X101345000Y-91562500D03*
X94995000Y-94102500D03*
%TD*%
D10*
%TO.C,SW48*%
X131790000Y-123630000D03*
D11*
X136870000Y-123630000D03*
D10*
X141950000Y-123630000D03*
D12*
X139410000Y-118550000D03*
X133060000Y-121090000D03*
%TD*%
D10*
%TO.C,SW18*%
X251123750Y-104657500D03*
D11*
X256203750Y-104657500D03*
D10*
X261283750Y-104657500D03*
D12*
X258743750Y-99577500D03*
X252393750Y-102117500D03*
%TD*%
D10*
%TO.C,SW6*%
X251123750Y-66557500D03*
D11*
X256203750Y-66557500D03*
D10*
X261283750Y-66557500D03*
D12*
X258743750Y-61477500D03*
X252393750Y-64017500D03*
%TD*%
D14*
%TO.C,U2*%
X13203750Y-115533750D03*
X13203750Y-118073750D03*
X13203750Y-120613750D03*
X13203750Y-123153750D03*
X13203750Y-125693750D03*
X13203750Y-128233750D03*
X13203750Y-130773750D03*
X28443750Y-130773750D03*
X28443750Y-128233750D03*
X28443750Y-125693750D03*
X28443750Y-123153750D03*
X28443750Y-120613750D03*
X28443750Y-118073750D03*
X28443750Y-115533750D03*
%TD*%
D10*
%TO.C,SW7*%
X155873750Y-85607500D03*
D11*
X160953750Y-85607500D03*
D10*
X166033750Y-85607500D03*
D12*
X163493750Y-80527500D03*
X157143750Y-83067500D03*
%TD*%
D10*
%TO.C,SW15*%
X193973750Y-96720000D03*
D11*
X199053750Y-96720000D03*
D10*
X204133750Y-96720000D03*
D12*
X201593750Y-91640000D03*
X195243750Y-94180000D03*
%TD*%
D10*
%TO.C,SW1*%
X155873750Y-66557500D03*
D11*
X160953750Y-66557500D03*
D10*
X166033750Y-66557500D03*
D12*
X163493750Y-61477500D03*
X157143750Y-64017500D03*
%TD*%
D10*
%TO.C,SW5*%
X232073750Y-61795000D03*
D11*
X237153750Y-61795000D03*
D10*
X242233750Y-61795000D03*
D12*
X239693750Y-56715000D03*
X233343750Y-59255000D03*
%TD*%
D10*
%TO.C,SW27*%
X36545000Y-104580000D03*
D11*
X41625000Y-104580000D03*
D10*
X46705000Y-104580000D03*
D12*
X44165000Y-99500000D03*
X37815000Y-102040000D03*
%TD*%
D10*
%TO.C,SW8*%
X174923750Y-82432500D03*
D11*
X180003750Y-82432500D03*
D10*
X185083750Y-82432500D03*
D12*
X182543750Y-77352500D03*
X176193750Y-79892500D03*
%TD*%
D10*
%TO.C,SW31*%
X55595000Y-99815000D03*
D11*
X60675000Y-99815000D03*
D10*
X65755000Y-99815000D03*
D12*
X63215000Y-94735000D03*
X56865000Y-97275000D03*
%TD*%
D10*
%TO.C,SW21*%
X193973750Y-115770000D03*
D11*
X199053750Y-115770000D03*
D10*
X204133750Y-115770000D03*
D12*
X201593750Y-110690000D03*
X195243750Y-113230000D03*
%TD*%
D10*
%TO.C,SW40*%
X93725000Y-115670000D03*
D11*
X98805000Y-115670000D03*
D10*
X103885000Y-115670000D03*
D12*
X101345000Y-110590000D03*
X94995000Y-113130000D03*
%TD*%
D10*
%TO.C,SW16*%
X213023750Y-94338750D03*
D11*
X218103750Y-94338750D03*
D10*
X223183750Y-94338750D03*
D12*
X220643750Y-89258750D03*
X214293750Y-91798750D03*
%TD*%
D10*
%TO.C,SW37*%
X93725000Y-58542500D03*
D11*
X98805000Y-58542500D03*
D10*
X103885000Y-58542500D03*
D12*
X101345000Y-53462500D03*
X94995000Y-56002500D03*
%TD*%
D10*
%TO.C,SW14*%
X174923750Y-101482500D03*
D11*
X180003750Y-101482500D03*
D10*
X185083750Y-101482500D03*
D12*
X182543750Y-96402500D03*
X176193750Y-98942500D03*
%TD*%
D10*
%TO.C,SW29*%
X55595000Y-61715000D03*
D11*
X60675000Y-61715000D03*
D10*
X65755000Y-61715000D03*
D12*
X63215000Y-56635000D03*
X56865000Y-59175000D03*
%TD*%
D10*
%TO.C,SW10*%
X213023750Y-75288750D03*
D11*
X218103750Y-75288750D03*
D10*
X223183750Y-75288750D03*
D12*
X220643750Y-70208750D03*
X214293750Y-72748750D03*
%TD*%
D10*
%TO.C,SW32*%
X55595000Y-118865000D03*
D11*
X60675000Y-118865000D03*
D10*
X65755000Y-118865000D03*
D12*
X63215000Y-113785000D03*
X56865000Y-116325000D03*
%TD*%
D10*
%TO.C,SW3*%
X193973750Y-58620000D03*
D11*
X199053750Y-58620000D03*
D10*
X204133750Y-58620000D03*
D12*
X201593750Y-53540000D03*
X195243750Y-56080000D03*
%TD*%
D10*
%TO.C,SW34*%
X74660000Y-75211250D03*
D11*
X79740000Y-75211250D03*
D10*
X84820000Y-75211250D03*
D12*
X82280000Y-70131250D03*
X75930000Y-72671250D03*
%TD*%
D10*
%TO.C,SW25*%
X36545000Y-66480000D03*
D11*
X41625000Y-66480000D03*
D10*
X46705000Y-66480000D03*
D12*
X44165000Y-61400000D03*
X37815000Y-63940000D03*
%TD*%
D10*
%TO.C,SW19*%
X155873750Y-123707500D03*
D11*
X160953750Y-123707500D03*
D10*
X166033750Y-123707500D03*
D12*
X163493750Y-118627500D03*
X157143750Y-121167500D03*
%TD*%
M02*
