M48
; DRILL file {KiCad 9.0.7} date 2026-02-23T18:54:19+0530
; FORMAT={-:-/ absolute / metric / decimal}
; #@! TF.CreationDate,2026-02-23T18:54:19+05:30
; #@! TF.GenerationSoftware,Kicad,Pcbnew,9.0.7
; #@! TF.FileFunction,NonPlated,1,2,NPTH
FMAT,2
METRIC
; #@! TA.AperFunction,NonPlated,NPTH,ComponentDrill
T1C0.500
; #@! TA.AperFunction,NonPlated,NPTH,ComponentDrill
T2C1.750
; #@! TA.AperFunction,NonPlated,NPTH,ComponentDrill
T3C3.050
; #@! TA.AperFunction,NonPlated,NPTH,ComponentDrill
T4C4.000
%
G90
G05
T1
X148.17Y-63.35
X148.17Y-64.2
X148.17Y-65.05
X148.17Y-79.64
X148.17Y-80.49
X148.17Y-81.34
X148.17Y-120.65
X148.17Y-121.5
X148.17Y-122.35
X149.67Y-63.35
X149.67Y-64.2
X149.67Y-65.05
X149.67Y-79.64
X149.67Y-80.49
X149.67Y-81.34
X149.67Y-120.65
X149.67Y-121.5
X149.67Y-122.35
T2
X36.51Y-85.43
X36.52Y-123.56
X36.58Y-104.59
X36.622Y-66.42
X46.67Y-85.43
X46.68Y-123.56
X46.74Y-104.59
X46.782Y-66.42
X55.56Y-80.665
X55.562Y-99.96
X55.662Y-118.95
X55.672Y-61.655
X65.72Y-80.665
X65.722Y-99.96
X65.822Y-118.95
X65.832Y-61.655
X74.52Y-113.35
X74.625Y-75.111
X74.653Y-94.33
X74.742Y-56.094
X84.68Y-113.35
X84.785Y-75.111
X84.812Y-94.33
X84.902Y-56.094
X93.632Y-96.67
X93.69Y-77.492
X93.74Y-115.75
X93.802Y-58.482
X103.792Y-96.67
X103.85Y-77.492
X103.9Y-115.75
X103.962Y-58.482
X112.705Y-82.255
X112.752Y-101.37
X112.78Y-120.48
X112.817Y-63.245
X122.865Y-82.255
X122.912Y-101.37
X122.94Y-120.48
X122.977Y-63.245
X131.71Y-123.54
X131.755Y-85.43
X131.81Y-104.61
X131.868Y-66.42
X141.87Y-123.54
X141.915Y-85.43
X141.97Y-104.61
X142.028Y-66.42
X155.95Y-66.53
X155.95Y-85.58
X155.95Y-104.63
X155.95Y-123.68
X166.11Y-66.53
X166.11Y-85.58
X166.11Y-104.63
X166.11Y-123.68
X175.0Y-63.355
X175.0Y-82.405
X175.0Y-101.455
X175.0Y-120.505
X185.16Y-63.355
X185.16Y-82.405
X185.16Y-101.455
X185.16Y-120.505
X194.05Y-58.592
X194.05Y-77.642
X194.05Y-96.692
X194.05Y-115.742
X204.21Y-58.592
X204.21Y-77.642
X204.21Y-96.692
X204.21Y-115.742
X213.1Y-56.211
X213.1Y-75.261
X213.1Y-94.311
X213.1Y-113.361
X223.26Y-56.211
X223.26Y-75.261
X223.26Y-94.311
X223.26Y-113.361
X232.15Y-61.767
X232.15Y-80.817
X232.15Y-99.877
X232.15Y-118.917
X242.31Y-61.767
X242.31Y-80.817
X242.31Y-99.877
X242.31Y-118.917
X251.2Y-66.53
X251.2Y-85.58
X251.2Y-104.63
X251.2Y-123.68
X261.36Y-66.53
X261.36Y-85.58
X261.36Y-104.63
X261.36Y-123.68
T3
X37.78Y-82.89
X37.79Y-121.02
X37.85Y-102.05
X37.892Y-63.88
X44.13Y-80.35
X44.14Y-118.48
X44.2Y-99.51
X44.242Y-61.34
X56.83Y-78.125
X56.832Y-97.42
X56.932Y-116.41
X56.942Y-59.115
X63.18Y-75.585
X63.182Y-94.88
X63.282Y-113.87
X63.292Y-56.575
X75.79Y-110.81
X75.895Y-72.571
X75.922Y-91.79
X76.013Y-53.554
X82.14Y-108.27
X82.245Y-70.031
X82.272Y-89.25
X82.362Y-51.014
X94.902Y-94.13
X94.96Y-74.953
X95.01Y-113.21
X95.072Y-55.942
X101.252Y-91.59
X101.31Y-72.412
X101.36Y-110.67
X101.422Y-53.402
X113.975Y-79.715
X114.022Y-98.83
X114.05Y-117.94
X114.087Y-60.705
X120.325Y-77.175
X120.372Y-96.29
X120.4Y-115.4
X120.438Y-58.165
X132.98Y-121.0
X133.025Y-82.89
X133.08Y-102.07
X133.137Y-63.88
X139.33Y-118.46
X139.375Y-80.35
X139.43Y-99.53
X139.487Y-61.34
X157.22Y-63.99
X157.22Y-83.04
X157.22Y-102.09
X157.22Y-121.14
X163.57Y-61.45
X163.57Y-80.5
X163.57Y-99.55
X163.57Y-118.6
X176.27Y-60.815
X176.27Y-79.865
X176.27Y-98.915
X176.27Y-117.965
X182.62Y-58.275
X182.62Y-77.325
X182.62Y-96.375
X182.62Y-115.425
X195.32Y-56.052
X195.32Y-75.102
X195.32Y-94.152
X195.32Y-113.203
X201.67Y-53.512
X201.67Y-72.562
X201.67Y-91.612
X201.67Y-110.662
X214.37Y-53.671
X214.37Y-72.721
X214.37Y-91.771
X214.37Y-110.821
X220.72Y-51.131
X220.72Y-70.181
X220.72Y-89.231
X220.72Y-108.281
X233.42Y-59.227
X233.42Y-78.278
X233.42Y-97.337
X233.42Y-116.377
X239.77Y-56.688
X239.77Y-75.737
X239.77Y-94.797
X239.77Y-113.837
X252.47Y-63.99
X252.47Y-83.04
X252.47Y-102.09
X252.47Y-121.14
X258.82Y-61.45
X258.82Y-80.5
X258.82Y-99.55
X258.82Y-118.6
T4
X41.59Y-85.43
X41.6Y-123.56
X41.66Y-104.59
X41.703Y-66.42
X60.64Y-80.665
X60.642Y-99.96
X60.742Y-118.95
X60.752Y-61.655
X79.6Y-113.35
X79.705Y-75.111
X79.733Y-94.33
X79.822Y-56.094
X98.712Y-96.67
X98.77Y-77.492
X98.82Y-115.75
X98.882Y-58.482
X117.785Y-82.255
X117.832Y-101.37
X117.86Y-120.48
X117.897Y-63.245
X136.79Y-123.54
X136.835Y-85.43
X136.89Y-104.61
X136.947Y-66.42
X161.03Y-66.53
X161.03Y-85.58
X161.03Y-104.63
X161.03Y-123.68
X180.08Y-63.355
X180.08Y-82.405
X180.08Y-101.455
X180.08Y-120.505
X199.13Y-58.592
X199.13Y-77.642
X199.13Y-96.692
X199.13Y-115.742
X218.18Y-56.211
X218.18Y-75.261
X218.18Y-94.311
X218.18Y-113.361
X237.23Y-61.767
X237.23Y-80.817
X237.23Y-99.877
X237.23Y-118.917
X256.28Y-66.53
X256.28Y-85.58
X256.28Y-104.63
X256.28Y-123.68
M30
