%TF.GenerationSoftware,KiCad,Pcbnew,9.0.7*%
%TF.CreationDate,2026-02-10T15:30:13+05:30*%
%TF.ProjectId,Tao Te Ching,54616f20-5465-4204-9368-696e672e6b69,rev?*%
%TF.SameCoordinates,Original*%
%TF.FileFunction,Copper,L2,Bot*%
%TF.FilePolarity,Positive*%
%FSLAX46Y46*%
G04 Gerber Fmt 4.6, Leading zero omitted, Abs format (unit mm)*
G04 Created by KiCad (PCBNEW 9.0.7) date 2026-02-10 15:30:13*
%MOMM*%
%LPD*%
G01*
G04 APERTURE LIST*
%TA.AperFunction,ComponentPad*%
%ADD10C,2.200000*%
%TD*%
%TA.AperFunction,ComponentPad*%
%ADD11C,1.524000*%
%TD*%
%TA.AperFunction,ViaPad*%
%ADD12C,0.600000*%
%TD*%
%TA.AperFunction,Conductor*%
%ADD13C,0.200000*%
%TD*%
G04 APERTURE END LIST*
D10*
%TO.P,SW17,1,1*%
%TO.N,Col4*%
X239693750Y-94825000D03*
%TO.P,SW17,2,2*%
%TO.N,Net-(D17-A)*%
X233343750Y-97365000D03*
%TD*%
%TO.P,SW30,1,1*%
%TO.N,Col7*%
X63215000Y-75685000D03*
%TO.P,SW30,2,2*%
%TO.N,Net-(D30-A)*%
X56865000Y-78225000D03*
%TD*%
%TO.P,SW38,1,1*%
%TO.N,Col9*%
X101345000Y-72512500D03*
%TO.P,SW38,2,2*%
%TO.N,Net-(D38-A)*%
X94995000Y-75052500D03*
%TD*%
%TO.P,SW12,1,1*%
%TO.N,Col5*%
X258743750Y-80527500D03*
%TO.P,SW12,2,2*%
%TO.N,Net-(D12-A)*%
X252393750Y-83067500D03*
%TD*%
%TO.P,SW33,1,1*%
%TO.N,Col8*%
X82285000Y-51073750D03*
%TO.P,SW33,2,2*%
%TO.N,Net-(D33-A)*%
X75935000Y-53613750D03*
%TD*%
%TO.P,SW23,1,1*%
%TO.N,Col4*%
X239693750Y-113865000D03*
%TO.P,SW23,2,2*%
%TO.N,Net-(D23-A)*%
X233343750Y-116405000D03*
%TD*%
D11*
%TO.P,U1,1,P0.02_AIN0_LOW_A0_D0*%
%TO.N,Row0*%
X268883750Y-115590000D03*
%TO.P,U1,2,P0.03_AIN1_LOW_A1_D1*%
%TO.N,Row1*%
X268883750Y-118130000D03*
%TO.P,U1,3,P0.28_AIN4_LOW_A2_D2*%
%TO.N,Row2*%
X268883750Y-120670000D03*
%TO.P,U1,4,P0.29_AIN5_LOW_A3_D3*%
%TO.N,Row3*%
X268883750Y-123210000D03*
%TO.P,U1,5,P0.04_AIN2_A4_D4*%
%TO.N,Col0*%
X268883750Y-125750000D03*
%TO.P,U1,6,P0.05_AIN3_A5_D5*%
%TO.N,Col1*%
X268883750Y-128290000D03*
%TO.P,U1,7,P1.11_TX_D6*%
%TO.N,Col2*%
X268883750Y-130830000D03*
%TO.P,U1,8,P1.12_RX_D7*%
%TO.N,Col5*%
X284123750Y-130830000D03*
%TO.P,U1,9,P1.13_SCK_D8*%
%TO.N,Col4*%
X284123750Y-128290000D03*
%TO.P,U1,10,P1.14_MISO_D9*%
%TO.N,Col3*%
X284123750Y-125750000D03*
%TO.P,U1,11,P1.15_MOSI_D10*%
%TO.N,unconnected-(U1-P1.15_MOSI_D10-Pad11)*%
X284123750Y-123210000D03*
%TO.P,U1,12,3V3*%
%TO.N,unconnected-(U1-3V3-Pad12)_1*%
X284123750Y-120670000D03*
%TO.P,U1,13,GND*%
%TO.N,unconnected-(U1-GND-Pad13)*%
X284123750Y-118130000D03*
%TO.P,U1,14,VBUS*%
%TO.N,unconnected-(U1-VBUS-Pad14)*%
X284123750Y-115590000D03*
%TD*%
D10*
%TO.P,SW46,1,1*%
%TO.N,Col11*%
X139410000Y-80450000D03*
%TO.P,SW46,2,2*%
%TO.N,Net-(D46-A)*%
X133060000Y-82990000D03*
%TD*%
%TO.P,SW28,1,1*%
%TO.N,Col6*%
X44160000Y-118502500D03*
%TO.P,SW28,2,2*%
%TO.N,Net-(D28-A)*%
X37810000Y-121042500D03*
%TD*%
%TO.P,SW45,1,1*%
%TO.N,Col11*%
X139410000Y-61400000D03*
%TO.P,SW45,2,2*%
%TO.N,Net-(D45-A)*%
X133060000Y-63940000D03*
%TD*%
%TO.P,SW13,1,1*%
%TO.N,Col0*%
X163493750Y-99577500D03*
%TO.P,SW13,2,2*%
%TO.N,Net-(D13-A)*%
X157143750Y-102117500D03*
%TD*%
%TO.P,SW24,1,1*%
%TO.N,Col5*%
X258743750Y-118627500D03*
%TO.P,SW24,2,2*%
%TO.N,Net-(D24-A)*%
X252393750Y-121167500D03*
%TD*%
%TO.P,SW44,1,1*%
%TO.N,Col10*%
X120360000Y-115375000D03*
%TO.P,SW44,2,2*%
%TO.N,Net-(D44-A)*%
X114010000Y-117915000D03*
%TD*%
%TO.P,SW35,1,1*%
%TO.N,Col8*%
X82280000Y-89181250D03*
%TO.P,SW35,2,2*%
%TO.N,Net-(D35-A)*%
X75930000Y-91721250D03*
%TD*%
%TO.P,SW2,1,1*%
%TO.N,Col1*%
X182543750Y-58302500D03*
%TO.P,SW2,2,2*%
%TO.N,Net-(D2-A)*%
X176193750Y-60842500D03*
%TD*%
%TO.P,SW42,1,1*%
%TO.N,Col10*%
X120360000Y-77275000D03*
%TO.P,SW42,2,2*%
%TO.N,Net-(D42-A)*%
X114010000Y-79815000D03*
%TD*%
%TO.P,SW20,1,1*%
%TO.N,Col1*%
X182543750Y-115452500D03*
%TO.P,SW20,2,2*%
%TO.N,Net-(D20-A)*%
X176193750Y-117992500D03*
%TD*%
%TO.P,SW22,1,1*%
%TO.N,Col3*%
X220643750Y-108308750D03*
%TO.P,SW22,2,2*%
%TO.N,Net-(D22-A)*%
X214293750Y-110848750D03*
%TD*%
%TO.P,SW43,1,1*%
%TO.N,Col10*%
X120360000Y-96325000D03*
%TO.P,SW43,2,2*%
%TO.N,Net-(D43-A)*%
X114010000Y-98865000D03*
%TD*%
%TO.P,SW11,1,1*%
%TO.N,Col4*%
X239693750Y-75765000D03*
%TO.P,SW11,2,2*%
%TO.N,Net-(D11-A)*%
X233343750Y-78305000D03*
%TD*%
%TO.P,SW4,1,1*%
%TO.N,Col3*%
X220643750Y-51158750D03*
%TO.P,SW4,2,2*%
%TO.N,Net-(D4-A)*%
X214293750Y-53698750D03*
%TD*%
%TO.P,SW47,1,1*%
%TO.N,Col11*%
X139410000Y-99500000D03*
%TO.P,SW47,2,2*%
%TO.N,Net-(D47-A)*%
X133060000Y-102040000D03*
%TD*%
%TO.P,SW36,1,1*%
%TO.N,Col8*%
X82260000Y-108231250D03*
%TO.P,SW36,2,2*%
%TO.N,Net-(D36-A)*%
X75910000Y-110771250D03*
%TD*%
%TO.P,SW9,1,1*%
%TO.N,Col2*%
X201593750Y-72590000D03*
%TO.P,SW9,2,2*%
%TO.N,Net-(D9-A)*%
X195243750Y-75130000D03*
%TD*%
%TO.P,SW41,1,1*%
%TO.N,Col10*%
X120360000Y-58225000D03*
%TO.P,SW41,2,2*%
%TO.N,Net-(D41-A)*%
X114010000Y-60765000D03*
%TD*%
%TO.P,SW26,1,1*%
%TO.N,Col6*%
X44165000Y-80450000D03*
%TO.P,SW26,2,2*%
%TO.N,Net-(D26-A)*%
X37815000Y-82990000D03*
%TD*%
%TO.P,SW39,1,1*%
%TO.N,Col9*%
X101345000Y-91562500D03*
%TO.P,SW39,2,2*%
%TO.N,Net-(D39-A)*%
X94995000Y-94102500D03*
%TD*%
%TO.P,SW48,1,1*%
%TO.N,Col11*%
X139410000Y-118550000D03*
%TO.P,SW48,2,2*%
%TO.N,Net-(D48-A)*%
X133060000Y-121090000D03*
%TD*%
%TO.P,SW18,1,1*%
%TO.N,Col5*%
X258743750Y-99577500D03*
%TO.P,SW18,2,2*%
%TO.N,Net-(D18-A)*%
X252393750Y-102117500D03*
%TD*%
%TO.P,SW6,1,1*%
%TO.N,Col5*%
X258743750Y-61477500D03*
%TO.P,SW6,2,2*%
%TO.N,Net-(D6-A)*%
X252393750Y-64017500D03*
%TD*%
D11*
%TO.P,U2,1,P0.02_AIN0_LOW_A0_D0*%
%TO.N,Row4*%
X13203750Y-115533750D03*
%TO.P,U2,2,P0.03_AIN1_LOW_A1_D1*%
%TO.N,Row5*%
X13203750Y-118073750D03*
%TO.P,U2,3,P0.28_AIN4_LOW_A2_D2*%
%TO.N,Row6*%
X13203750Y-120613750D03*
%TO.P,U2,4,P0.29_AIN5_LOW_A3_D3*%
%TO.N,Row7*%
X13203750Y-123153750D03*
%TO.P,U2,5,P0.04_AIN2_A4_D4*%
%TO.N,Col6*%
X13203750Y-125693750D03*
%TO.P,U2,6,P0.05_AIN3_A5_D5*%
%TO.N,Col7*%
X13203750Y-128233750D03*
%TO.P,U2,7,P1.11_TX_D6*%
%TO.N,Col8*%
X13203750Y-130773750D03*
%TO.P,U2,8,P1.12_RX_D7*%
%TO.N,Col9*%
X28443750Y-130773750D03*
%TO.P,U2,9,P1.13_SCK_D8*%
%TO.N,Col10*%
X28443750Y-128233750D03*
%TO.P,U2,10,P1.14_MISO_D9*%
%TO.N,Col11*%
X28443750Y-125693750D03*
%TO.P,U2,11,P1.15_MOSI_D10*%
%TO.N,unconnected-(U2-P1.15_MOSI_D10-Pad11)*%
X28443750Y-123153750D03*
%TO.P,U2,12,3V3*%
%TO.N,unconnected-(U2-3V3-Pad12)_1*%
X28443750Y-120613750D03*
%TO.P,U2,13,GND*%
%TO.N,unconnected-(U2-GND-Pad13)_1*%
X28443750Y-118073750D03*
%TO.P,U2,14,VBUS*%
%TO.N,unconnected-(U2-VBUS-Pad14)_1*%
X28443750Y-115533750D03*
%TD*%
D10*
%TO.P,SW7,1,1*%
%TO.N,Col0*%
X163493750Y-80527500D03*
%TO.P,SW7,2,2*%
%TO.N,Net-(D7-A)*%
X157143750Y-83067500D03*
%TD*%
%TO.P,SW15,1,1*%
%TO.N,Col2*%
X201593750Y-91640000D03*
%TO.P,SW15,2,2*%
%TO.N,Net-(D15-A)*%
X195243750Y-94180000D03*
%TD*%
%TO.P,SW1,1,1*%
%TO.N,Col0*%
X163493750Y-61477500D03*
%TO.P,SW1,2,2*%
%TO.N,Net-(D1-A)*%
X157143750Y-64017500D03*
%TD*%
%TO.P,SW5,1,1*%
%TO.N,Col4*%
X239693750Y-56715000D03*
%TO.P,SW5,2,2*%
%TO.N,Net-(D5-A)*%
X233343750Y-59255000D03*
%TD*%
%TO.P,SW27,1,1*%
%TO.N,Col6*%
X44165000Y-99500000D03*
%TO.P,SW27,2,2*%
%TO.N,Net-(D27-A)*%
X37815000Y-102040000D03*
%TD*%
%TO.P,SW8,1,1*%
%TO.N,Col1*%
X182543750Y-77352500D03*
%TO.P,SW8,2,2*%
%TO.N,Net-(D8-A)*%
X176193750Y-79892500D03*
%TD*%
%TO.P,SW31,1,1*%
%TO.N,Col7*%
X63215000Y-94735000D03*
%TO.P,SW31,2,2*%
%TO.N,Net-(D31-A)*%
X56865000Y-97275000D03*
%TD*%
%TO.P,SW21,1,1*%
%TO.N,Col2*%
X201593750Y-110690000D03*
%TO.P,SW21,2,2*%
%TO.N,Net-(D21-A)*%
X195243750Y-113230000D03*
%TD*%
%TO.P,SW40,1,1*%
%TO.N,Col9*%
X101345000Y-110590000D03*
%TO.P,SW40,2,2*%
%TO.N,Net-(D40-A)*%
X94995000Y-113130000D03*
%TD*%
%TO.P,SW16,1,1*%
%TO.N,Col3*%
X220643750Y-89258750D03*
%TO.P,SW16,2,2*%
%TO.N,Net-(D16-A)*%
X214293750Y-91798750D03*
%TD*%
%TO.P,SW37,1,1*%
%TO.N,Col9*%
X101345000Y-53462500D03*
%TO.P,SW37,2,2*%
%TO.N,Net-(D37-A)*%
X94995000Y-56002500D03*
%TD*%
%TO.P,SW14,1,1*%
%TO.N,Col1*%
X182543750Y-96402500D03*
%TO.P,SW14,2,2*%
%TO.N,Net-(D14-A)*%
X176193750Y-98942500D03*
%TD*%
%TO.P,SW29,1,1*%
%TO.N,Col7*%
X63215000Y-56635000D03*
%TO.P,SW29,2,2*%
%TO.N,Net-(D29-A)*%
X56865000Y-59175000D03*
%TD*%
%TO.P,SW10,1,1*%
%TO.N,Col3*%
X220643750Y-70208750D03*
%TO.P,SW10,2,2*%
%TO.N,Net-(D10-A)*%
X214293750Y-72748750D03*
%TD*%
%TO.P,SW32,1,1*%
%TO.N,Col7*%
X63215000Y-113785000D03*
%TO.P,SW32,2,2*%
%TO.N,Net-(D32-A)*%
X56865000Y-116325000D03*
%TD*%
%TO.P,SW3,1,1*%
%TO.N,Col2*%
X201593750Y-53540000D03*
%TO.P,SW3,2,2*%
%TO.N,Net-(D3-A)*%
X195243750Y-56080000D03*
%TD*%
%TO.P,SW34,1,1*%
%TO.N,Col8*%
X82280000Y-70131250D03*
%TO.P,SW34,2,2*%
%TO.N,Net-(D34-A)*%
X75930000Y-72671250D03*
%TD*%
%TO.P,SW25,1,1*%
%TO.N,Col6*%
X44165000Y-61400000D03*
%TO.P,SW25,2,2*%
%TO.N,Net-(D25-A)*%
X37815000Y-63940000D03*
%TD*%
%TO.P,SW19,1,1*%
%TO.N,Col0*%
X163493750Y-118627500D03*
%TO.P,SW19,2,2*%
%TO.N,Net-(D19-A)*%
X157143750Y-121167500D03*
%TD*%
D12*
%TO.N,Row4*%
X34100000Y-71100000D03*
%TO.N,Row6*%
X33000000Y-108500000D03*
%TO.N,Row7*%
X33250000Y-127350000D03*
%TO.N,Col0*%
X265963640Y-126143640D03*
%TO.N,Col1*%
X192860000Y-118813750D03*
%TO.N,Col2*%
X211690000Y-121010000D03*
%TO.N,Col3*%
X261010000Y-117250000D03*
%TO.N,Col6*%
X39200000Y-116350000D03*
%TO.N,Col8*%
X76000000Y-122600000D03*
X76000000Y-112700000D03*
X32629985Y-133421485D03*
%TO.N,Col9*%
X36800000Y-132400000D03*
%TO.N,Col10*%
X102400000Y-122200000D03*
%TO.N,Col11*%
X97700000Y-123801000D03*
X31600000Y-128833750D03*
%TD*%
D13*
%TO.N,Row4*%
X32100000Y-75050000D02*
X31044750Y-76105250D01*
X31044750Y-111816364D02*
X30284560Y-112576554D01*
X34100000Y-73850000D02*
X32900000Y-75050000D01*
X29500000Y-113300000D02*
X15250000Y-113300000D01*
X34100000Y-71100000D02*
X34100000Y-73850000D01*
X15250000Y-113300000D02*
X13203750Y-115346250D01*
X31044750Y-76105250D02*
X31044750Y-111816364D01*
X13203750Y-115346250D02*
X13203750Y-115533750D01*
X30223446Y-112576554D02*
X29500000Y-113300000D01*
X30284560Y-112576554D02*
X30223446Y-112576554D01*
X32900000Y-75050000D02*
X32100000Y-75050000D01*
%TO.N,Row6*%
X15050000Y-119900000D02*
X14336250Y-120613750D01*
X15800000Y-113900000D02*
X15050000Y-114650000D01*
X33000000Y-108500000D02*
X33000000Y-111270000D01*
X14336250Y-120613750D02*
X13203750Y-120613750D01*
X33000000Y-111270000D02*
X30370000Y-113900000D01*
X15050000Y-114650000D02*
X15050000Y-119900000D01*
X30370000Y-113900000D02*
X15800000Y-113900000D01*
%TO.N,Row7*%
X20050000Y-134041500D02*
X19358500Y-133350000D01*
X33250000Y-127350000D02*
X33250000Y-133650000D01*
X11700000Y-133350000D02*
X11700000Y-124657500D01*
X32858500Y-134041500D02*
X20050000Y-134041500D01*
X19358500Y-133350000D02*
X11700000Y-133350000D01*
X33250000Y-133650000D02*
X32858500Y-134041500D01*
X11700000Y-124657500D02*
X13203750Y-123153750D01*
%TO.N,Col0*%
X234240170Y-126143640D02*
X231186530Y-123090000D01*
X163493750Y-118627500D02*
X163493750Y-99577500D01*
X167956250Y-123090000D02*
X163493750Y-118627500D01*
X163493750Y-118627500D02*
X163493750Y-61477500D01*
X231186530Y-123090000D02*
X167956250Y-123090000D01*
X265963640Y-126143640D02*
X234240170Y-126143640D01*
%TO.N,Col1*%
X182543750Y-58302500D02*
X182543750Y-115452500D01*
X185905000Y-118813750D02*
X182543750Y-115452500D01*
X182543750Y-115452500D02*
X182543750Y-96402500D01*
X192860000Y-118813750D02*
X185905000Y-118813750D01*
%TO.N,Col2*%
X203490000Y-110690000D02*
X206340000Y-113540000D01*
X201593750Y-110690000D02*
X203490000Y-110690000D01*
X206340000Y-113540000D02*
X206340000Y-118680000D01*
X206340000Y-118680000D02*
X208670000Y-121010000D01*
X208670000Y-121010000D02*
X211690000Y-121010000D01*
X201593750Y-110690000D02*
X201593750Y-53540000D01*
X201593750Y-110690000D02*
X201593750Y-91640000D01*
%TO.N,Col3*%
X220643750Y-108308750D02*
X220643750Y-89258750D01*
X220643750Y-51158750D02*
X220643750Y-108308750D01*
X277953750Y-119580000D02*
X263340000Y-119580000D01*
X284123750Y-125750000D02*
X277953750Y-119580000D01*
X263340000Y-119580000D02*
X261010000Y-117250000D01*
%TO.N,Col4*%
X239693750Y-113865000D02*
X239693750Y-94825000D01*
X259303220Y-120028500D02*
X253236064Y-120028500D01*
X247072564Y-113865000D02*
X239693750Y-113865000D01*
X276530060Y-131893000D02*
X268910060Y-124273000D01*
X284564060Y-131893000D02*
X276530060Y-131893000D01*
X268910060Y-124273000D02*
X263547720Y-124273000D01*
X239693750Y-113865000D02*
X239693750Y-56715000D01*
X285186750Y-131270310D02*
X284564060Y-131893000D01*
X285186750Y-129353000D02*
X285186750Y-131270310D01*
X263547720Y-124273000D02*
X259303220Y-120028500D01*
X284123750Y-128290000D02*
X285186750Y-129353000D01*
X253236064Y-120028500D02*
X247072564Y-113865000D01*
%TO.N,Col5*%
X275373750Y-122080000D02*
X262196250Y-122080000D01*
X258743750Y-118627500D02*
X258743750Y-99577500D01*
X284123750Y-130830000D02*
X275373750Y-122080000D01*
X258743750Y-61477500D02*
X258743750Y-118627500D01*
X262196250Y-122080000D02*
X258743750Y-118627500D01*
%TO.N,Col6*%
X16500000Y-114300000D02*
X15800000Y-115000000D01*
X15800000Y-115000000D02*
X15800000Y-123097500D01*
X44165000Y-118497500D02*
X44160000Y-118502500D01*
X44165000Y-61400000D02*
X44165000Y-118497500D01*
X15800000Y-123097500D02*
X13203750Y-125693750D01*
X16501000Y-114301000D02*
X16500000Y-114300000D01*
X39200000Y-116350000D02*
X37151000Y-114301000D01*
X37151000Y-114301000D02*
X16501000Y-114301000D01*
%TO.N,Col7*%
X63215000Y-113785000D02*
X63215000Y-56635000D01*
%TO.N,Col8*%
X19524600Y-132949000D02*
X20216100Y-133640500D01*
X82285000Y-51073750D02*
X82285000Y-108206250D01*
X13203750Y-132452750D02*
X13700000Y-132949000D01*
X13700000Y-132949000D02*
X19524600Y-132949000D01*
X76000000Y-122600000D02*
X76000000Y-112700000D01*
X82285000Y-108206250D02*
X82260000Y-108231250D01*
X13203750Y-130773750D02*
X13203750Y-132452750D01*
X20435115Y-133421485D02*
X32629985Y-133421485D01*
X20216100Y-133640500D02*
X20435115Y-133421485D01*
%TO.N,Col9*%
X69000000Y-128150000D02*
X51450000Y-128150000D01*
X70150000Y-125919735D02*
X70150000Y-127000000D01*
X100649000Y-123201000D02*
X72868735Y-123201000D01*
X72868735Y-123201000D02*
X70150000Y-125919735D01*
X70150000Y-127000000D02*
X69000000Y-128150000D01*
X101345000Y-110590000D02*
X101345000Y-122505000D01*
X50800000Y-128800000D02*
X50800000Y-131850000D01*
X50800000Y-131850000D02*
X50250000Y-132400000D01*
X101345000Y-110590000D02*
X101345000Y-53462500D01*
X50250000Y-132400000D02*
X36800000Y-132400000D01*
X51450000Y-128150000D02*
X50800000Y-128800000D01*
X101345000Y-122505000D02*
X100649000Y-123201000D01*
%TO.N,Col10*%
X107450000Y-118950000D02*
X107450000Y-121150000D01*
X120360000Y-58225000D02*
X120360000Y-115375000D01*
X107450000Y-121150000D02*
X107450000Y-121700000D01*
X107450000Y-121700000D02*
X106950000Y-122200000D01*
X111025000Y-115375000D02*
X107450000Y-118950000D01*
X106950000Y-122200000D02*
X102400000Y-122200000D01*
X120360000Y-115375000D02*
X111025000Y-115375000D01*
%TO.N,Col11*%
X100500000Y-125650000D02*
X99549000Y-125650000D01*
X139410000Y-118550000D02*
X138568470Y-118550000D01*
X112000000Y-130650000D02*
X111000000Y-129650000D01*
X107000000Y-125650000D02*
X100500000Y-125650000D01*
X132350000Y-124768470D02*
X132350000Y-128950000D01*
X111000000Y-129650000D02*
X107000000Y-125650000D01*
X132350000Y-128950000D02*
X130650000Y-130650000D01*
X127950000Y-130650000D02*
X112000000Y-130650000D01*
X31600000Y-128833750D02*
X31583750Y-128833750D01*
X99549000Y-125650000D02*
X97700000Y-123801000D01*
X138568470Y-118550000D02*
X132350000Y-124768470D01*
X130650000Y-130650000D02*
X127950000Y-130650000D01*
X31583750Y-128833750D02*
X28443750Y-125693750D01*
X139410000Y-118550000D02*
X139410000Y-61400000D01*
%TD*%
M02*
