%TF.GenerationSoftware,KiCad,Pcbnew,9.0.7*%
%TF.CreationDate,2026-02-23T18:54:17+05:30*%
%TF.ProjectId,Tao Te Ching,54616f20-5465-4204-9368-696e672e6b69,rev?*%
%TF.SameCoordinates,Original*%
%TF.FileFunction,Legend,Top*%
%TF.FilePolarity,Positive*%
%FSLAX46Y46*%
G04 Gerber Fmt 4.6, Leading zero omitted, Abs format (unit mm)*
G04 Created by KiCad (PCBNEW 9.0.7) date 2026-02-23 18:54:17*
%MOMM*%
%LPD*%
G01*
G04 APERTURE LIST*
%ADD10C,0.625000*%
%ADD11C,0.150000*%
%ADD12C,0.101600*%
%ADD13C,0.120000*%
%ADD14C,0.127000*%
%ADD15C,0.100000*%
%ADD16C,0.504000*%
%ADD17C,0.000000*%
G04 APERTURE END LIST*
D10*
X209693665Y-67061271D02*
X211713970Y-69081576D01*
X207168284Y-71606958D02*
X210703817Y-68071424D01*
X210198741Y-72617110D02*
X211882329Y-74300698D01*
X208851871Y-73290545D02*
X213565916Y-70933523D01*
X213565916Y-70933523D02*
X211208894Y-75647568D01*
X216596374Y-73963980D02*
X217269809Y-74637415D01*
X217269809Y-74637415D02*
X217438168Y-75142491D01*
X217438168Y-75142491D02*
X217438168Y-75815926D01*
X217438168Y-75815926D02*
X216933091Y-76657720D01*
X216933091Y-76657720D02*
X215754580Y-77836232D01*
X215754580Y-77836232D02*
X214912786Y-78341308D01*
X214912786Y-78341308D02*
X214239351Y-78341308D01*
X214239351Y-78341308D02*
X213734275Y-78172949D01*
X213734275Y-78172949D02*
X213060840Y-77499514D01*
X213060840Y-77499514D02*
X212892481Y-76994438D01*
X212892481Y-76994438D02*
X212892481Y-76321003D01*
X212892481Y-76321003D02*
X213397557Y-75479209D01*
X213397557Y-75479209D02*
X214576069Y-74300698D01*
X214576069Y-74300698D02*
X215417863Y-73795621D01*
X215417863Y-73795621D02*
X216091298Y-73795621D01*
X216091298Y-73795621D02*
X216596374Y-73963980D01*
X221815495Y-79183102D02*
X223835800Y-81203407D01*
X219290114Y-83728788D02*
X222825648Y-80193254D01*
X223330724Y-84065506D02*
X224509236Y-85244017D01*
X223162366Y-87601040D02*
X221478778Y-85917452D01*
X221478778Y-85917452D02*
X225014312Y-82381918D01*
X225014312Y-82381918D02*
X226697899Y-84065506D01*
X229728358Y-93493597D02*
X229391640Y-93493597D01*
X229391640Y-93493597D02*
X228718205Y-93156879D01*
X228718205Y-93156879D02*
X228381487Y-92820162D01*
X228381487Y-92820162D02*
X228044770Y-92146726D01*
X228044770Y-92146726D02*
X228044770Y-91473291D01*
X228044770Y-91473291D02*
X228213129Y-90968215D01*
X228213129Y-90968215D02*
X228718205Y-90126421D01*
X228718205Y-90126421D02*
X229223281Y-89621345D01*
X229223281Y-89621345D02*
X230065075Y-89116269D01*
X230065075Y-89116269D02*
X230570151Y-88947910D01*
X230570151Y-88947910D02*
X231243586Y-88947910D01*
X231243586Y-88947910D02*
X231917021Y-89284628D01*
X231917021Y-89284628D02*
X232253739Y-89621345D01*
X232253739Y-89621345D02*
X232590456Y-90294780D01*
X232590456Y-90294780D02*
X232590456Y-90631498D01*
X230906869Y-95345543D02*
X234442403Y-91810009D01*
X232758815Y-93493597D02*
X234779120Y-95513902D01*
X232927174Y-97365848D02*
X236462708Y-93830314D01*
X234610761Y-99049435D02*
X238146295Y-95513901D01*
X236294349Y-100733023D02*
X239829883Y-97197489D01*
X239829883Y-97197489D02*
X238314654Y-102753328D01*
X238314654Y-102753328D02*
X241850188Y-99217794D01*
X245217363Y-102921686D02*
X245049004Y-102416610D01*
X245049004Y-102416610D02*
X244543928Y-101911534D01*
X244543928Y-101911534D02*
X243870493Y-101574816D01*
X243870493Y-101574816D02*
X243197058Y-101574816D01*
X243197058Y-101574816D02*
X242691981Y-101743175D01*
X242691981Y-101743175D02*
X241850187Y-102248251D01*
X241850187Y-102248251D02*
X241345111Y-102753328D01*
X241345111Y-102753328D02*
X240840035Y-103595121D01*
X240840035Y-103595121D02*
X240671676Y-104100198D01*
X240671676Y-104100198D02*
X240671676Y-104773633D01*
X240671676Y-104773633D02*
X241008394Y-105447068D01*
X241008394Y-105447068D02*
X241345111Y-105783785D01*
X241345111Y-105783785D02*
X242018546Y-106120503D01*
X242018546Y-106120503D02*
X242355264Y-106120503D01*
X242355264Y-106120503D02*
X243533775Y-104941991D01*
X243533775Y-104941991D02*
X242860340Y-104268556D01*
X61011271Y-103506334D02*
X63031576Y-101486029D01*
X65556958Y-106031715D02*
X62021424Y-102496182D01*
X66567110Y-103001258D02*
X68250698Y-101317670D01*
X67240545Y-104348128D02*
X64883523Y-99634083D01*
X64883523Y-99634083D02*
X69597568Y-101991105D01*
X67913980Y-96603625D02*
X68587415Y-95930190D01*
X68587415Y-95930190D02*
X69092491Y-95761831D01*
X69092491Y-95761831D02*
X69765926Y-95761831D01*
X69765926Y-95761831D02*
X70607720Y-96266908D01*
X70607720Y-96266908D02*
X71786232Y-97445419D01*
X71786232Y-97445419D02*
X72291308Y-98287213D01*
X72291308Y-98287213D02*
X72291308Y-98960648D01*
X72291308Y-98960648D02*
X72122949Y-99465724D01*
X72122949Y-99465724D02*
X71449514Y-100139159D01*
X71449514Y-100139159D02*
X70944438Y-100307518D01*
X70944438Y-100307518D02*
X70271003Y-100307518D01*
X70271003Y-100307518D02*
X69429209Y-99802442D01*
X69429209Y-99802442D02*
X68250698Y-98623930D01*
X68250698Y-98623930D02*
X67745621Y-97782136D01*
X67745621Y-97782136D02*
X67745621Y-97108701D01*
X67745621Y-97108701D02*
X67913980Y-96603625D01*
X73133102Y-91384504D02*
X75153407Y-89364199D01*
X77678788Y-93909885D02*
X74143254Y-90374351D01*
X78015506Y-89869275D02*
X79194017Y-88690763D01*
X81551040Y-90037633D02*
X79867452Y-91721221D01*
X79867452Y-91721221D02*
X76331918Y-88185687D01*
X76331918Y-88185687D02*
X78015506Y-86502100D01*
X87443597Y-83471641D02*
X87443597Y-83808359D01*
X87443597Y-83808359D02*
X87106879Y-84481794D01*
X87106879Y-84481794D02*
X86770162Y-84818512D01*
X86770162Y-84818512D02*
X86096726Y-85155229D01*
X86096726Y-85155229D02*
X85423291Y-85155229D01*
X85423291Y-85155229D02*
X84918215Y-84986870D01*
X84918215Y-84986870D02*
X84076421Y-84481794D01*
X84076421Y-84481794D02*
X83571345Y-83976718D01*
X83571345Y-83976718D02*
X83066269Y-83134924D01*
X83066269Y-83134924D02*
X82897910Y-82629848D01*
X82897910Y-82629848D02*
X82897910Y-81956413D01*
X82897910Y-81956413D02*
X83234628Y-81282978D01*
X83234628Y-81282978D02*
X83571345Y-80946260D01*
X83571345Y-80946260D02*
X84244780Y-80609543D01*
X84244780Y-80609543D02*
X84581498Y-80609543D01*
X89295543Y-82293130D02*
X85760009Y-78757596D01*
X87443597Y-80441184D02*
X89463902Y-78420879D01*
X91315848Y-80272825D02*
X87780314Y-76737291D01*
X92999435Y-78589238D02*
X89463901Y-75053704D01*
X94683023Y-76905650D02*
X91147489Y-73370116D01*
X91147489Y-73370116D02*
X96703328Y-74885345D01*
X96703328Y-74885345D02*
X93167794Y-71349811D01*
X96871686Y-67982636D02*
X96366610Y-68150995D01*
X96366610Y-68150995D02*
X95861534Y-68656071D01*
X95861534Y-68656071D02*
X95524816Y-69329506D01*
X95524816Y-69329506D02*
X95524816Y-70002941D01*
X95524816Y-70002941D02*
X95693175Y-70508018D01*
X95693175Y-70508018D02*
X96198251Y-71349812D01*
X96198251Y-71349812D02*
X96703328Y-71854888D01*
X96703328Y-71854888D02*
X97545121Y-72359964D01*
X97545121Y-72359964D02*
X98050198Y-72528323D01*
X98050198Y-72528323D02*
X98723633Y-72528323D01*
X98723633Y-72528323D02*
X99397068Y-72191605D01*
X99397068Y-72191605D02*
X99733785Y-71854888D01*
X99733785Y-71854888D02*
X100070503Y-71181453D01*
X100070503Y-71181453D02*
X100070503Y-70844735D01*
X100070503Y-70844735D02*
X98891991Y-69666224D01*
X98891991Y-69666224D02*
X98218556Y-70339659D01*
D11*
X235420476Y-92284700D02*
X235563333Y-92332319D01*
X235563333Y-92332319D02*
X235801428Y-92332319D01*
X235801428Y-92332319D02*
X235896666Y-92284700D01*
X235896666Y-92284700D02*
X235944285Y-92237080D01*
X235944285Y-92237080D02*
X235991904Y-92141842D01*
X235991904Y-92141842D02*
X235991904Y-92046604D01*
X235991904Y-92046604D02*
X235944285Y-91951366D01*
X235944285Y-91951366D02*
X235896666Y-91903747D01*
X235896666Y-91903747D02*
X235801428Y-91856128D01*
X235801428Y-91856128D02*
X235610952Y-91808509D01*
X235610952Y-91808509D02*
X235515714Y-91760890D01*
X235515714Y-91760890D02*
X235468095Y-91713271D01*
X235468095Y-91713271D02*
X235420476Y-91618033D01*
X235420476Y-91618033D02*
X235420476Y-91522795D01*
X235420476Y-91522795D02*
X235468095Y-91427557D01*
X235468095Y-91427557D02*
X235515714Y-91379938D01*
X235515714Y-91379938D02*
X235610952Y-91332319D01*
X235610952Y-91332319D02*
X235849047Y-91332319D01*
X235849047Y-91332319D02*
X235991904Y-91379938D01*
X236325238Y-91332319D02*
X236563333Y-92332319D01*
X236563333Y-92332319D02*
X236753809Y-91618033D01*
X236753809Y-91618033D02*
X236944285Y-92332319D01*
X236944285Y-92332319D02*
X237182381Y-91332319D01*
X238087142Y-92332319D02*
X237515714Y-92332319D01*
X237801428Y-92332319D02*
X237801428Y-91332319D01*
X237801428Y-91332319D02*
X237706190Y-91475176D01*
X237706190Y-91475176D02*
X237610952Y-91570414D01*
X237610952Y-91570414D02*
X237515714Y-91618033D01*
X238420476Y-91332319D02*
X239087142Y-91332319D01*
X239087142Y-91332319D02*
X238658571Y-92332319D01*
X58830476Y-73072200D02*
X58973333Y-73119819D01*
X58973333Y-73119819D02*
X59211428Y-73119819D01*
X59211428Y-73119819D02*
X59306666Y-73072200D01*
X59306666Y-73072200D02*
X59354285Y-73024580D01*
X59354285Y-73024580D02*
X59401904Y-72929342D01*
X59401904Y-72929342D02*
X59401904Y-72834104D01*
X59401904Y-72834104D02*
X59354285Y-72738866D01*
X59354285Y-72738866D02*
X59306666Y-72691247D01*
X59306666Y-72691247D02*
X59211428Y-72643628D01*
X59211428Y-72643628D02*
X59020952Y-72596009D01*
X59020952Y-72596009D02*
X58925714Y-72548390D01*
X58925714Y-72548390D02*
X58878095Y-72500771D01*
X58878095Y-72500771D02*
X58830476Y-72405533D01*
X58830476Y-72405533D02*
X58830476Y-72310295D01*
X58830476Y-72310295D02*
X58878095Y-72215057D01*
X58878095Y-72215057D02*
X58925714Y-72167438D01*
X58925714Y-72167438D02*
X59020952Y-72119819D01*
X59020952Y-72119819D02*
X59259047Y-72119819D01*
X59259047Y-72119819D02*
X59401904Y-72167438D01*
X59735238Y-72119819D02*
X59973333Y-73119819D01*
X59973333Y-73119819D02*
X60163809Y-72405533D01*
X60163809Y-72405533D02*
X60354285Y-73119819D01*
X60354285Y-73119819D02*
X60592381Y-72119819D01*
X60878095Y-72119819D02*
X61497142Y-72119819D01*
X61497142Y-72119819D02*
X61163809Y-72500771D01*
X61163809Y-72500771D02*
X61306666Y-72500771D01*
X61306666Y-72500771D02*
X61401904Y-72548390D01*
X61401904Y-72548390D02*
X61449523Y-72596009D01*
X61449523Y-72596009D02*
X61497142Y-72691247D01*
X61497142Y-72691247D02*
X61497142Y-72929342D01*
X61497142Y-72929342D02*
X61449523Y-73024580D01*
X61449523Y-73024580D02*
X61401904Y-73072200D01*
X61401904Y-73072200D02*
X61306666Y-73119819D01*
X61306666Y-73119819D02*
X61020952Y-73119819D01*
X61020952Y-73119819D02*
X60925714Y-73072200D01*
X60925714Y-73072200D02*
X60878095Y-73024580D01*
X62116190Y-72119819D02*
X62211428Y-72119819D01*
X62211428Y-72119819D02*
X62306666Y-72167438D01*
X62306666Y-72167438D02*
X62354285Y-72215057D01*
X62354285Y-72215057D02*
X62401904Y-72310295D01*
X62401904Y-72310295D02*
X62449523Y-72500771D01*
X62449523Y-72500771D02*
X62449523Y-72738866D01*
X62449523Y-72738866D02*
X62401904Y-72929342D01*
X62401904Y-72929342D02*
X62354285Y-73024580D01*
X62354285Y-73024580D02*
X62306666Y-73072200D01*
X62306666Y-73072200D02*
X62211428Y-73119819D01*
X62211428Y-73119819D02*
X62116190Y-73119819D01*
X62116190Y-73119819D02*
X62020952Y-73072200D01*
X62020952Y-73072200D02*
X61973333Y-73024580D01*
X61973333Y-73024580D02*
X61925714Y-72929342D01*
X61925714Y-72929342D02*
X61878095Y-72738866D01*
X61878095Y-72738866D02*
X61878095Y-72500771D01*
X61878095Y-72500771D02*
X61925714Y-72310295D01*
X61925714Y-72310295D02*
X61973333Y-72215057D01*
X61973333Y-72215057D02*
X62020952Y-72167438D01*
X62020952Y-72167438D02*
X62116190Y-72119819D01*
X96960476Y-69899700D02*
X97103333Y-69947319D01*
X97103333Y-69947319D02*
X97341428Y-69947319D01*
X97341428Y-69947319D02*
X97436666Y-69899700D01*
X97436666Y-69899700D02*
X97484285Y-69852080D01*
X97484285Y-69852080D02*
X97531904Y-69756842D01*
X97531904Y-69756842D02*
X97531904Y-69661604D01*
X97531904Y-69661604D02*
X97484285Y-69566366D01*
X97484285Y-69566366D02*
X97436666Y-69518747D01*
X97436666Y-69518747D02*
X97341428Y-69471128D01*
X97341428Y-69471128D02*
X97150952Y-69423509D01*
X97150952Y-69423509D02*
X97055714Y-69375890D01*
X97055714Y-69375890D02*
X97008095Y-69328271D01*
X97008095Y-69328271D02*
X96960476Y-69233033D01*
X96960476Y-69233033D02*
X96960476Y-69137795D01*
X96960476Y-69137795D02*
X97008095Y-69042557D01*
X97008095Y-69042557D02*
X97055714Y-68994938D01*
X97055714Y-68994938D02*
X97150952Y-68947319D01*
X97150952Y-68947319D02*
X97389047Y-68947319D01*
X97389047Y-68947319D02*
X97531904Y-68994938D01*
X97865238Y-68947319D02*
X98103333Y-69947319D01*
X98103333Y-69947319D02*
X98293809Y-69233033D01*
X98293809Y-69233033D02*
X98484285Y-69947319D01*
X98484285Y-69947319D02*
X98722381Y-68947319D01*
X99008095Y-68947319D02*
X99627142Y-68947319D01*
X99627142Y-68947319D02*
X99293809Y-69328271D01*
X99293809Y-69328271D02*
X99436666Y-69328271D01*
X99436666Y-69328271D02*
X99531904Y-69375890D01*
X99531904Y-69375890D02*
X99579523Y-69423509D01*
X99579523Y-69423509D02*
X99627142Y-69518747D01*
X99627142Y-69518747D02*
X99627142Y-69756842D01*
X99627142Y-69756842D02*
X99579523Y-69852080D01*
X99579523Y-69852080D02*
X99531904Y-69899700D01*
X99531904Y-69899700D02*
X99436666Y-69947319D01*
X99436666Y-69947319D02*
X99150952Y-69947319D01*
X99150952Y-69947319D02*
X99055714Y-69899700D01*
X99055714Y-69899700D02*
X99008095Y-69852080D01*
X100198571Y-69375890D02*
X100103333Y-69328271D01*
X100103333Y-69328271D02*
X100055714Y-69280652D01*
X100055714Y-69280652D02*
X100008095Y-69185414D01*
X100008095Y-69185414D02*
X100008095Y-69137795D01*
X100008095Y-69137795D02*
X100055714Y-69042557D01*
X100055714Y-69042557D02*
X100103333Y-68994938D01*
X100103333Y-68994938D02*
X100198571Y-68947319D01*
X100198571Y-68947319D02*
X100389047Y-68947319D01*
X100389047Y-68947319D02*
X100484285Y-68994938D01*
X100484285Y-68994938D02*
X100531904Y-69042557D01*
X100531904Y-69042557D02*
X100579523Y-69137795D01*
X100579523Y-69137795D02*
X100579523Y-69185414D01*
X100579523Y-69185414D02*
X100531904Y-69280652D01*
X100531904Y-69280652D02*
X100484285Y-69328271D01*
X100484285Y-69328271D02*
X100389047Y-69375890D01*
X100389047Y-69375890D02*
X100198571Y-69375890D01*
X100198571Y-69375890D02*
X100103333Y-69423509D01*
X100103333Y-69423509D02*
X100055714Y-69471128D01*
X100055714Y-69471128D02*
X100008095Y-69566366D01*
X100008095Y-69566366D02*
X100008095Y-69756842D01*
X100008095Y-69756842D02*
X100055714Y-69852080D01*
X100055714Y-69852080D02*
X100103333Y-69899700D01*
X100103333Y-69899700D02*
X100198571Y-69947319D01*
X100198571Y-69947319D02*
X100389047Y-69947319D01*
X100389047Y-69947319D02*
X100484285Y-69899700D01*
X100484285Y-69899700D02*
X100531904Y-69852080D01*
X100531904Y-69852080D02*
X100579523Y-69756842D01*
X100579523Y-69756842D02*
X100579523Y-69566366D01*
X100579523Y-69566366D02*
X100531904Y-69471128D01*
X100531904Y-69471128D02*
X100484285Y-69423509D01*
X100484285Y-69423509D02*
X100389047Y-69375890D01*
X254470476Y-77987200D02*
X254613333Y-78034819D01*
X254613333Y-78034819D02*
X254851428Y-78034819D01*
X254851428Y-78034819D02*
X254946666Y-77987200D01*
X254946666Y-77987200D02*
X254994285Y-77939580D01*
X254994285Y-77939580D02*
X255041904Y-77844342D01*
X255041904Y-77844342D02*
X255041904Y-77749104D01*
X255041904Y-77749104D02*
X254994285Y-77653866D01*
X254994285Y-77653866D02*
X254946666Y-77606247D01*
X254946666Y-77606247D02*
X254851428Y-77558628D01*
X254851428Y-77558628D02*
X254660952Y-77511009D01*
X254660952Y-77511009D02*
X254565714Y-77463390D01*
X254565714Y-77463390D02*
X254518095Y-77415771D01*
X254518095Y-77415771D02*
X254470476Y-77320533D01*
X254470476Y-77320533D02*
X254470476Y-77225295D01*
X254470476Y-77225295D02*
X254518095Y-77130057D01*
X254518095Y-77130057D02*
X254565714Y-77082438D01*
X254565714Y-77082438D02*
X254660952Y-77034819D01*
X254660952Y-77034819D02*
X254899047Y-77034819D01*
X254899047Y-77034819D02*
X255041904Y-77082438D01*
X255375238Y-77034819D02*
X255613333Y-78034819D01*
X255613333Y-78034819D02*
X255803809Y-77320533D01*
X255803809Y-77320533D02*
X255994285Y-78034819D01*
X255994285Y-78034819D02*
X256232381Y-77034819D01*
X257137142Y-78034819D02*
X256565714Y-78034819D01*
X256851428Y-78034819D02*
X256851428Y-77034819D01*
X256851428Y-77034819D02*
X256756190Y-77177676D01*
X256756190Y-77177676D02*
X256660952Y-77272914D01*
X256660952Y-77272914D02*
X256565714Y-77320533D01*
X257518095Y-77130057D02*
X257565714Y-77082438D01*
X257565714Y-77082438D02*
X257660952Y-77034819D01*
X257660952Y-77034819D02*
X257899047Y-77034819D01*
X257899047Y-77034819D02*
X257994285Y-77082438D01*
X257994285Y-77082438D02*
X258041904Y-77130057D01*
X258041904Y-77130057D02*
X258089523Y-77225295D01*
X258089523Y-77225295D02*
X258089523Y-77320533D01*
X258089523Y-77320533D02*
X258041904Y-77463390D01*
X258041904Y-77463390D02*
X257470476Y-78034819D01*
X257470476Y-78034819D02*
X258089523Y-78034819D01*
X78012976Y-48500950D02*
X78155833Y-48548569D01*
X78155833Y-48548569D02*
X78393928Y-48548569D01*
X78393928Y-48548569D02*
X78489166Y-48500950D01*
X78489166Y-48500950D02*
X78536785Y-48453330D01*
X78536785Y-48453330D02*
X78584404Y-48358092D01*
X78584404Y-48358092D02*
X78584404Y-48262854D01*
X78584404Y-48262854D02*
X78536785Y-48167616D01*
X78536785Y-48167616D02*
X78489166Y-48119997D01*
X78489166Y-48119997D02*
X78393928Y-48072378D01*
X78393928Y-48072378D02*
X78203452Y-48024759D01*
X78203452Y-48024759D02*
X78108214Y-47977140D01*
X78108214Y-47977140D02*
X78060595Y-47929521D01*
X78060595Y-47929521D02*
X78012976Y-47834283D01*
X78012976Y-47834283D02*
X78012976Y-47739045D01*
X78012976Y-47739045D02*
X78060595Y-47643807D01*
X78060595Y-47643807D02*
X78108214Y-47596188D01*
X78108214Y-47596188D02*
X78203452Y-47548569D01*
X78203452Y-47548569D02*
X78441547Y-47548569D01*
X78441547Y-47548569D02*
X78584404Y-47596188D01*
X78917738Y-47548569D02*
X79155833Y-48548569D01*
X79155833Y-48548569D02*
X79346309Y-47834283D01*
X79346309Y-47834283D02*
X79536785Y-48548569D01*
X79536785Y-48548569D02*
X79774881Y-47548569D01*
X80060595Y-47548569D02*
X80679642Y-47548569D01*
X80679642Y-47548569D02*
X80346309Y-47929521D01*
X80346309Y-47929521D02*
X80489166Y-47929521D01*
X80489166Y-47929521D02*
X80584404Y-47977140D01*
X80584404Y-47977140D02*
X80632023Y-48024759D01*
X80632023Y-48024759D02*
X80679642Y-48119997D01*
X80679642Y-48119997D02*
X80679642Y-48358092D01*
X80679642Y-48358092D02*
X80632023Y-48453330D01*
X80632023Y-48453330D02*
X80584404Y-48500950D01*
X80584404Y-48500950D02*
X80489166Y-48548569D01*
X80489166Y-48548569D02*
X80203452Y-48548569D01*
X80203452Y-48548569D02*
X80108214Y-48500950D01*
X80108214Y-48500950D02*
X80060595Y-48453330D01*
X81012976Y-47548569D02*
X81632023Y-47548569D01*
X81632023Y-47548569D02*
X81298690Y-47929521D01*
X81298690Y-47929521D02*
X81441547Y-47929521D01*
X81441547Y-47929521D02*
X81536785Y-47977140D01*
X81536785Y-47977140D02*
X81584404Y-48024759D01*
X81584404Y-48024759D02*
X81632023Y-48119997D01*
X81632023Y-48119997D02*
X81632023Y-48358092D01*
X81632023Y-48358092D02*
X81584404Y-48453330D01*
X81584404Y-48453330D02*
X81536785Y-48500950D01*
X81536785Y-48500950D02*
X81441547Y-48548569D01*
X81441547Y-48548569D02*
X81155833Y-48548569D01*
X81155833Y-48548569D02*
X81060595Y-48500950D01*
X81060595Y-48500950D02*
X81012976Y-48453330D01*
X235420476Y-111324700D02*
X235563333Y-111372319D01*
X235563333Y-111372319D02*
X235801428Y-111372319D01*
X235801428Y-111372319D02*
X235896666Y-111324700D01*
X235896666Y-111324700D02*
X235944285Y-111277080D01*
X235944285Y-111277080D02*
X235991904Y-111181842D01*
X235991904Y-111181842D02*
X235991904Y-111086604D01*
X235991904Y-111086604D02*
X235944285Y-110991366D01*
X235944285Y-110991366D02*
X235896666Y-110943747D01*
X235896666Y-110943747D02*
X235801428Y-110896128D01*
X235801428Y-110896128D02*
X235610952Y-110848509D01*
X235610952Y-110848509D02*
X235515714Y-110800890D01*
X235515714Y-110800890D02*
X235468095Y-110753271D01*
X235468095Y-110753271D02*
X235420476Y-110658033D01*
X235420476Y-110658033D02*
X235420476Y-110562795D01*
X235420476Y-110562795D02*
X235468095Y-110467557D01*
X235468095Y-110467557D02*
X235515714Y-110419938D01*
X235515714Y-110419938D02*
X235610952Y-110372319D01*
X235610952Y-110372319D02*
X235849047Y-110372319D01*
X235849047Y-110372319D02*
X235991904Y-110419938D01*
X236325238Y-110372319D02*
X236563333Y-111372319D01*
X236563333Y-111372319D02*
X236753809Y-110658033D01*
X236753809Y-110658033D02*
X236944285Y-111372319D01*
X236944285Y-111372319D02*
X237182381Y-110372319D01*
X237515714Y-110467557D02*
X237563333Y-110419938D01*
X237563333Y-110419938D02*
X237658571Y-110372319D01*
X237658571Y-110372319D02*
X237896666Y-110372319D01*
X237896666Y-110372319D02*
X237991904Y-110419938D01*
X237991904Y-110419938D02*
X238039523Y-110467557D01*
X238039523Y-110467557D02*
X238087142Y-110562795D01*
X238087142Y-110562795D02*
X238087142Y-110658033D01*
X238087142Y-110658033D02*
X238039523Y-110800890D01*
X238039523Y-110800890D02*
X237468095Y-111372319D01*
X237468095Y-111372319D02*
X238087142Y-111372319D01*
X238420476Y-110372319D02*
X239039523Y-110372319D01*
X239039523Y-110372319D02*
X238706190Y-110753271D01*
X238706190Y-110753271D02*
X238849047Y-110753271D01*
X238849047Y-110753271D02*
X238944285Y-110800890D01*
X238944285Y-110800890D02*
X238991904Y-110848509D01*
X238991904Y-110848509D02*
X239039523Y-110943747D01*
X239039523Y-110943747D02*
X239039523Y-111181842D01*
X239039523Y-111181842D02*
X238991904Y-111277080D01*
X238991904Y-111277080D02*
X238944285Y-111324700D01*
X238944285Y-111324700D02*
X238849047Y-111372319D01*
X238849047Y-111372319D02*
X238563333Y-111372319D01*
X238563333Y-111372319D02*
X238468095Y-111324700D01*
X238468095Y-111324700D02*
X238420476Y-111277080D01*
D12*
X268019940Y-110863479D02*
X268019940Y-111377526D01*
X268019940Y-111377526D02*
X268050178Y-111438002D01*
X268050178Y-111438002D02*
X268080416Y-111468241D01*
X268080416Y-111468241D02*
X268140892Y-111498479D01*
X268140892Y-111498479D02*
X268261845Y-111498479D01*
X268261845Y-111498479D02*
X268322321Y-111468241D01*
X268322321Y-111468241D02*
X268352559Y-111438002D01*
X268352559Y-111438002D02*
X268382797Y-111377526D01*
X268382797Y-111377526D02*
X268382797Y-110863479D01*
X269017797Y-111498479D02*
X268654940Y-111498479D01*
X268836368Y-111498479D02*
X268836368Y-110863479D01*
X268836368Y-110863479D02*
X268775892Y-110954193D01*
X268775892Y-110954193D02*
X268715416Y-111014669D01*
X268715416Y-111014669D02*
X268654940Y-111044907D01*
D11*
X135025476Y-77837200D02*
X135168333Y-77884819D01*
X135168333Y-77884819D02*
X135406428Y-77884819D01*
X135406428Y-77884819D02*
X135501666Y-77837200D01*
X135501666Y-77837200D02*
X135549285Y-77789580D01*
X135549285Y-77789580D02*
X135596904Y-77694342D01*
X135596904Y-77694342D02*
X135596904Y-77599104D01*
X135596904Y-77599104D02*
X135549285Y-77503866D01*
X135549285Y-77503866D02*
X135501666Y-77456247D01*
X135501666Y-77456247D02*
X135406428Y-77408628D01*
X135406428Y-77408628D02*
X135215952Y-77361009D01*
X135215952Y-77361009D02*
X135120714Y-77313390D01*
X135120714Y-77313390D02*
X135073095Y-77265771D01*
X135073095Y-77265771D02*
X135025476Y-77170533D01*
X135025476Y-77170533D02*
X135025476Y-77075295D01*
X135025476Y-77075295D02*
X135073095Y-76980057D01*
X135073095Y-76980057D02*
X135120714Y-76932438D01*
X135120714Y-76932438D02*
X135215952Y-76884819D01*
X135215952Y-76884819D02*
X135454047Y-76884819D01*
X135454047Y-76884819D02*
X135596904Y-76932438D01*
X135930238Y-76884819D02*
X136168333Y-77884819D01*
X136168333Y-77884819D02*
X136358809Y-77170533D01*
X136358809Y-77170533D02*
X136549285Y-77884819D01*
X136549285Y-77884819D02*
X136787381Y-76884819D01*
X137596904Y-77218152D02*
X137596904Y-77884819D01*
X137358809Y-76837200D02*
X137120714Y-77551485D01*
X137120714Y-77551485D02*
X137739761Y-77551485D01*
X138549285Y-76884819D02*
X138358809Y-76884819D01*
X138358809Y-76884819D02*
X138263571Y-76932438D01*
X138263571Y-76932438D02*
X138215952Y-76980057D01*
X138215952Y-76980057D02*
X138120714Y-77122914D01*
X138120714Y-77122914D02*
X138073095Y-77313390D01*
X138073095Y-77313390D02*
X138073095Y-77694342D01*
X138073095Y-77694342D02*
X138120714Y-77789580D01*
X138120714Y-77789580D02*
X138168333Y-77837200D01*
X138168333Y-77837200D02*
X138263571Y-77884819D01*
X138263571Y-77884819D02*
X138454047Y-77884819D01*
X138454047Y-77884819D02*
X138549285Y-77837200D01*
X138549285Y-77837200D02*
X138596904Y-77789580D01*
X138596904Y-77789580D02*
X138644523Y-77694342D01*
X138644523Y-77694342D02*
X138644523Y-77456247D01*
X138644523Y-77456247D02*
X138596904Y-77361009D01*
X138596904Y-77361009D02*
X138549285Y-77313390D01*
X138549285Y-77313390D02*
X138454047Y-77265771D01*
X138454047Y-77265771D02*
X138263571Y-77265771D01*
X138263571Y-77265771D02*
X138168333Y-77313390D01*
X138168333Y-77313390D02*
X138120714Y-77361009D01*
X138120714Y-77361009D02*
X138073095Y-77456247D01*
X39790476Y-115967200D02*
X39933333Y-116014819D01*
X39933333Y-116014819D02*
X40171428Y-116014819D01*
X40171428Y-116014819D02*
X40266666Y-115967200D01*
X40266666Y-115967200D02*
X40314285Y-115919580D01*
X40314285Y-115919580D02*
X40361904Y-115824342D01*
X40361904Y-115824342D02*
X40361904Y-115729104D01*
X40361904Y-115729104D02*
X40314285Y-115633866D01*
X40314285Y-115633866D02*
X40266666Y-115586247D01*
X40266666Y-115586247D02*
X40171428Y-115538628D01*
X40171428Y-115538628D02*
X39980952Y-115491009D01*
X39980952Y-115491009D02*
X39885714Y-115443390D01*
X39885714Y-115443390D02*
X39838095Y-115395771D01*
X39838095Y-115395771D02*
X39790476Y-115300533D01*
X39790476Y-115300533D02*
X39790476Y-115205295D01*
X39790476Y-115205295D02*
X39838095Y-115110057D01*
X39838095Y-115110057D02*
X39885714Y-115062438D01*
X39885714Y-115062438D02*
X39980952Y-115014819D01*
X39980952Y-115014819D02*
X40219047Y-115014819D01*
X40219047Y-115014819D02*
X40361904Y-115062438D01*
X40695238Y-115014819D02*
X40933333Y-116014819D01*
X40933333Y-116014819D02*
X41123809Y-115300533D01*
X41123809Y-115300533D02*
X41314285Y-116014819D01*
X41314285Y-116014819D02*
X41552381Y-115014819D01*
X41885714Y-115110057D02*
X41933333Y-115062438D01*
X41933333Y-115062438D02*
X42028571Y-115014819D01*
X42028571Y-115014819D02*
X42266666Y-115014819D01*
X42266666Y-115014819D02*
X42361904Y-115062438D01*
X42361904Y-115062438D02*
X42409523Y-115110057D01*
X42409523Y-115110057D02*
X42457142Y-115205295D01*
X42457142Y-115205295D02*
X42457142Y-115300533D01*
X42457142Y-115300533D02*
X42409523Y-115443390D01*
X42409523Y-115443390D02*
X41838095Y-116014819D01*
X41838095Y-116014819D02*
X42457142Y-116014819D01*
X43028571Y-115443390D02*
X42933333Y-115395771D01*
X42933333Y-115395771D02*
X42885714Y-115348152D01*
X42885714Y-115348152D02*
X42838095Y-115252914D01*
X42838095Y-115252914D02*
X42838095Y-115205295D01*
X42838095Y-115205295D02*
X42885714Y-115110057D01*
X42885714Y-115110057D02*
X42933333Y-115062438D01*
X42933333Y-115062438D02*
X43028571Y-115014819D01*
X43028571Y-115014819D02*
X43219047Y-115014819D01*
X43219047Y-115014819D02*
X43314285Y-115062438D01*
X43314285Y-115062438D02*
X43361904Y-115110057D01*
X43361904Y-115110057D02*
X43409523Y-115205295D01*
X43409523Y-115205295D02*
X43409523Y-115252914D01*
X43409523Y-115252914D02*
X43361904Y-115348152D01*
X43361904Y-115348152D02*
X43314285Y-115395771D01*
X43314285Y-115395771D02*
X43219047Y-115443390D01*
X43219047Y-115443390D02*
X43028571Y-115443390D01*
X43028571Y-115443390D02*
X42933333Y-115491009D01*
X42933333Y-115491009D02*
X42885714Y-115538628D01*
X42885714Y-115538628D02*
X42838095Y-115633866D01*
X42838095Y-115633866D02*
X42838095Y-115824342D01*
X42838095Y-115824342D02*
X42885714Y-115919580D01*
X42885714Y-115919580D02*
X42933333Y-115967200D01*
X42933333Y-115967200D02*
X43028571Y-116014819D01*
X43028571Y-116014819D02*
X43219047Y-116014819D01*
X43219047Y-116014819D02*
X43314285Y-115967200D01*
X43314285Y-115967200D02*
X43361904Y-115919580D01*
X43361904Y-115919580D02*
X43409523Y-115824342D01*
X43409523Y-115824342D02*
X43409523Y-115633866D01*
X43409523Y-115633866D02*
X43361904Y-115538628D01*
X43361904Y-115538628D02*
X43314285Y-115491009D01*
X43314285Y-115491009D02*
X43219047Y-115443390D01*
X135137976Y-58827200D02*
X135280833Y-58874819D01*
X135280833Y-58874819D02*
X135518928Y-58874819D01*
X135518928Y-58874819D02*
X135614166Y-58827200D01*
X135614166Y-58827200D02*
X135661785Y-58779580D01*
X135661785Y-58779580D02*
X135709404Y-58684342D01*
X135709404Y-58684342D02*
X135709404Y-58589104D01*
X135709404Y-58589104D02*
X135661785Y-58493866D01*
X135661785Y-58493866D02*
X135614166Y-58446247D01*
X135614166Y-58446247D02*
X135518928Y-58398628D01*
X135518928Y-58398628D02*
X135328452Y-58351009D01*
X135328452Y-58351009D02*
X135233214Y-58303390D01*
X135233214Y-58303390D02*
X135185595Y-58255771D01*
X135185595Y-58255771D02*
X135137976Y-58160533D01*
X135137976Y-58160533D02*
X135137976Y-58065295D01*
X135137976Y-58065295D02*
X135185595Y-57970057D01*
X135185595Y-57970057D02*
X135233214Y-57922438D01*
X135233214Y-57922438D02*
X135328452Y-57874819D01*
X135328452Y-57874819D02*
X135566547Y-57874819D01*
X135566547Y-57874819D02*
X135709404Y-57922438D01*
X136042738Y-57874819D02*
X136280833Y-58874819D01*
X136280833Y-58874819D02*
X136471309Y-58160533D01*
X136471309Y-58160533D02*
X136661785Y-58874819D01*
X136661785Y-58874819D02*
X136899881Y-57874819D01*
X137709404Y-58208152D02*
X137709404Y-58874819D01*
X137471309Y-57827200D02*
X137233214Y-58541485D01*
X137233214Y-58541485D02*
X137852261Y-58541485D01*
X138709404Y-57874819D02*
X138233214Y-57874819D01*
X138233214Y-57874819D02*
X138185595Y-58351009D01*
X138185595Y-58351009D02*
X138233214Y-58303390D01*
X138233214Y-58303390D02*
X138328452Y-58255771D01*
X138328452Y-58255771D02*
X138566547Y-58255771D01*
X138566547Y-58255771D02*
X138661785Y-58303390D01*
X138661785Y-58303390D02*
X138709404Y-58351009D01*
X138709404Y-58351009D02*
X138757023Y-58446247D01*
X138757023Y-58446247D02*
X138757023Y-58684342D01*
X138757023Y-58684342D02*
X138709404Y-58779580D01*
X138709404Y-58779580D02*
X138661785Y-58827200D01*
X138661785Y-58827200D02*
X138566547Y-58874819D01*
X138566547Y-58874819D02*
X138328452Y-58874819D01*
X138328452Y-58874819D02*
X138233214Y-58827200D01*
X138233214Y-58827200D02*
X138185595Y-58779580D01*
X159220476Y-97037200D02*
X159363333Y-97084819D01*
X159363333Y-97084819D02*
X159601428Y-97084819D01*
X159601428Y-97084819D02*
X159696666Y-97037200D01*
X159696666Y-97037200D02*
X159744285Y-96989580D01*
X159744285Y-96989580D02*
X159791904Y-96894342D01*
X159791904Y-96894342D02*
X159791904Y-96799104D01*
X159791904Y-96799104D02*
X159744285Y-96703866D01*
X159744285Y-96703866D02*
X159696666Y-96656247D01*
X159696666Y-96656247D02*
X159601428Y-96608628D01*
X159601428Y-96608628D02*
X159410952Y-96561009D01*
X159410952Y-96561009D02*
X159315714Y-96513390D01*
X159315714Y-96513390D02*
X159268095Y-96465771D01*
X159268095Y-96465771D02*
X159220476Y-96370533D01*
X159220476Y-96370533D02*
X159220476Y-96275295D01*
X159220476Y-96275295D02*
X159268095Y-96180057D01*
X159268095Y-96180057D02*
X159315714Y-96132438D01*
X159315714Y-96132438D02*
X159410952Y-96084819D01*
X159410952Y-96084819D02*
X159649047Y-96084819D01*
X159649047Y-96084819D02*
X159791904Y-96132438D01*
X160125238Y-96084819D02*
X160363333Y-97084819D01*
X160363333Y-97084819D02*
X160553809Y-96370533D01*
X160553809Y-96370533D02*
X160744285Y-97084819D01*
X160744285Y-97084819D02*
X160982381Y-96084819D01*
X161887142Y-97084819D02*
X161315714Y-97084819D01*
X161601428Y-97084819D02*
X161601428Y-96084819D01*
X161601428Y-96084819D02*
X161506190Y-96227676D01*
X161506190Y-96227676D02*
X161410952Y-96322914D01*
X161410952Y-96322914D02*
X161315714Y-96370533D01*
X162220476Y-96084819D02*
X162839523Y-96084819D01*
X162839523Y-96084819D02*
X162506190Y-96465771D01*
X162506190Y-96465771D02*
X162649047Y-96465771D01*
X162649047Y-96465771D02*
X162744285Y-96513390D01*
X162744285Y-96513390D02*
X162791904Y-96561009D01*
X162791904Y-96561009D02*
X162839523Y-96656247D01*
X162839523Y-96656247D02*
X162839523Y-96894342D01*
X162839523Y-96894342D02*
X162791904Y-96989580D01*
X162791904Y-96989580D02*
X162744285Y-97037200D01*
X162744285Y-97037200D02*
X162649047Y-97084819D01*
X162649047Y-97084819D02*
X162363333Y-97084819D01*
X162363333Y-97084819D02*
X162268095Y-97037200D01*
X162268095Y-97037200D02*
X162220476Y-96989580D01*
X254470476Y-116087200D02*
X254613333Y-116134819D01*
X254613333Y-116134819D02*
X254851428Y-116134819D01*
X254851428Y-116134819D02*
X254946666Y-116087200D01*
X254946666Y-116087200D02*
X254994285Y-116039580D01*
X254994285Y-116039580D02*
X255041904Y-115944342D01*
X255041904Y-115944342D02*
X255041904Y-115849104D01*
X255041904Y-115849104D02*
X254994285Y-115753866D01*
X254994285Y-115753866D02*
X254946666Y-115706247D01*
X254946666Y-115706247D02*
X254851428Y-115658628D01*
X254851428Y-115658628D02*
X254660952Y-115611009D01*
X254660952Y-115611009D02*
X254565714Y-115563390D01*
X254565714Y-115563390D02*
X254518095Y-115515771D01*
X254518095Y-115515771D02*
X254470476Y-115420533D01*
X254470476Y-115420533D02*
X254470476Y-115325295D01*
X254470476Y-115325295D02*
X254518095Y-115230057D01*
X254518095Y-115230057D02*
X254565714Y-115182438D01*
X254565714Y-115182438D02*
X254660952Y-115134819D01*
X254660952Y-115134819D02*
X254899047Y-115134819D01*
X254899047Y-115134819D02*
X255041904Y-115182438D01*
X255375238Y-115134819D02*
X255613333Y-116134819D01*
X255613333Y-116134819D02*
X255803809Y-115420533D01*
X255803809Y-115420533D02*
X255994285Y-116134819D01*
X255994285Y-116134819D02*
X256232381Y-115134819D01*
X256565714Y-115230057D02*
X256613333Y-115182438D01*
X256613333Y-115182438D02*
X256708571Y-115134819D01*
X256708571Y-115134819D02*
X256946666Y-115134819D01*
X256946666Y-115134819D02*
X257041904Y-115182438D01*
X257041904Y-115182438D02*
X257089523Y-115230057D01*
X257089523Y-115230057D02*
X257137142Y-115325295D01*
X257137142Y-115325295D02*
X257137142Y-115420533D01*
X257137142Y-115420533D02*
X257089523Y-115563390D01*
X257089523Y-115563390D02*
X256518095Y-116134819D01*
X256518095Y-116134819D02*
X257137142Y-116134819D01*
X257994285Y-115468152D02*
X257994285Y-116134819D01*
X257756190Y-115087200D02*
X257518095Y-115801485D01*
X257518095Y-115801485D02*
X258137142Y-115801485D01*
X116050476Y-112887200D02*
X116193333Y-112934819D01*
X116193333Y-112934819D02*
X116431428Y-112934819D01*
X116431428Y-112934819D02*
X116526666Y-112887200D01*
X116526666Y-112887200D02*
X116574285Y-112839580D01*
X116574285Y-112839580D02*
X116621904Y-112744342D01*
X116621904Y-112744342D02*
X116621904Y-112649104D01*
X116621904Y-112649104D02*
X116574285Y-112553866D01*
X116574285Y-112553866D02*
X116526666Y-112506247D01*
X116526666Y-112506247D02*
X116431428Y-112458628D01*
X116431428Y-112458628D02*
X116240952Y-112411009D01*
X116240952Y-112411009D02*
X116145714Y-112363390D01*
X116145714Y-112363390D02*
X116098095Y-112315771D01*
X116098095Y-112315771D02*
X116050476Y-112220533D01*
X116050476Y-112220533D02*
X116050476Y-112125295D01*
X116050476Y-112125295D02*
X116098095Y-112030057D01*
X116098095Y-112030057D02*
X116145714Y-111982438D01*
X116145714Y-111982438D02*
X116240952Y-111934819D01*
X116240952Y-111934819D02*
X116479047Y-111934819D01*
X116479047Y-111934819D02*
X116621904Y-111982438D01*
X116955238Y-111934819D02*
X117193333Y-112934819D01*
X117193333Y-112934819D02*
X117383809Y-112220533D01*
X117383809Y-112220533D02*
X117574285Y-112934819D01*
X117574285Y-112934819D02*
X117812381Y-111934819D01*
X118621904Y-112268152D02*
X118621904Y-112934819D01*
X118383809Y-111887200D02*
X118145714Y-112601485D01*
X118145714Y-112601485D02*
X118764761Y-112601485D01*
X119574285Y-112268152D02*
X119574285Y-112934819D01*
X119336190Y-111887200D02*
X119098095Y-112601485D01*
X119098095Y-112601485D02*
X119717142Y-112601485D01*
X77922976Y-86737200D02*
X78065833Y-86784819D01*
X78065833Y-86784819D02*
X78303928Y-86784819D01*
X78303928Y-86784819D02*
X78399166Y-86737200D01*
X78399166Y-86737200D02*
X78446785Y-86689580D01*
X78446785Y-86689580D02*
X78494404Y-86594342D01*
X78494404Y-86594342D02*
X78494404Y-86499104D01*
X78494404Y-86499104D02*
X78446785Y-86403866D01*
X78446785Y-86403866D02*
X78399166Y-86356247D01*
X78399166Y-86356247D02*
X78303928Y-86308628D01*
X78303928Y-86308628D02*
X78113452Y-86261009D01*
X78113452Y-86261009D02*
X78018214Y-86213390D01*
X78018214Y-86213390D02*
X77970595Y-86165771D01*
X77970595Y-86165771D02*
X77922976Y-86070533D01*
X77922976Y-86070533D02*
X77922976Y-85975295D01*
X77922976Y-85975295D02*
X77970595Y-85880057D01*
X77970595Y-85880057D02*
X78018214Y-85832438D01*
X78018214Y-85832438D02*
X78113452Y-85784819D01*
X78113452Y-85784819D02*
X78351547Y-85784819D01*
X78351547Y-85784819D02*
X78494404Y-85832438D01*
X78827738Y-85784819D02*
X79065833Y-86784819D01*
X79065833Y-86784819D02*
X79256309Y-86070533D01*
X79256309Y-86070533D02*
X79446785Y-86784819D01*
X79446785Y-86784819D02*
X79684881Y-85784819D01*
X79970595Y-85784819D02*
X80589642Y-85784819D01*
X80589642Y-85784819D02*
X80256309Y-86165771D01*
X80256309Y-86165771D02*
X80399166Y-86165771D01*
X80399166Y-86165771D02*
X80494404Y-86213390D01*
X80494404Y-86213390D02*
X80542023Y-86261009D01*
X80542023Y-86261009D02*
X80589642Y-86356247D01*
X80589642Y-86356247D02*
X80589642Y-86594342D01*
X80589642Y-86594342D02*
X80542023Y-86689580D01*
X80542023Y-86689580D02*
X80494404Y-86737200D01*
X80494404Y-86737200D02*
X80399166Y-86784819D01*
X80399166Y-86784819D02*
X80113452Y-86784819D01*
X80113452Y-86784819D02*
X80018214Y-86737200D01*
X80018214Y-86737200D02*
X79970595Y-86689580D01*
X81494404Y-85784819D02*
X81018214Y-85784819D01*
X81018214Y-85784819D02*
X80970595Y-86261009D01*
X80970595Y-86261009D02*
X81018214Y-86213390D01*
X81018214Y-86213390D02*
X81113452Y-86165771D01*
X81113452Y-86165771D02*
X81351547Y-86165771D01*
X81351547Y-86165771D02*
X81446785Y-86213390D01*
X81446785Y-86213390D02*
X81494404Y-86261009D01*
X81494404Y-86261009D02*
X81542023Y-86356247D01*
X81542023Y-86356247D02*
X81542023Y-86594342D01*
X81542023Y-86594342D02*
X81494404Y-86689580D01*
X81494404Y-86689580D02*
X81446785Y-86737200D01*
X81446785Y-86737200D02*
X81351547Y-86784819D01*
X81351547Y-86784819D02*
X81113452Y-86784819D01*
X81113452Y-86784819D02*
X81018214Y-86737200D01*
X81018214Y-86737200D02*
X80970595Y-86689580D01*
X178746667Y-55762200D02*
X178889524Y-55809819D01*
X178889524Y-55809819D02*
X179127619Y-55809819D01*
X179127619Y-55809819D02*
X179222857Y-55762200D01*
X179222857Y-55762200D02*
X179270476Y-55714580D01*
X179270476Y-55714580D02*
X179318095Y-55619342D01*
X179318095Y-55619342D02*
X179318095Y-55524104D01*
X179318095Y-55524104D02*
X179270476Y-55428866D01*
X179270476Y-55428866D02*
X179222857Y-55381247D01*
X179222857Y-55381247D02*
X179127619Y-55333628D01*
X179127619Y-55333628D02*
X178937143Y-55286009D01*
X178937143Y-55286009D02*
X178841905Y-55238390D01*
X178841905Y-55238390D02*
X178794286Y-55190771D01*
X178794286Y-55190771D02*
X178746667Y-55095533D01*
X178746667Y-55095533D02*
X178746667Y-55000295D01*
X178746667Y-55000295D02*
X178794286Y-54905057D01*
X178794286Y-54905057D02*
X178841905Y-54857438D01*
X178841905Y-54857438D02*
X178937143Y-54809819D01*
X178937143Y-54809819D02*
X179175238Y-54809819D01*
X179175238Y-54809819D02*
X179318095Y-54857438D01*
X179651429Y-54809819D02*
X179889524Y-55809819D01*
X179889524Y-55809819D02*
X180080000Y-55095533D01*
X180080000Y-55095533D02*
X180270476Y-55809819D01*
X180270476Y-55809819D02*
X180508572Y-54809819D01*
X180841905Y-54905057D02*
X180889524Y-54857438D01*
X180889524Y-54857438D02*
X180984762Y-54809819D01*
X180984762Y-54809819D02*
X181222857Y-54809819D01*
X181222857Y-54809819D02*
X181318095Y-54857438D01*
X181318095Y-54857438D02*
X181365714Y-54905057D01*
X181365714Y-54905057D02*
X181413333Y-55000295D01*
X181413333Y-55000295D02*
X181413333Y-55095533D01*
X181413333Y-55095533D02*
X181365714Y-55238390D01*
X181365714Y-55238390D02*
X180794286Y-55809819D01*
X180794286Y-55809819D02*
X181413333Y-55809819D01*
X115975476Y-74662200D02*
X116118333Y-74709819D01*
X116118333Y-74709819D02*
X116356428Y-74709819D01*
X116356428Y-74709819D02*
X116451666Y-74662200D01*
X116451666Y-74662200D02*
X116499285Y-74614580D01*
X116499285Y-74614580D02*
X116546904Y-74519342D01*
X116546904Y-74519342D02*
X116546904Y-74424104D01*
X116546904Y-74424104D02*
X116499285Y-74328866D01*
X116499285Y-74328866D02*
X116451666Y-74281247D01*
X116451666Y-74281247D02*
X116356428Y-74233628D01*
X116356428Y-74233628D02*
X116165952Y-74186009D01*
X116165952Y-74186009D02*
X116070714Y-74138390D01*
X116070714Y-74138390D02*
X116023095Y-74090771D01*
X116023095Y-74090771D02*
X115975476Y-73995533D01*
X115975476Y-73995533D02*
X115975476Y-73900295D01*
X115975476Y-73900295D02*
X116023095Y-73805057D01*
X116023095Y-73805057D02*
X116070714Y-73757438D01*
X116070714Y-73757438D02*
X116165952Y-73709819D01*
X116165952Y-73709819D02*
X116404047Y-73709819D01*
X116404047Y-73709819D02*
X116546904Y-73757438D01*
X116880238Y-73709819D02*
X117118333Y-74709819D01*
X117118333Y-74709819D02*
X117308809Y-73995533D01*
X117308809Y-73995533D02*
X117499285Y-74709819D01*
X117499285Y-74709819D02*
X117737381Y-73709819D01*
X118546904Y-74043152D02*
X118546904Y-74709819D01*
X118308809Y-73662200D02*
X118070714Y-74376485D01*
X118070714Y-74376485D02*
X118689761Y-74376485D01*
X119023095Y-73805057D02*
X119070714Y-73757438D01*
X119070714Y-73757438D02*
X119165952Y-73709819D01*
X119165952Y-73709819D02*
X119404047Y-73709819D01*
X119404047Y-73709819D02*
X119499285Y-73757438D01*
X119499285Y-73757438D02*
X119546904Y-73805057D01*
X119546904Y-73805057D02*
X119594523Y-73900295D01*
X119594523Y-73900295D02*
X119594523Y-73995533D01*
X119594523Y-73995533D02*
X119546904Y-74138390D01*
X119546904Y-74138390D02*
X118975476Y-74709819D01*
X118975476Y-74709819D02*
X119594523Y-74709819D01*
X178270476Y-112912200D02*
X178413333Y-112959819D01*
X178413333Y-112959819D02*
X178651428Y-112959819D01*
X178651428Y-112959819D02*
X178746666Y-112912200D01*
X178746666Y-112912200D02*
X178794285Y-112864580D01*
X178794285Y-112864580D02*
X178841904Y-112769342D01*
X178841904Y-112769342D02*
X178841904Y-112674104D01*
X178841904Y-112674104D02*
X178794285Y-112578866D01*
X178794285Y-112578866D02*
X178746666Y-112531247D01*
X178746666Y-112531247D02*
X178651428Y-112483628D01*
X178651428Y-112483628D02*
X178460952Y-112436009D01*
X178460952Y-112436009D02*
X178365714Y-112388390D01*
X178365714Y-112388390D02*
X178318095Y-112340771D01*
X178318095Y-112340771D02*
X178270476Y-112245533D01*
X178270476Y-112245533D02*
X178270476Y-112150295D01*
X178270476Y-112150295D02*
X178318095Y-112055057D01*
X178318095Y-112055057D02*
X178365714Y-112007438D01*
X178365714Y-112007438D02*
X178460952Y-111959819D01*
X178460952Y-111959819D02*
X178699047Y-111959819D01*
X178699047Y-111959819D02*
X178841904Y-112007438D01*
X179175238Y-111959819D02*
X179413333Y-112959819D01*
X179413333Y-112959819D02*
X179603809Y-112245533D01*
X179603809Y-112245533D02*
X179794285Y-112959819D01*
X179794285Y-112959819D02*
X180032381Y-111959819D01*
X180365714Y-112055057D02*
X180413333Y-112007438D01*
X180413333Y-112007438D02*
X180508571Y-111959819D01*
X180508571Y-111959819D02*
X180746666Y-111959819D01*
X180746666Y-111959819D02*
X180841904Y-112007438D01*
X180841904Y-112007438D02*
X180889523Y-112055057D01*
X180889523Y-112055057D02*
X180937142Y-112150295D01*
X180937142Y-112150295D02*
X180937142Y-112245533D01*
X180937142Y-112245533D02*
X180889523Y-112388390D01*
X180889523Y-112388390D02*
X180318095Y-112959819D01*
X180318095Y-112959819D02*
X180937142Y-112959819D01*
X181556190Y-111959819D02*
X181651428Y-111959819D01*
X181651428Y-111959819D02*
X181746666Y-112007438D01*
X181746666Y-112007438D02*
X181794285Y-112055057D01*
X181794285Y-112055057D02*
X181841904Y-112150295D01*
X181841904Y-112150295D02*
X181889523Y-112340771D01*
X181889523Y-112340771D02*
X181889523Y-112578866D01*
X181889523Y-112578866D02*
X181841904Y-112769342D01*
X181841904Y-112769342D02*
X181794285Y-112864580D01*
X181794285Y-112864580D02*
X181746666Y-112912200D01*
X181746666Y-112912200D02*
X181651428Y-112959819D01*
X181651428Y-112959819D02*
X181556190Y-112959819D01*
X181556190Y-112959819D02*
X181460952Y-112912200D01*
X181460952Y-112912200D02*
X181413333Y-112864580D01*
X181413333Y-112864580D02*
X181365714Y-112769342D01*
X181365714Y-112769342D02*
X181318095Y-112578866D01*
X181318095Y-112578866D02*
X181318095Y-112340771D01*
X181318095Y-112340771D02*
X181365714Y-112150295D01*
X181365714Y-112150295D02*
X181413333Y-112055057D01*
X181413333Y-112055057D02*
X181460952Y-112007438D01*
X181460952Y-112007438D02*
X181556190Y-111959819D01*
X216370476Y-105768450D02*
X216513333Y-105816069D01*
X216513333Y-105816069D02*
X216751428Y-105816069D01*
X216751428Y-105816069D02*
X216846666Y-105768450D01*
X216846666Y-105768450D02*
X216894285Y-105720830D01*
X216894285Y-105720830D02*
X216941904Y-105625592D01*
X216941904Y-105625592D02*
X216941904Y-105530354D01*
X216941904Y-105530354D02*
X216894285Y-105435116D01*
X216894285Y-105435116D02*
X216846666Y-105387497D01*
X216846666Y-105387497D02*
X216751428Y-105339878D01*
X216751428Y-105339878D02*
X216560952Y-105292259D01*
X216560952Y-105292259D02*
X216465714Y-105244640D01*
X216465714Y-105244640D02*
X216418095Y-105197021D01*
X216418095Y-105197021D02*
X216370476Y-105101783D01*
X216370476Y-105101783D02*
X216370476Y-105006545D01*
X216370476Y-105006545D02*
X216418095Y-104911307D01*
X216418095Y-104911307D02*
X216465714Y-104863688D01*
X216465714Y-104863688D02*
X216560952Y-104816069D01*
X216560952Y-104816069D02*
X216799047Y-104816069D01*
X216799047Y-104816069D02*
X216941904Y-104863688D01*
X217275238Y-104816069D02*
X217513333Y-105816069D01*
X217513333Y-105816069D02*
X217703809Y-105101783D01*
X217703809Y-105101783D02*
X217894285Y-105816069D01*
X217894285Y-105816069D02*
X218132381Y-104816069D01*
X218465714Y-104911307D02*
X218513333Y-104863688D01*
X218513333Y-104863688D02*
X218608571Y-104816069D01*
X218608571Y-104816069D02*
X218846666Y-104816069D01*
X218846666Y-104816069D02*
X218941904Y-104863688D01*
X218941904Y-104863688D02*
X218989523Y-104911307D01*
X218989523Y-104911307D02*
X219037142Y-105006545D01*
X219037142Y-105006545D02*
X219037142Y-105101783D01*
X219037142Y-105101783D02*
X218989523Y-105244640D01*
X218989523Y-105244640D02*
X218418095Y-105816069D01*
X218418095Y-105816069D02*
X219037142Y-105816069D01*
X219418095Y-104911307D02*
X219465714Y-104863688D01*
X219465714Y-104863688D02*
X219560952Y-104816069D01*
X219560952Y-104816069D02*
X219799047Y-104816069D01*
X219799047Y-104816069D02*
X219894285Y-104863688D01*
X219894285Y-104863688D02*
X219941904Y-104911307D01*
X219941904Y-104911307D02*
X219989523Y-105006545D01*
X219989523Y-105006545D02*
X219989523Y-105101783D01*
X219989523Y-105101783D02*
X219941904Y-105244640D01*
X219941904Y-105244640D02*
X219370476Y-105816069D01*
X219370476Y-105816069D02*
X219989523Y-105816069D01*
X116022976Y-93777200D02*
X116165833Y-93824819D01*
X116165833Y-93824819D02*
X116403928Y-93824819D01*
X116403928Y-93824819D02*
X116499166Y-93777200D01*
X116499166Y-93777200D02*
X116546785Y-93729580D01*
X116546785Y-93729580D02*
X116594404Y-93634342D01*
X116594404Y-93634342D02*
X116594404Y-93539104D01*
X116594404Y-93539104D02*
X116546785Y-93443866D01*
X116546785Y-93443866D02*
X116499166Y-93396247D01*
X116499166Y-93396247D02*
X116403928Y-93348628D01*
X116403928Y-93348628D02*
X116213452Y-93301009D01*
X116213452Y-93301009D02*
X116118214Y-93253390D01*
X116118214Y-93253390D02*
X116070595Y-93205771D01*
X116070595Y-93205771D02*
X116022976Y-93110533D01*
X116022976Y-93110533D02*
X116022976Y-93015295D01*
X116022976Y-93015295D02*
X116070595Y-92920057D01*
X116070595Y-92920057D02*
X116118214Y-92872438D01*
X116118214Y-92872438D02*
X116213452Y-92824819D01*
X116213452Y-92824819D02*
X116451547Y-92824819D01*
X116451547Y-92824819D02*
X116594404Y-92872438D01*
X116927738Y-92824819D02*
X117165833Y-93824819D01*
X117165833Y-93824819D02*
X117356309Y-93110533D01*
X117356309Y-93110533D02*
X117546785Y-93824819D01*
X117546785Y-93824819D02*
X117784881Y-92824819D01*
X118594404Y-93158152D02*
X118594404Y-93824819D01*
X118356309Y-92777200D02*
X118118214Y-93491485D01*
X118118214Y-93491485D02*
X118737261Y-93491485D01*
X119022976Y-92824819D02*
X119642023Y-92824819D01*
X119642023Y-92824819D02*
X119308690Y-93205771D01*
X119308690Y-93205771D02*
X119451547Y-93205771D01*
X119451547Y-93205771D02*
X119546785Y-93253390D01*
X119546785Y-93253390D02*
X119594404Y-93301009D01*
X119594404Y-93301009D02*
X119642023Y-93396247D01*
X119642023Y-93396247D02*
X119642023Y-93634342D01*
X119642023Y-93634342D02*
X119594404Y-93729580D01*
X119594404Y-93729580D02*
X119546785Y-93777200D01*
X119546785Y-93777200D02*
X119451547Y-93824819D01*
X119451547Y-93824819D02*
X119165833Y-93824819D01*
X119165833Y-93824819D02*
X119070595Y-93777200D01*
X119070595Y-93777200D02*
X119022976Y-93729580D01*
X235420476Y-73224700D02*
X235563333Y-73272319D01*
X235563333Y-73272319D02*
X235801428Y-73272319D01*
X235801428Y-73272319D02*
X235896666Y-73224700D01*
X235896666Y-73224700D02*
X235944285Y-73177080D01*
X235944285Y-73177080D02*
X235991904Y-73081842D01*
X235991904Y-73081842D02*
X235991904Y-72986604D01*
X235991904Y-72986604D02*
X235944285Y-72891366D01*
X235944285Y-72891366D02*
X235896666Y-72843747D01*
X235896666Y-72843747D02*
X235801428Y-72796128D01*
X235801428Y-72796128D02*
X235610952Y-72748509D01*
X235610952Y-72748509D02*
X235515714Y-72700890D01*
X235515714Y-72700890D02*
X235468095Y-72653271D01*
X235468095Y-72653271D02*
X235420476Y-72558033D01*
X235420476Y-72558033D02*
X235420476Y-72462795D01*
X235420476Y-72462795D02*
X235468095Y-72367557D01*
X235468095Y-72367557D02*
X235515714Y-72319938D01*
X235515714Y-72319938D02*
X235610952Y-72272319D01*
X235610952Y-72272319D02*
X235849047Y-72272319D01*
X235849047Y-72272319D02*
X235991904Y-72319938D01*
X236325238Y-72272319D02*
X236563333Y-73272319D01*
X236563333Y-73272319D02*
X236753809Y-72558033D01*
X236753809Y-72558033D02*
X236944285Y-73272319D01*
X236944285Y-73272319D02*
X237182381Y-72272319D01*
X238087142Y-73272319D02*
X237515714Y-73272319D01*
X237801428Y-73272319D02*
X237801428Y-72272319D01*
X237801428Y-72272319D02*
X237706190Y-72415176D01*
X237706190Y-72415176D02*
X237610952Y-72510414D01*
X237610952Y-72510414D02*
X237515714Y-72558033D01*
X239039523Y-73272319D02*
X238468095Y-73272319D01*
X238753809Y-73272319D02*
X238753809Y-72272319D01*
X238753809Y-72272319D02*
X238658571Y-72415176D01*
X238658571Y-72415176D02*
X238563333Y-72510414D01*
X238563333Y-72510414D02*
X238468095Y-72558033D01*
X216846667Y-48618450D02*
X216989524Y-48666069D01*
X216989524Y-48666069D02*
X217227619Y-48666069D01*
X217227619Y-48666069D02*
X217322857Y-48618450D01*
X217322857Y-48618450D02*
X217370476Y-48570830D01*
X217370476Y-48570830D02*
X217418095Y-48475592D01*
X217418095Y-48475592D02*
X217418095Y-48380354D01*
X217418095Y-48380354D02*
X217370476Y-48285116D01*
X217370476Y-48285116D02*
X217322857Y-48237497D01*
X217322857Y-48237497D02*
X217227619Y-48189878D01*
X217227619Y-48189878D02*
X217037143Y-48142259D01*
X217037143Y-48142259D02*
X216941905Y-48094640D01*
X216941905Y-48094640D02*
X216894286Y-48047021D01*
X216894286Y-48047021D02*
X216846667Y-47951783D01*
X216846667Y-47951783D02*
X216846667Y-47856545D01*
X216846667Y-47856545D02*
X216894286Y-47761307D01*
X216894286Y-47761307D02*
X216941905Y-47713688D01*
X216941905Y-47713688D02*
X217037143Y-47666069D01*
X217037143Y-47666069D02*
X217275238Y-47666069D01*
X217275238Y-47666069D02*
X217418095Y-47713688D01*
X217751429Y-47666069D02*
X217989524Y-48666069D01*
X217989524Y-48666069D02*
X218180000Y-47951783D01*
X218180000Y-47951783D02*
X218370476Y-48666069D01*
X218370476Y-48666069D02*
X218608572Y-47666069D01*
X219418095Y-47999402D02*
X219418095Y-48666069D01*
X219180000Y-47618450D02*
X218941905Y-48332735D01*
X218941905Y-48332735D02*
X219560952Y-48332735D01*
X135080476Y-97017200D02*
X135223333Y-97064819D01*
X135223333Y-97064819D02*
X135461428Y-97064819D01*
X135461428Y-97064819D02*
X135556666Y-97017200D01*
X135556666Y-97017200D02*
X135604285Y-96969580D01*
X135604285Y-96969580D02*
X135651904Y-96874342D01*
X135651904Y-96874342D02*
X135651904Y-96779104D01*
X135651904Y-96779104D02*
X135604285Y-96683866D01*
X135604285Y-96683866D02*
X135556666Y-96636247D01*
X135556666Y-96636247D02*
X135461428Y-96588628D01*
X135461428Y-96588628D02*
X135270952Y-96541009D01*
X135270952Y-96541009D02*
X135175714Y-96493390D01*
X135175714Y-96493390D02*
X135128095Y-96445771D01*
X135128095Y-96445771D02*
X135080476Y-96350533D01*
X135080476Y-96350533D02*
X135080476Y-96255295D01*
X135080476Y-96255295D02*
X135128095Y-96160057D01*
X135128095Y-96160057D02*
X135175714Y-96112438D01*
X135175714Y-96112438D02*
X135270952Y-96064819D01*
X135270952Y-96064819D02*
X135509047Y-96064819D01*
X135509047Y-96064819D02*
X135651904Y-96112438D01*
X135985238Y-96064819D02*
X136223333Y-97064819D01*
X136223333Y-97064819D02*
X136413809Y-96350533D01*
X136413809Y-96350533D02*
X136604285Y-97064819D01*
X136604285Y-97064819D02*
X136842381Y-96064819D01*
X137651904Y-96398152D02*
X137651904Y-97064819D01*
X137413809Y-96017200D02*
X137175714Y-96731485D01*
X137175714Y-96731485D02*
X137794761Y-96731485D01*
X138080476Y-96064819D02*
X138747142Y-96064819D01*
X138747142Y-96064819D02*
X138318571Y-97064819D01*
X77790476Y-105757200D02*
X77933333Y-105804819D01*
X77933333Y-105804819D02*
X78171428Y-105804819D01*
X78171428Y-105804819D02*
X78266666Y-105757200D01*
X78266666Y-105757200D02*
X78314285Y-105709580D01*
X78314285Y-105709580D02*
X78361904Y-105614342D01*
X78361904Y-105614342D02*
X78361904Y-105519104D01*
X78361904Y-105519104D02*
X78314285Y-105423866D01*
X78314285Y-105423866D02*
X78266666Y-105376247D01*
X78266666Y-105376247D02*
X78171428Y-105328628D01*
X78171428Y-105328628D02*
X77980952Y-105281009D01*
X77980952Y-105281009D02*
X77885714Y-105233390D01*
X77885714Y-105233390D02*
X77838095Y-105185771D01*
X77838095Y-105185771D02*
X77790476Y-105090533D01*
X77790476Y-105090533D02*
X77790476Y-104995295D01*
X77790476Y-104995295D02*
X77838095Y-104900057D01*
X77838095Y-104900057D02*
X77885714Y-104852438D01*
X77885714Y-104852438D02*
X77980952Y-104804819D01*
X77980952Y-104804819D02*
X78219047Y-104804819D01*
X78219047Y-104804819D02*
X78361904Y-104852438D01*
X78695238Y-104804819D02*
X78933333Y-105804819D01*
X78933333Y-105804819D02*
X79123809Y-105090533D01*
X79123809Y-105090533D02*
X79314285Y-105804819D01*
X79314285Y-105804819D02*
X79552381Y-104804819D01*
X79838095Y-104804819D02*
X80457142Y-104804819D01*
X80457142Y-104804819D02*
X80123809Y-105185771D01*
X80123809Y-105185771D02*
X80266666Y-105185771D01*
X80266666Y-105185771D02*
X80361904Y-105233390D01*
X80361904Y-105233390D02*
X80409523Y-105281009D01*
X80409523Y-105281009D02*
X80457142Y-105376247D01*
X80457142Y-105376247D02*
X80457142Y-105614342D01*
X80457142Y-105614342D02*
X80409523Y-105709580D01*
X80409523Y-105709580D02*
X80361904Y-105757200D01*
X80361904Y-105757200D02*
X80266666Y-105804819D01*
X80266666Y-105804819D02*
X79980952Y-105804819D01*
X79980952Y-105804819D02*
X79885714Y-105757200D01*
X79885714Y-105757200D02*
X79838095Y-105709580D01*
X81314285Y-104804819D02*
X81123809Y-104804819D01*
X81123809Y-104804819D02*
X81028571Y-104852438D01*
X81028571Y-104852438D02*
X80980952Y-104900057D01*
X80980952Y-104900057D02*
X80885714Y-105042914D01*
X80885714Y-105042914D02*
X80838095Y-105233390D01*
X80838095Y-105233390D02*
X80838095Y-105614342D01*
X80838095Y-105614342D02*
X80885714Y-105709580D01*
X80885714Y-105709580D02*
X80933333Y-105757200D01*
X80933333Y-105757200D02*
X81028571Y-105804819D01*
X81028571Y-105804819D02*
X81219047Y-105804819D01*
X81219047Y-105804819D02*
X81314285Y-105757200D01*
X81314285Y-105757200D02*
X81361904Y-105709580D01*
X81361904Y-105709580D02*
X81409523Y-105614342D01*
X81409523Y-105614342D02*
X81409523Y-105376247D01*
X81409523Y-105376247D02*
X81361904Y-105281009D01*
X81361904Y-105281009D02*
X81314285Y-105233390D01*
X81314285Y-105233390D02*
X81219047Y-105185771D01*
X81219047Y-105185771D02*
X81028571Y-105185771D01*
X81028571Y-105185771D02*
X80933333Y-105233390D01*
X80933333Y-105233390D02*
X80885714Y-105281009D01*
X80885714Y-105281009D02*
X80838095Y-105376247D01*
X197796667Y-70049700D02*
X197939524Y-70097319D01*
X197939524Y-70097319D02*
X198177619Y-70097319D01*
X198177619Y-70097319D02*
X198272857Y-70049700D01*
X198272857Y-70049700D02*
X198320476Y-70002080D01*
X198320476Y-70002080D02*
X198368095Y-69906842D01*
X198368095Y-69906842D02*
X198368095Y-69811604D01*
X198368095Y-69811604D02*
X198320476Y-69716366D01*
X198320476Y-69716366D02*
X198272857Y-69668747D01*
X198272857Y-69668747D02*
X198177619Y-69621128D01*
X198177619Y-69621128D02*
X197987143Y-69573509D01*
X197987143Y-69573509D02*
X197891905Y-69525890D01*
X197891905Y-69525890D02*
X197844286Y-69478271D01*
X197844286Y-69478271D02*
X197796667Y-69383033D01*
X197796667Y-69383033D02*
X197796667Y-69287795D01*
X197796667Y-69287795D02*
X197844286Y-69192557D01*
X197844286Y-69192557D02*
X197891905Y-69144938D01*
X197891905Y-69144938D02*
X197987143Y-69097319D01*
X197987143Y-69097319D02*
X198225238Y-69097319D01*
X198225238Y-69097319D02*
X198368095Y-69144938D01*
X198701429Y-69097319D02*
X198939524Y-70097319D01*
X198939524Y-70097319D02*
X199130000Y-69383033D01*
X199130000Y-69383033D02*
X199320476Y-70097319D01*
X199320476Y-70097319D02*
X199558572Y-69097319D01*
X199987143Y-70097319D02*
X200177619Y-70097319D01*
X200177619Y-70097319D02*
X200272857Y-70049700D01*
X200272857Y-70049700D02*
X200320476Y-70002080D01*
X200320476Y-70002080D02*
X200415714Y-69859223D01*
X200415714Y-69859223D02*
X200463333Y-69668747D01*
X200463333Y-69668747D02*
X200463333Y-69287795D01*
X200463333Y-69287795D02*
X200415714Y-69192557D01*
X200415714Y-69192557D02*
X200368095Y-69144938D01*
X200368095Y-69144938D02*
X200272857Y-69097319D01*
X200272857Y-69097319D02*
X200082381Y-69097319D01*
X200082381Y-69097319D02*
X199987143Y-69144938D01*
X199987143Y-69144938D02*
X199939524Y-69192557D01*
X199939524Y-69192557D02*
X199891905Y-69287795D01*
X199891905Y-69287795D02*
X199891905Y-69525890D01*
X199891905Y-69525890D02*
X199939524Y-69621128D01*
X199939524Y-69621128D02*
X199987143Y-69668747D01*
X199987143Y-69668747D02*
X200082381Y-69716366D01*
X200082381Y-69716366D02*
X200272857Y-69716366D01*
X200272857Y-69716366D02*
X200368095Y-69668747D01*
X200368095Y-69668747D02*
X200415714Y-69621128D01*
X200415714Y-69621128D02*
X200463333Y-69525890D01*
X116087976Y-55652200D02*
X116230833Y-55699819D01*
X116230833Y-55699819D02*
X116468928Y-55699819D01*
X116468928Y-55699819D02*
X116564166Y-55652200D01*
X116564166Y-55652200D02*
X116611785Y-55604580D01*
X116611785Y-55604580D02*
X116659404Y-55509342D01*
X116659404Y-55509342D02*
X116659404Y-55414104D01*
X116659404Y-55414104D02*
X116611785Y-55318866D01*
X116611785Y-55318866D02*
X116564166Y-55271247D01*
X116564166Y-55271247D02*
X116468928Y-55223628D01*
X116468928Y-55223628D02*
X116278452Y-55176009D01*
X116278452Y-55176009D02*
X116183214Y-55128390D01*
X116183214Y-55128390D02*
X116135595Y-55080771D01*
X116135595Y-55080771D02*
X116087976Y-54985533D01*
X116087976Y-54985533D02*
X116087976Y-54890295D01*
X116087976Y-54890295D02*
X116135595Y-54795057D01*
X116135595Y-54795057D02*
X116183214Y-54747438D01*
X116183214Y-54747438D02*
X116278452Y-54699819D01*
X116278452Y-54699819D02*
X116516547Y-54699819D01*
X116516547Y-54699819D02*
X116659404Y-54747438D01*
X116992738Y-54699819D02*
X117230833Y-55699819D01*
X117230833Y-55699819D02*
X117421309Y-54985533D01*
X117421309Y-54985533D02*
X117611785Y-55699819D01*
X117611785Y-55699819D02*
X117849881Y-54699819D01*
X118659404Y-55033152D02*
X118659404Y-55699819D01*
X118421309Y-54652200D02*
X118183214Y-55366485D01*
X118183214Y-55366485D02*
X118802261Y-55366485D01*
X119707023Y-55699819D02*
X119135595Y-55699819D01*
X119421309Y-55699819D02*
X119421309Y-54699819D01*
X119421309Y-54699819D02*
X119326071Y-54842676D01*
X119326071Y-54842676D02*
X119230833Y-54937914D01*
X119230833Y-54937914D02*
X119135595Y-54985533D01*
X39780476Y-77837200D02*
X39923333Y-77884819D01*
X39923333Y-77884819D02*
X40161428Y-77884819D01*
X40161428Y-77884819D02*
X40256666Y-77837200D01*
X40256666Y-77837200D02*
X40304285Y-77789580D01*
X40304285Y-77789580D02*
X40351904Y-77694342D01*
X40351904Y-77694342D02*
X40351904Y-77599104D01*
X40351904Y-77599104D02*
X40304285Y-77503866D01*
X40304285Y-77503866D02*
X40256666Y-77456247D01*
X40256666Y-77456247D02*
X40161428Y-77408628D01*
X40161428Y-77408628D02*
X39970952Y-77361009D01*
X39970952Y-77361009D02*
X39875714Y-77313390D01*
X39875714Y-77313390D02*
X39828095Y-77265771D01*
X39828095Y-77265771D02*
X39780476Y-77170533D01*
X39780476Y-77170533D02*
X39780476Y-77075295D01*
X39780476Y-77075295D02*
X39828095Y-76980057D01*
X39828095Y-76980057D02*
X39875714Y-76932438D01*
X39875714Y-76932438D02*
X39970952Y-76884819D01*
X39970952Y-76884819D02*
X40209047Y-76884819D01*
X40209047Y-76884819D02*
X40351904Y-76932438D01*
X40685238Y-76884819D02*
X40923333Y-77884819D01*
X40923333Y-77884819D02*
X41113809Y-77170533D01*
X41113809Y-77170533D02*
X41304285Y-77884819D01*
X41304285Y-77884819D02*
X41542381Y-76884819D01*
X41875714Y-76980057D02*
X41923333Y-76932438D01*
X41923333Y-76932438D02*
X42018571Y-76884819D01*
X42018571Y-76884819D02*
X42256666Y-76884819D01*
X42256666Y-76884819D02*
X42351904Y-76932438D01*
X42351904Y-76932438D02*
X42399523Y-76980057D01*
X42399523Y-76980057D02*
X42447142Y-77075295D01*
X42447142Y-77075295D02*
X42447142Y-77170533D01*
X42447142Y-77170533D02*
X42399523Y-77313390D01*
X42399523Y-77313390D02*
X41828095Y-77884819D01*
X41828095Y-77884819D02*
X42447142Y-77884819D01*
X43304285Y-76884819D02*
X43113809Y-76884819D01*
X43113809Y-76884819D02*
X43018571Y-76932438D01*
X43018571Y-76932438D02*
X42970952Y-76980057D01*
X42970952Y-76980057D02*
X42875714Y-77122914D01*
X42875714Y-77122914D02*
X42828095Y-77313390D01*
X42828095Y-77313390D02*
X42828095Y-77694342D01*
X42828095Y-77694342D02*
X42875714Y-77789580D01*
X42875714Y-77789580D02*
X42923333Y-77837200D01*
X42923333Y-77837200D02*
X43018571Y-77884819D01*
X43018571Y-77884819D02*
X43209047Y-77884819D01*
X43209047Y-77884819D02*
X43304285Y-77837200D01*
X43304285Y-77837200D02*
X43351904Y-77789580D01*
X43351904Y-77789580D02*
X43399523Y-77694342D01*
X43399523Y-77694342D02*
X43399523Y-77456247D01*
X43399523Y-77456247D02*
X43351904Y-77361009D01*
X43351904Y-77361009D02*
X43304285Y-77313390D01*
X43304285Y-77313390D02*
X43209047Y-77265771D01*
X43209047Y-77265771D02*
X43018571Y-77265771D01*
X43018571Y-77265771D02*
X42923333Y-77313390D01*
X42923333Y-77313390D02*
X42875714Y-77361009D01*
X42875714Y-77361009D02*
X42828095Y-77456247D01*
X96902976Y-89077200D02*
X97045833Y-89124819D01*
X97045833Y-89124819D02*
X97283928Y-89124819D01*
X97283928Y-89124819D02*
X97379166Y-89077200D01*
X97379166Y-89077200D02*
X97426785Y-89029580D01*
X97426785Y-89029580D02*
X97474404Y-88934342D01*
X97474404Y-88934342D02*
X97474404Y-88839104D01*
X97474404Y-88839104D02*
X97426785Y-88743866D01*
X97426785Y-88743866D02*
X97379166Y-88696247D01*
X97379166Y-88696247D02*
X97283928Y-88648628D01*
X97283928Y-88648628D02*
X97093452Y-88601009D01*
X97093452Y-88601009D02*
X96998214Y-88553390D01*
X96998214Y-88553390D02*
X96950595Y-88505771D01*
X96950595Y-88505771D02*
X96902976Y-88410533D01*
X96902976Y-88410533D02*
X96902976Y-88315295D01*
X96902976Y-88315295D02*
X96950595Y-88220057D01*
X96950595Y-88220057D02*
X96998214Y-88172438D01*
X96998214Y-88172438D02*
X97093452Y-88124819D01*
X97093452Y-88124819D02*
X97331547Y-88124819D01*
X97331547Y-88124819D02*
X97474404Y-88172438D01*
X97807738Y-88124819D02*
X98045833Y-89124819D01*
X98045833Y-89124819D02*
X98236309Y-88410533D01*
X98236309Y-88410533D02*
X98426785Y-89124819D01*
X98426785Y-89124819D02*
X98664881Y-88124819D01*
X98950595Y-88124819D02*
X99569642Y-88124819D01*
X99569642Y-88124819D02*
X99236309Y-88505771D01*
X99236309Y-88505771D02*
X99379166Y-88505771D01*
X99379166Y-88505771D02*
X99474404Y-88553390D01*
X99474404Y-88553390D02*
X99522023Y-88601009D01*
X99522023Y-88601009D02*
X99569642Y-88696247D01*
X99569642Y-88696247D02*
X99569642Y-88934342D01*
X99569642Y-88934342D02*
X99522023Y-89029580D01*
X99522023Y-89029580D02*
X99474404Y-89077200D01*
X99474404Y-89077200D02*
X99379166Y-89124819D01*
X99379166Y-89124819D02*
X99093452Y-89124819D01*
X99093452Y-89124819D02*
X98998214Y-89077200D01*
X98998214Y-89077200D02*
X98950595Y-89029580D01*
X100045833Y-89124819D02*
X100236309Y-89124819D01*
X100236309Y-89124819D02*
X100331547Y-89077200D01*
X100331547Y-89077200D02*
X100379166Y-89029580D01*
X100379166Y-89029580D02*
X100474404Y-88886723D01*
X100474404Y-88886723D02*
X100522023Y-88696247D01*
X100522023Y-88696247D02*
X100522023Y-88315295D01*
X100522023Y-88315295D02*
X100474404Y-88220057D01*
X100474404Y-88220057D02*
X100426785Y-88172438D01*
X100426785Y-88172438D02*
X100331547Y-88124819D01*
X100331547Y-88124819D02*
X100141071Y-88124819D01*
X100141071Y-88124819D02*
X100045833Y-88172438D01*
X100045833Y-88172438D02*
X99998214Y-88220057D01*
X99998214Y-88220057D02*
X99950595Y-88315295D01*
X99950595Y-88315295D02*
X99950595Y-88553390D01*
X99950595Y-88553390D02*
X99998214Y-88648628D01*
X99998214Y-88648628D02*
X100045833Y-88696247D01*
X100045833Y-88696247D02*
X100141071Y-88743866D01*
X100141071Y-88743866D02*
X100331547Y-88743866D01*
X100331547Y-88743866D02*
X100426785Y-88696247D01*
X100426785Y-88696247D02*
X100474404Y-88648628D01*
X100474404Y-88648628D02*
X100522023Y-88553390D01*
X134980476Y-115947200D02*
X135123333Y-115994819D01*
X135123333Y-115994819D02*
X135361428Y-115994819D01*
X135361428Y-115994819D02*
X135456666Y-115947200D01*
X135456666Y-115947200D02*
X135504285Y-115899580D01*
X135504285Y-115899580D02*
X135551904Y-115804342D01*
X135551904Y-115804342D02*
X135551904Y-115709104D01*
X135551904Y-115709104D02*
X135504285Y-115613866D01*
X135504285Y-115613866D02*
X135456666Y-115566247D01*
X135456666Y-115566247D02*
X135361428Y-115518628D01*
X135361428Y-115518628D02*
X135170952Y-115471009D01*
X135170952Y-115471009D02*
X135075714Y-115423390D01*
X135075714Y-115423390D02*
X135028095Y-115375771D01*
X135028095Y-115375771D02*
X134980476Y-115280533D01*
X134980476Y-115280533D02*
X134980476Y-115185295D01*
X134980476Y-115185295D02*
X135028095Y-115090057D01*
X135028095Y-115090057D02*
X135075714Y-115042438D01*
X135075714Y-115042438D02*
X135170952Y-114994819D01*
X135170952Y-114994819D02*
X135409047Y-114994819D01*
X135409047Y-114994819D02*
X135551904Y-115042438D01*
X135885238Y-114994819D02*
X136123333Y-115994819D01*
X136123333Y-115994819D02*
X136313809Y-115280533D01*
X136313809Y-115280533D02*
X136504285Y-115994819D01*
X136504285Y-115994819D02*
X136742381Y-114994819D01*
X137551904Y-115328152D02*
X137551904Y-115994819D01*
X137313809Y-114947200D02*
X137075714Y-115661485D01*
X137075714Y-115661485D02*
X137694761Y-115661485D01*
X138218571Y-115423390D02*
X138123333Y-115375771D01*
X138123333Y-115375771D02*
X138075714Y-115328152D01*
X138075714Y-115328152D02*
X138028095Y-115232914D01*
X138028095Y-115232914D02*
X138028095Y-115185295D01*
X138028095Y-115185295D02*
X138075714Y-115090057D01*
X138075714Y-115090057D02*
X138123333Y-115042438D01*
X138123333Y-115042438D02*
X138218571Y-114994819D01*
X138218571Y-114994819D02*
X138409047Y-114994819D01*
X138409047Y-114994819D02*
X138504285Y-115042438D01*
X138504285Y-115042438D02*
X138551904Y-115090057D01*
X138551904Y-115090057D02*
X138599523Y-115185295D01*
X138599523Y-115185295D02*
X138599523Y-115232914D01*
X138599523Y-115232914D02*
X138551904Y-115328152D01*
X138551904Y-115328152D02*
X138504285Y-115375771D01*
X138504285Y-115375771D02*
X138409047Y-115423390D01*
X138409047Y-115423390D02*
X138218571Y-115423390D01*
X138218571Y-115423390D02*
X138123333Y-115471009D01*
X138123333Y-115471009D02*
X138075714Y-115518628D01*
X138075714Y-115518628D02*
X138028095Y-115613866D01*
X138028095Y-115613866D02*
X138028095Y-115804342D01*
X138028095Y-115804342D02*
X138075714Y-115899580D01*
X138075714Y-115899580D02*
X138123333Y-115947200D01*
X138123333Y-115947200D02*
X138218571Y-115994819D01*
X138218571Y-115994819D02*
X138409047Y-115994819D01*
X138409047Y-115994819D02*
X138504285Y-115947200D01*
X138504285Y-115947200D02*
X138551904Y-115899580D01*
X138551904Y-115899580D02*
X138599523Y-115804342D01*
X138599523Y-115804342D02*
X138599523Y-115613866D01*
X138599523Y-115613866D02*
X138551904Y-115518628D01*
X138551904Y-115518628D02*
X138504285Y-115471009D01*
X138504285Y-115471009D02*
X138409047Y-115423390D01*
X254470476Y-97037200D02*
X254613333Y-97084819D01*
X254613333Y-97084819D02*
X254851428Y-97084819D01*
X254851428Y-97084819D02*
X254946666Y-97037200D01*
X254946666Y-97037200D02*
X254994285Y-96989580D01*
X254994285Y-96989580D02*
X255041904Y-96894342D01*
X255041904Y-96894342D02*
X255041904Y-96799104D01*
X255041904Y-96799104D02*
X254994285Y-96703866D01*
X254994285Y-96703866D02*
X254946666Y-96656247D01*
X254946666Y-96656247D02*
X254851428Y-96608628D01*
X254851428Y-96608628D02*
X254660952Y-96561009D01*
X254660952Y-96561009D02*
X254565714Y-96513390D01*
X254565714Y-96513390D02*
X254518095Y-96465771D01*
X254518095Y-96465771D02*
X254470476Y-96370533D01*
X254470476Y-96370533D02*
X254470476Y-96275295D01*
X254470476Y-96275295D02*
X254518095Y-96180057D01*
X254518095Y-96180057D02*
X254565714Y-96132438D01*
X254565714Y-96132438D02*
X254660952Y-96084819D01*
X254660952Y-96084819D02*
X254899047Y-96084819D01*
X254899047Y-96084819D02*
X255041904Y-96132438D01*
X255375238Y-96084819D02*
X255613333Y-97084819D01*
X255613333Y-97084819D02*
X255803809Y-96370533D01*
X255803809Y-96370533D02*
X255994285Y-97084819D01*
X255994285Y-97084819D02*
X256232381Y-96084819D01*
X257137142Y-97084819D02*
X256565714Y-97084819D01*
X256851428Y-97084819D02*
X256851428Y-96084819D01*
X256851428Y-96084819D02*
X256756190Y-96227676D01*
X256756190Y-96227676D02*
X256660952Y-96322914D01*
X256660952Y-96322914D02*
X256565714Y-96370533D01*
X257708571Y-96513390D02*
X257613333Y-96465771D01*
X257613333Y-96465771D02*
X257565714Y-96418152D01*
X257565714Y-96418152D02*
X257518095Y-96322914D01*
X257518095Y-96322914D02*
X257518095Y-96275295D01*
X257518095Y-96275295D02*
X257565714Y-96180057D01*
X257565714Y-96180057D02*
X257613333Y-96132438D01*
X257613333Y-96132438D02*
X257708571Y-96084819D01*
X257708571Y-96084819D02*
X257899047Y-96084819D01*
X257899047Y-96084819D02*
X257994285Y-96132438D01*
X257994285Y-96132438D02*
X258041904Y-96180057D01*
X258041904Y-96180057D02*
X258089523Y-96275295D01*
X258089523Y-96275295D02*
X258089523Y-96322914D01*
X258089523Y-96322914D02*
X258041904Y-96418152D01*
X258041904Y-96418152D02*
X257994285Y-96465771D01*
X257994285Y-96465771D02*
X257899047Y-96513390D01*
X257899047Y-96513390D02*
X257708571Y-96513390D01*
X257708571Y-96513390D02*
X257613333Y-96561009D01*
X257613333Y-96561009D02*
X257565714Y-96608628D01*
X257565714Y-96608628D02*
X257518095Y-96703866D01*
X257518095Y-96703866D02*
X257518095Y-96894342D01*
X257518095Y-96894342D02*
X257565714Y-96989580D01*
X257565714Y-96989580D02*
X257613333Y-97037200D01*
X257613333Y-97037200D02*
X257708571Y-97084819D01*
X257708571Y-97084819D02*
X257899047Y-97084819D01*
X257899047Y-97084819D02*
X257994285Y-97037200D01*
X257994285Y-97037200D02*
X258041904Y-96989580D01*
X258041904Y-96989580D02*
X258089523Y-96894342D01*
X258089523Y-96894342D02*
X258089523Y-96703866D01*
X258089523Y-96703866D02*
X258041904Y-96608628D01*
X258041904Y-96608628D02*
X257994285Y-96561009D01*
X257994285Y-96561009D02*
X257899047Y-96513390D01*
X254946667Y-58937200D02*
X255089524Y-58984819D01*
X255089524Y-58984819D02*
X255327619Y-58984819D01*
X255327619Y-58984819D02*
X255422857Y-58937200D01*
X255422857Y-58937200D02*
X255470476Y-58889580D01*
X255470476Y-58889580D02*
X255518095Y-58794342D01*
X255518095Y-58794342D02*
X255518095Y-58699104D01*
X255518095Y-58699104D02*
X255470476Y-58603866D01*
X255470476Y-58603866D02*
X255422857Y-58556247D01*
X255422857Y-58556247D02*
X255327619Y-58508628D01*
X255327619Y-58508628D02*
X255137143Y-58461009D01*
X255137143Y-58461009D02*
X255041905Y-58413390D01*
X255041905Y-58413390D02*
X254994286Y-58365771D01*
X254994286Y-58365771D02*
X254946667Y-58270533D01*
X254946667Y-58270533D02*
X254946667Y-58175295D01*
X254946667Y-58175295D02*
X254994286Y-58080057D01*
X254994286Y-58080057D02*
X255041905Y-58032438D01*
X255041905Y-58032438D02*
X255137143Y-57984819D01*
X255137143Y-57984819D02*
X255375238Y-57984819D01*
X255375238Y-57984819D02*
X255518095Y-58032438D01*
X255851429Y-57984819D02*
X256089524Y-58984819D01*
X256089524Y-58984819D02*
X256280000Y-58270533D01*
X256280000Y-58270533D02*
X256470476Y-58984819D01*
X256470476Y-58984819D02*
X256708572Y-57984819D01*
X257518095Y-57984819D02*
X257327619Y-57984819D01*
X257327619Y-57984819D02*
X257232381Y-58032438D01*
X257232381Y-58032438D02*
X257184762Y-58080057D01*
X257184762Y-58080057D02*
X257089524Y-58222914D01*
X257089524Y-58222914D02*
X257041905Y-58413390D01*
X257041905Y-58413390D02*
X257041905Y-58794342D01*
X257041905Y-58794342D02*
X257089524Y-58889580D01*
X257089524Y-58889580D02*
X257137143Y-58937200D01*
X257137143Y-58937200D02*
X257232381Y-58984819D01*
X257232381Y-58984819D02*
X257422857Y-58984819D01*
X257422857Y-58984819D02*
X257518095Y-58937200D01*
X257518095Y-58937200D02*
X257565714Y-58889580D01*
X257565714Y-58889580D02*
X257613333Y-58794342D01*
X257613333Y-58794342D02*
X257613333Y-58556247D01*
X257613333Y-58556247D02*
X257565714Y-58461009D01*
X257565714Y-58461009D02*
X257518095Y-58413390D01*
X257518095Y-58413390D02*
X257422857Y-58365771D01*
X257422857Y-58365771D02*
X257232381Y-58365771D01*
X257232381Y-58365771D02*
X257137143Y-58413390D01*
X257137143Y-58413390D02*
X257089524Y-58461009D01*
X257089524Y-58461009D02*
X257041905Y-58556247D01*
D12*
X12339940Y-110807229D02*
X12339940Y-111321276D01*
X12339940Y-111321276D02*
X12370178Y-111381752D01*
X12370178Y-111381752D02*
X12400416Y-111411991D01*
X12400416Y-111411991D02*
X12460892Y-111442229D01*
X12460892Y-111442229D02*
X12581845Y-111442229D01*
X12581845Y-111442229D02*
X12642321Y-111411991D01*
X12642321Y-111411991D02*
X12672559Y-111381752D01*
X12672559Y-111381752D02*
X12702797Y-111321276D01*
X12702797Y-111321276D02*
X12702797Y-110807229D01*
X12974940Y-110867705D02*
X13005178Y-110837467D01*
X13005178Y-110837467D02*
X13065654Y-110807229D01*
X13065654Y-110807229D02*
X13216845Y-110807229D01*
X13216845Y-110807229D02*
X13277321Y-110837467D01*
X13277321Y-110837467D02*
X13307559Y-110867705D01*
X13307559Y-110867705D02*
X13337797Y-110928181D01*
X13337797Y-110928181D02*
X13337797Y-110988657D01*
X13337797Y-110988657D02*
X13307559Y-111079371D01*
X13307559Y-111079371D02*
X12944702Y-111442229D01*
X12944702Y-111442229D02*
X13337797Y-111442229D01*
D11*
X159696667Y-77987200D02*
X159839524Y-78034819D01*
X159839524Y-78034819D02*
X160077619Y-78034819D01*
X160077619Y-78034819D02*
X160172857Y-77987200D01*
X160172857Y-77987200D02*
X160220476Y-77939580D01*
X160220476Y-77939580D02*
X160268095Y-77844342D01*
X160268095Y-77844342D02*
X160268095Y-77749104D01*
X160268095Y-77749104D02*
X160220476Y-77653866D01*
X160220476Y-77653866D02*
X160172857Y-77606247D01*
X160172857Y-77606247D02*
X160077619Y-77558628D01*
X160077619Y-77558628D02*
X159887143Y-77511009D01*
X159887143Y-77511009D02*
X159791905Y-77463390D01*
X159791905Y-77463390D02*
X159744286Y-77415771D01*
X159744286Y-77415771D02*
X159696667Y-77320533D01*
X159696667Y-77320533D02*
X159696667Y-77225295D01*
X159696667Y-77225295D02*
X159744286Y-77130057D01*
X159744286Y-77130057D02*
X159791905Y-77082438D01*
X159791905Y-77082438D02*
X159887143Y-77034819D01*
X159887143Y-77034819D02*
X160125238Y-77034819D01*
X160125238Y-77034819D02*
X160268095Y-77082438D01*
X160601429Y-77034819D02*
X160839524Y-78034819D01*
X160839524Y-78034819D02*
X161030000Y-77320533D01*
X161030000Y-77320533D02*
X161220476Y-78034819D01*
X161220476Y-78034819D02*
X161458572Y-77034819D01*
X161744286Y-77034819D02*
X162410952Y-77034819D01*
X162410952Y-77034819D02*
X161982381Y-78034819D01*
X197320476Y-89099700D02*
X197463333Y-89147319D01*
X197463333Y-89147319D02*
X197701428Y-89147319D01*
X197701428Y-89147319D02*
X197796666Y-89099700D01*
X197796666Y-89099700D02*
X197844285Y-89052080D01*
X197844285Y-89052080D02*
X197891904Y-88956842D01*
X197891904Y-88956842D02*
X197891904Y-88861604D01*
X197891904Y-88861604D02*
X197844285Y-88766366D01*
X197844285Y-88766366D02*
X197796666Y-88718747D01*
X197796666Y-88718747D02*
X197701428Y-88671128D01*
X197701428Y-88671128D02*
X197510952Y-88623509D01*
X197510952Y-88623509D02*
X197415714Y-88575890D01*
X197415714Y-88575890D02*
X197368095Y-88528271D01*
X197368095Y-88528271D02*
X197320476Y-88433033D01*
X197320476Y-88433033D02*
X197320476Y-88337795D01*
X197320476Y-88337795D02*
X197368095Y-88242557D01*
X197368095Y-88242557D02*
X197415714Y-88194938D01*
X197415714Y-88194938D02*
X197510952Y-88147319D01*
X197510952Y-88147319D02*
X197749047Y-88147319D01*
X197749047Y-88147319D02*
X197891904Y-88194938D01*
X198225238Y-88147319D02*
X198463333Y-89147319D01*
X198463333Y-89147319D02*
X198653809Y-88433033D01*
X198653809Y-88433033D02*
X198844285Y-89147319D01*
X198844285Y-89147319D02*
X199082381Y-88147319D01*
X199987142Y-89147319D02*
X199415714Y-89147319D01*
X199701428Y-89147319D02*
X199701428Y-88147319D01*
X199701428Y-88147319D02*
X199606190Y-88290176D01*
X199606190Y-88290176D02*
X199510952Y-88385414D01*
X199510952Y-88385414D02*
X199415714Y-88433033D01*
X200891904Y-88147319D02*
X200415714Y-88147319D01*
X200415714Y-88147319D02*
X200368095Y-88623509D01*
X200368095Y-88623509D02*
X200415714Y-88575890D01*
X200415714Y-88575890D02*
X200510952Y-88528271D01*
X200510952Y-88528271D02*
X200749047Y-88528271D01*
X200749047Y-88528271D02*
X200844285Y-88575890D01*
X200844285Y-88575890D02*
X200891904Y-88623509D01*
X200891904Y-88623509D02*
X200939523Y-88718747D01*
X200939523Y-88718747D02*
X200939523Y-88956842D01*
X200939523Y-88956842D02*
X200891904Y-89052080D01*
X200891904Y-89052080D02*
X200844285Y-89099700D01*
X200844285Y-89099700D02*
X200749047Y-89147319D01*
X200749047Y-89147319D02*
X200510952Y-89147319D01*
X200510952Y-89147319D02*
X200415714Y-89099700D01*
X200415714Y-89099700D02*
X200368095Y-89052080D01*
X159696667Y-58937200D02*
X159839524Y-58984819D01*
X159839524Y-58984819D02*
X160077619Y-58984819D01*
X160077619Y-58984819D02*
X160172857Y-58937200D01*
X160172857Y-58937200D02*
X160220476Y-58889580D01*
X160220476Y-58889580D02*
X160268095Y-58794342D01*
X160268095Y-58794342D02*
X160268095Y-58699104D01*
X160268095Y-58699104D02*
X160220476Y-58603866D01*
X160220476Y-58603866D02*
X160172857Y-58556247D01*
X160172857Y-58556247D02*
X160077619Y-58508628D01*
X160077619Y-58508628D02*
X159887143Y-58461009D01*
X159887143Y-58461009D02*
X159791905Y-58413390D01*
X159791905Y-58413390D02*
X159744286Y-58365771D01*
X159744286Y-58365771D02*
X159696667Y-58270533D01*
X159696667Y-58270533D02*
X159696667Y-58175295D01*
X159696667Y-58175295D02*
X159744286Y-58080057D01*
X159744286Y-58080057D02*
X159791905Y-58032438D01*
X159791905Y-58032438D02*
X159887143Y-57984819D01*
X159887143Y-57984819D02*
X160125238Y-57984819D01*
X160125238Y-57984819D02*
X160268095Y-58032438D01*
X160601429Y-57984819D02*
X160839524Y-58984819D01*
X160839524Y-58984819D02*
X161030000Y-58270533D01*
X161030000Y-58270533D02*
X161220476Y-58984819D01*
X161220476Y-58984819D02*
X161458572Y-57984819D01*
X162363333Y-58984819D02*
X161791905Y-58984819D01*
X162077619Y-58984819D02*
X162077619Y-57984819D01*
X162077619Y-57984819D02*
X161982381Y-58127676D01*
X161982381Y-58127676D02*
X161887143Y-58222914D01*
X161887143Y-58222914D02*
X161791905Y-58270533D01*
X235896667Y-54174700D02*
X236039524Y-54222319D01*
X236039524Y-54222319D02*
X236277619Y-54222319D01*
X236277619Y-54222319D02*
X236372857Y-54174700D01*
X236372857Y-54174700D02*
X236420476Y-54127080D01*
X236420476Y-54127080D02*
X236468095Y-54031842D01*
X236468095Y-54031842D02*
X236468095Y-53936604D01*
X236468095Y-53936604D02*
X236420476Y-53841366D01*
X236420476Y-53841366D02*
X236372857Y-53793747D01*
X236372857Y-53793747D02*
X236277619Y-53746128D01*
X236277619Y-53746128D02*
X236087143Y-53698509D01*
X236087143Y-53698509D02*
X235991905Y-53650890D01*
X235991905Y-53650890D02*
X235944286Y-53603271D01*
X235944286Y-53603271D02*
X235896667Y-53508033D01*
X235896667Y-53508033D02*
X235896667Y-53412795D01*
X235896667Y-53412795D02*
X235944286Y-53317557D01*
X235944286Y-53317557D02*
X235991905Y-53269938D01*
X235991905Y-53269938D02*
X236087143Y-53222319D01*
X236087143Y-53222319D02*
X236325238Y-53222319D01*
X236325238Y-53222319D02*
X236468095Y-53269938D01*
X236801429Y-53222319D02*
X237039524Y-54222319D01*
X237039524Y-54222319D02*
X237230000Y-53508033D01*
X237230000Y-53508033D02*
X237420476Y-54222319D01*
X237420476Y-54222319D02*
X237658572Y-53222319D01*
X238515714Y-53222319D02*
X238039524Y-53222319D01*
X238039524Y-53222319D02*
X237991905Y-53698509D01*
X237991905Y-53698509D02*
X238039524Y-53650890D01*
X238039524Y-53650890D02*
X238134762Y-53603271D01*
X238134762Y-53603271D02*
X238372857Y-53603271D01*
X238372857Y-53603271D02*
X238468095Y-53650890D01*
X238468095Y-53650890D02*
X238515714Y-53698509D01*
X238515714Y-53698509D02*
X238563333Y-53793747D01*
X238563333Y-53793747D02*
X238563333Y-54031842D01*
X238563333Y-54031842D02*
X238515714Y-54127080D01*
X238515714Y-54127080D02*
X238468095Y-54174700D01*
X238468095Y-54174700D02*
X238372857Y-54222319D01*
X238372857Y-54222319D02*
X238134762Y-54222319D01*
X238134762Y-54222319D02*
X238039524Y-54174700D01*
X238039524Y-54174700D02*
X237991905Y-54127080D01*
X39850476Y-96997200D02*
X39993333Y-97044819D01*
X39993333Y-97044819D02*
X40231428Y-97044819D01*
X40231428Y-97044819D02*
X40326666Y-96997200D01*
X40326666Y-96997200D02*
X40374285Y-96949580D01*
X40374285Y-96949580D02*
X40421904Y-96854342D01*
X40421904Y-96854342D02*
X40421904Y-96759104D01*
X40421904Y-96759104D02*
X40374285Y-96663866D01*
X40374285Y-96663866D02*
X40326666Y-96616247D01*
X40326666Y-96616247D02*
X40231428Y-96568628D01*
X40231428Y-96568628D02*
X40040952Y-96521009D01*
X40040952Y-96521009D02*
X39945714Y-96473390D01*
X39945714Y-96473390D02*
X39898095Y-96425771D01*
X39898095Y-96425771D02*
X39850476Y-96330533D01*
X39850476Y-96330533D02*
X39850476Y-96235295D01*
X39850476Y-96235295D02*
X39898095Y-96140057D01*
X39898095Y-96140057D02*
X39945714Y-96092438D01*
X39945714Y-96092438D02*
X40040952Y-96044819D01*
X40040952Y-96044819D02*
X40279047Y-96044819D01*
X40279047Y-96044819D02*
X40421904Y-96092438D01*
X40755238Y-96044819D02*
X40993333Y-97044819D01*
X40993333Y-97044819D02*
X41183809Y-96330533D01*
X41183809Y-96330533D02*
X41374285Y-97044819D01*
X41374285Y-97044819D02*
X41612381Y-96044819D01*
X41945714Y-96140057D02*
X41993333Y-96092438D01*
X41993333Y-96092438D02*
X42088571Y-96044819D01*
X42088571Y-96044819D02*
X42326666Y-96044819D01*
X42326666Y-96044819D02*
X42421904Y-96092438D01*
X42421904Y-96092438D02*
X42469523Y-96140057D01*
X42469523Y-96140057D02*
X42517142Y-96235295D01*
X42517142Y-96235295D02*
X42517142Y-96330533D01*
X42517142Y-96330533D02*
X42469523Y-96473390D01*
X42469523Y-96473390D02*
X41898095Y-97044819D01*
X41898095Y-97044819D02*
X42517142Y-97044819D01*
X42850476Y-96044819D02*
X43517142Y-96044819D01*
X43517142Y-96044819D02*
X43088571Y-97044819D01*
X178746667Y-74812200D02*
X178889524Y-74859819D01*
X178889524Y-74859819D02*
X179127619Y-74859819D01*
X179127619Y-74859819D02*
X179222857Y-74812200D01*
X179222857Y-74812200D02*
X179270476Y-74764580D01*
X179270476Y-74764580D02*
X179318095Y-74669342D01*
X179318095Y-74669342D02*
X179318095Y-74574104D01*
X179318095Y-74574104D02*
X179270476Y-74478866D01*
X179270476Y-74478866D02*
X179222857Y-74431247D01*
X179222857Y-74431247D02*
X179127619Y-74383628D01*
X179127619Y-74383628D02*
X178937143Y-74336009D01*
X178937143Y-74336009D02*
X178841905Y-74288390D01*
X178841905Y-74288390D02*
X178794286Y-74240771D01*
X178794286Y-74240771D02*
X178746667Y-74145533D01*
X178746667Y-74145533D02*
X178746667Y-74050295D01*
X178746667Y-74050295D02*
X178794286Y-73955057D01*
X178794286Y-73955057D02*
X178841905Y-73907438D01*
X178841905Y-73907438D02*
X178937143Y-73859819D01*
X178937143Y-73859819D02*
X179175238Y-73859819D01*
X179175238Y-73859819D02*
X179318095Y-73907438D01*
X179651429Y-73859819D02*
X179889524Y-74859819D01*
X179889524Y-74859819D02*
X180080000Y-74145533D01*
X180080000Y-74145533D02*
X180270476Y-74859819D01*
X180270476Y-74859819D02*
X180508572Y-73859819D01*
X181032381Y-74288390D02*
X180937143Y-74240771D01*
X180937143Y-74240771D02*
X180889524Y-74193152D01*
X180889524Y-74193152D02*
X180841905Y-74097914D01*
X180841905Y-74097914D02*
X180841905Y-74050295D01*
X180841905Y-74050295D02*
X180889524Y-73955057D01*
X180889524Y-73955057D02*
X180937143Y-73907438D01*
X180937143Y-73907438D02*
X181032381Y-73859819D01*
X181032381Y-73859819D02*
X181222857Y-73859819D01*
X181222857Y-73859819D02*
X181318095Y-73907438D01*
X181318095Y-73907438D02*
X181365714Y-73955057D01*
X181365714Y-73955057D02*
X181413333Y-74050295D01*
X181413333Y-74050295D02*
X181413333Y-74097914D01*
X181413333Y-74097914D02*
X181365714Y-74193152D01*
X181365714Y-74193152D02*
X181318095Y-74240771D01*
X181318095Y-74240771D02*
X181222857Y-74288390D01*
X181222857Y-74288390D02*
X181032381Y-74288390D01*
X181032381Y-74288390D02*
X180937143Y-74336009D01*
X180937143Y-74336009D02*
X180889524Y-74383628D01*
X180889524Y-74383628D02*
X180841905Y-74478866D01*
X180841905Y-74478866D02*
X180841905Y-74669342D01*
X180841905Y-74669342D02*
X180889524Y-74764580D01*
X180889524Y-74764580D02*
X180937143Y-74812200D01*
X180937143Y-74812200D02*
X181032381Y-74859819D01*
X181032381Y-74859819D02*
X181222857Y-74859819D01*
X181222857Y-74859819D02*
X181318095Y-74812200D01*
X181318095Y-74812200D02*
X181365714Y-74764580D01*
X181365714Y-74764580D02*
X181413333Y-74669342D01*
X181413333Y-74669342D02*
X181413333Y-74478866D01*
X181413333Y-74478866D02*
X181365714Y-74383628D01*
X181365714Y-74383628D02*
X181318095Y-74336009D01*
X181318095Y-74336009D02*
X181222857Y-74288390D01*
X58832976Y-92367200D02*
X58975833Y-92414819D01*
X58975833Y-92414819D02*
X59213928Y-92414819D01*
X59213928Y-92414819D02*
X59309166Y-92367200D01*
X59309166Y-92367200D02*
X59356785Y-92319580D01*
X59356785Y-92319580D02*
X59404404Y-92224342D01*
X59404404Y-92224342D02*
X59404404Y-92129104D01*
X59404404Y-92129104D02*
X59356785Y-92033866D01*
X59356785Y-92033866D02*
X59309166Y-91986247D01*
X59309166Y-91986247D02*
X59213928Y-91938628D01*
X59213928Y-91938628D02*
X59023452Y-91891009D01*
X59023452Y-91891009D02*
X58928214Y-91843390D01*
X58928214Y-91843390D02*
X58880595Y-91795771D01*
X58880595Y-91795771D02*
X58832976Y-91700533D01*
X58832976Y-91700533D02*
X58832976Y-91605295D01*
X58832976Y-91605295D02*
X58880595Y-91510057D01*
X58880595Y-91510057D02*
X58928214Y-91462438D01*
X58928214Y-91462438D02*
X59023452Y-91414819D01*
X59023452Y-91414819D02*
X59261547Y-91414819D01*
X59261547Y-91414819D02*
X59404404Y-91462438D01*
X59737738Y-91414819D02*
X59975833Y-92414819D01*
X59975833Y-92414819D02*
X60166309Y-91700533D01*
X60166309Y-91700533D02*
X60356785Y-92414819D01*
X60356785Y-92414819D02*
X60594881Y-91414819D01*
X60880595Y-91414819D02*
X61499642Y-91414819D01*
X61499642Y-91414819D02*
X61166309Y-91795771D01*
X61166309Y-91795771D02*
X61309166Y-91795771D01*
X61309166Y-91795771D02*
X61404404Y-91843390D01*
X61404404Y-91843390D02*
X61452023Y-91891009D01*
X61452023Y-91891009D02*
X61499642Y-91986247D01*
X61499642Y-91986247D02*
X61499642Y-92224342D01*
X61499642Y-92224342D02*
X61452023Y-92319580D01*
X61452023Y-92319580D02*
X61404404Y-92367200D01*
X61404404Y-92367200D02*
X61309166Y-92414819D01*
X61309166Y-92414819D02*
X61023452Y-92414819D01*
X61023452Y-92414819D02*
X60928214Y-92367200D01*
X60928214Y-92367200D02*
X60880595Y-92319580D01*
X62452023Y-92414819D02*
X61880595Y-92414819D01*
X62166309Y-92414819D02*
X62166309Y-91414819D01*
X62166309Y-91414819D02*
X62071071Y-91557676D01*
X62071071Y-91557676D02*
X61975833Y-91652914D01*
X61975833Y-91652914D02*
X61880595Y-91700533D01*
X197320476Y-108149700D02*
X197463333Y-108197319D01*
X197463333Y-108197319D02*
X197701428Y-108197319D01*
X197701428Y-108197319D02*
X197796666Y-108149700D01*
X197796666Y-108149700D02*
X197844285Y-108102080D01*
X197844285Y-108102080D02*
X197891904Y-108006842D01*
X197891904Y-108006842D02*
X197891904Y-107911604D01*
X197891904Y-107911604D02*
X197844285Y-107816366D01*
X197844285Y-107816366D02*
X197796666Y-107768747D01*
X197796666Y-107768747D02*
X197701428Y-107721128D01*
X197701428Y-107721128D02*
X197510952Y-107673509D01*
X197510952Y-107673509D02*
X197415714Y-107625890D01*
X197415714Y-107625890D02*
X197368095Y-107578271D01*
X197368095Y-107578271D02*
X197320476Y-107483033D01*
X197320476Y-107483033D02*
X197320476Y-107387795D01*
X197320476Y-107387795D02*
X197368095Y-107292557D01*
X197368095Y-107292557D02*
X197415714Y-107244938D01*
X197415714Y-107244938D02*
X197510952Y-107197319D01*
X197510952Y-107197319D02*
X197749047Y-107197319D01*
X197749047Y-107197319D02*
X197891904Y-107244938D01*
X198225238Y-107197319D02*
X198463333Y-108197319D01*
X198463333Y-108197319D02*
X198653809Y-107483033D01*
X198653809Y-107483033D02*
X198844285Y-108197319D01*
X198844285Y-108197319D02*
X199082381Y-107197319D01*
X199415714Y-107292557D02*
X199463333Y-107244938D01*
X199463333Y-107244938D02*
X199558571Y-107197319D01*
X199558571Y-107197319D02*
X199796666Y-107197319D01*
X199796666Y-107197319D02*
X199891904Y-107244938D01*
X199891904Y-107244938D02*
X199939523Y-107292557D01*
X199939523Y-107292557D02*
X199987142Y-107387795D01*
X199987142Y-107387795D02*
X199987142Y-107483033D01*
X199987142Y-107483033D02*
X199939523Y-107625890D01*
X199939523Y-107625890D02*
X199368095Y-108197319D01*
X199368095Y-108197319D02*
X199987142Y-108197319D01*
X200939523Y-108197319D02*
X200368095Y-108197319D01*
X200653809Y-108197319D02*
X200653809Y-107197319D01*
X200653809Y-107197319D02*
X200558571Y-107340176D01*
X200558571Y-107340176D02*
X200463333Y-107435414D01*
X200463333Y-107435414D02*
X200368095Y-107483033D01*
X97010476Y-108157200D02*
X97153333Y-108204819D01*
X97153333Y-108204819D02*
X97391428Y-108204819D01*
X97391428Y-108204819D02*
X97486666Y-108157200D01*
X97486666Y-108157200D02*
X97534285Y-108109580D01*
X97534285Y-108109580D02*
X97581904Y-108014342D01*
X97581904Y-108014342D02*
X97581904Y-107919104D01*
X97581904Y-107919104D02*
X97534285Y-107823866D01*
X97534285Y-107823866D02*
X97486666Y-107776247D01*
X97486666Y-107776247D02*
X97391428Y-107728628D01*
X97391428Y-107728628D02*
X97200952Y-107681009D01*
X97200952Y-107681009D02*
X97105714Y-107633390D01*
X97105714Y-107633390D02*
X97058095Y-107585771D01*
X97058095Y-107585771D02*
X97010476Y-107490533D01*
X97010476Y-107490533D02*
X97010476Y-107395295D01*
X97010476Y-107395295D02*
X97058095Y-107300057D01*
X97058095Y-107300057D02*
X97105714Y-107252438D01*
X97105714Y-107252438D02*
X97200952Y-107204819D01*
X97200952Y-107204819D02*
X97439047Y-107204819D01*
X97439047Y-107204819D02*
X97581904Y-107252438D01*
X97915238Y-107204819D02*
X98153333Y-108204819D01*
X98153333Y-108204819D02*
X98343809Y-107490533D01*
X98343809Y-107490533D02*
X98534285Y-108204819D01*
X98534285Y-108204819D02*
X98772381Y-107204819D01*
X99581904Y-107538152D02*
X99581904Y-108204819D01*
X99343809Y-107157200D02*
X99105714Y-107871485D01*
X99105714Y-107871485D02*
X99724761Y-107871485D01*
X100296190Y-107204819D02*
X100391428Y-107204819D01*
X100391428Y-107204819D02*
X100486666Y-107252438D01*
X100486666Y-107252438D02*
X100534285Y-107300057D01*
X100534285Y-107300057D02*
X100581904Y-107395295D01*
X100581904Y-107395295D02*
X100629523Y-107585771D01*
X100629523Y-107585771D02*
X100629523Y-107823866D01*
X100629523Y-107823866D02*
X100581904Y-108014342D01*
X100581904Y-108014342D02*
X100534285Y-108109580D01*
X100534285Y-108109580D02*
X100486666Y-108157200D01*
X100486666Y-108157200D02*
X100391428Y-108204819D01*
X100391428Y-108204819D02*
X100296190Y-108204819D01*
X100296190Y-108204819D02*
X100200952Y-108157200D01*
X100200952Y-108157200D02*
X100153333Y-108109580D01*
X100153333Y-108109580D02*
X100105714Y-108014342D01*
X100105714Y-108014342D02*
X100058095Y-107823866D01*
X100058095Y-107823866D02*
X100058095Y-107585771D01*
X100058095Y-107585771D02*
X100105714Y-107395295D01*
X100105714Y-107395295D02*
X100153333Y-107300057D01*
X100153333Y-107300057D02*
X100200952Y-107252438D01*
X100200952Y-107252438D02*
X100296190Y-107204819D01*
X216370476Y-86718450D02*
X216513333Y-86766069D01*
X216513333Y-86766069D02*
X216751428Y-86766069D01*
X216751428Y-86766069D02*
X216846666Y-86718450D01*
X216846666Y-86718450D02*
X216894285Y-86670830D01*
X216894285Y-86670830D02*
X216941904Y-86575592D01*
X216941904Y-86575592D02*
X216941904Y-86480354D01*
X216941904Y-86480354D02*
X216894285Y-86385116D01*
X216894285Y-86385116D02*
X216846666Y-86337497D01*
X216846666Y-86337497D02*
X216751428Y-86289878D01*
X216751428Y-86289878D02*
X216560952Y-86242259D01*
X216560952Y-86242259D02*
X216465714Y-86194640D01*
X216465714Y-86194640D02*
X216418095Y-86147021D01*
X216418095Y-86147021D02*
X216370476Y-86051783D01*
X216370476Y-86051783D02*
X216370476Y-85956545D01*
X216370476Y-85956545D02*
X216418095Y-85861307D01*
X216418095Y-85861307D02*
X216465714Y-85813688D01*
X216465714Y-85813688D02*
X216560952Y-85766069D01*
X216560952Y-85766069D02*
X216799047Y-85766069D01*
X216799047Y-85766069D02*
X216941904Y-85813688D01*
X217275238Y-85766069D02*
X217513333Y-86766069D01*
X217513333Y-86766069D02*
X217703809Y-86051783D01*
X217703809Y-86051783D02*
X217894285Y-86766069D01*
X217894285Y-86766069D02*
X218132381Y-85766069D01*
X219037142Y-86766069D02*
X218465714Y-86766069D01*
X218751428Y-86766069D02*
X218751428Y-85766069D01*
X218751428Y-85766069D02*
X218656190Y-85908926D01*
X218656190Y-85908926D02*
X218560952Y-86004164D01*
X218560952Y-86004164D02*
X218465714Y-86051783D01*
X219894285Y-85766069D02*
X219703809Y-85766069D01*
X219703809Y-85766069D02*
X219608571Y-85813688D01*
X219608571Y-85813688D02*
X219560952Y-85861307D01*
X219560952Y-85861307D02*
X219465714Y-86004164D01*
X219465714Y-86004164D02*
X219418095Y-86194640D01*
X219418095Y-86194640D02*
X219418095Y-86575592D01*
X219418095Y-86575592D02*
X219465714Y-86670830D01*
X219465714Y-86670830D02*
X219513333Y-86718450D01*
X219513333Y-86718450D02*
X219608571Y-86766069D01*
X219608571Y-86766069D02*
X219799047Y-86766069D01*
X219799047Y-86766069D02*
X219894285Y-86718450D01*
X219894285Y-86718450D02*
X219941904Y-86670830D01*
X219941904Y-86670830D02*
X219989523Y-86575592D01*
X219989523Y-86575592D02*
X219989523Y-86337497D01*
X219989523Y-86337497D02*
X219941904Y-86242259D01*
X219941904Y-86242259D02*
X219894285Y-86194640D01*
X219894285Y-86194640D02*
X219799047Y-86147021D01*
X219799047Y-86147021D02*
X219608571Y-86147021D01*
X219608571Y-86147021D02*
X219513333Y-86194640D01*
X219513333Y-86194640D02*
X219465714Y-86242259D01*
X219465714Y-86242259D02*
X219418095Y-86337497D01*
X97072976Y-50889700D02*
X97215833Y-50937319D01*
X97215833Y-50937319D02*
X97453928Y-50937319D01*
X97453928Y-50937319D02*
X97549166Y-50889700D01*
X97549166Y-50889700D02*
X97596785Y-50842080D01*
X97596785Y-50842080D02*
X97644404Y-50746842D01*
X97644404Y-50746842D02*
X97644404Y-50651604D01*
X97644404Y-50651604D02*
X97596785Y-50556366D01*
X97596785Y-50556366D02*
X97549166Y-50508747D01*
X97549166Y-50508747D02*
X97453928Y-50461128D01*
X97453928Y-50461128D02*
X97263452Y-50413509D01*
X97263452Y-50413509D02*
X97168214Y-50365890D01*
X97168214Y-50365890D02*
X97120595Y-50318271D01*
X97120595Y-50318271D02*
X97072976Y-50223033D01*
X97072976Y-50223033D02*
X97072976Y-50127795D01*
X97072976Y-50127795D02*
X97120595Y-50032557D01*
X97120595Y-50032557D02*
X97168214Y-49984938D01*
X97168214Y-49984938D02*
X97263452Y-49937319D01*
X97263452Y-49937319D02*
X97501547Y-49937319D01*
X97501547Y-49937319D02*
X97644404Y-49984938D01*
X97977738Y-49937319D02*
X98215833Y-50937319D01*
X98215833Y-50937319D02*
X98406309Y-50223033D01*
X98406309Y-50223033D02*
X98596785Y-50937319D01*
X98596785Y-50937319D02*
X98834881Y-49937319D01*
X99120595Y-49937319D02*
X99739642Y-49937319D01*
X99739642Y-49937319D02*
X99406309Y-50318271D01*
X99406309Y-50318271D02*
X99549166Y-50318271D01*
X99549166Y-50318271D02*
X99644404Y-50365890D01*
X99644404Y-50365890D02*
X99692023Y-50413509D01*
X99692023Y-50413509D02*
X99739642Y-50508747D01*
X99739642Y-50508747D02*
X99739642Y-50746842D01*
X99739642Y-50746842D02*
X99692023Y-50842080D01*
X99692023Y-50842080D02*
X99644404Y-50889700D01*
X99644404Y-50889700D02*
X99549166Y-50937319D01*
X99549166Y-50937319D02*
X99263452Y-50937319D01*
X99263452Y-50937319D02*
X99168214Y-50889700D01*
X99168214Y-50889700D02*
X99120595Y-50842080D01*
X100072976Y-49937319D02*
X100739642Y-49937319D01*
X100739642Y-49937319D02*
X100311071Y-50937319D01*
X178270476Y-93862200D02*
X178413333Y-93909819D01*
X178413333Y-93909819D02*
X178651428Y-93909819D01*
X178651428Y-93909819D02*
X178746666Y-93862200D01*
X178746666Y-93862200D02*
X178794285Y-93814580D01*
X178794285Y-93814580D02*
X178841904Y-93719342D01*
X178841904Y-93719342D02*
X178841904Y-93624104D01*
X178841904Y-93624104D02*
X178794285Y-93528866D01*
X178794285Y-93528866D02*
X178746666Y-93481247D01*
X178746666Y-93481247D02*
X178651428Y-93433628D01*
X178651428Y-93433628D02*
X178460952Y-93386009D01*
X178460952Y-93386009D02*
X178365714Y-93338390D01*
X178365714Y-93338390D02*
X178318095Y-93290771D01*
X178318095Y-93290771D02*
X178270476Y-93195533D01*
X178270476Y-93195533D02*
X178270476Y-93100295D01*
X178270476Y-93100295D02*
X178318095Y-93005057D01*
X178318095Y-93005057D02*
X178365714Y-92957438D01*
X178365714Y-92957438D02*
X178460952Y-92909819D01*
X178460952Y-92909819D02*
X178699047Y-92909819D01*
X178699047Y-92909819D02*
X178841904Y-92957438D01*
X179175238Y-92909819D02*
X179413333Y-93909819D01*
X179413333Y-93909819D02*
X179603809Y-93195533D01*
X179603809Y-93195533D02*
X179794285Y-93909819D01*
X179794285Y-93909819D02*
X180032381Y-92909819D01*
X180937142Y-93909819D02*
X180365714Y-93909819D01*
X180651428Y-93909819D02*
X180651428Y-92909819D01*
X180651428Y-92909819D02*
X180556190Y-93052676D01*
X180556190Y-93052676D02*
X180460952Y-93147914D01*
X180460952Y-93147914D02*
X180365714Y-93195533D01*
X181794285Y-93243152D02*
X181794285Y-93909819D01*
X181556190Y-92862200D02*
X181318095Y-93576485D01*
X181318095Y-93576485D02*
X181937142Y-93576485D01*
X58942976Y-54062200D02*
X59085833Y-54109819D01*
X59085833Y-54109819D02*
X59323928Y-54109819D01*
X59323928Y-54109819D02*
X59419166Y-54062200D01*
X59419166Y-54062200D02*
X59466785Y-54014580D01*
X59466785Y-54014580D02*
X59514404Y-53919342D01*
X59514404Y-53919342D02*
X59514404Y-53824104D01*
X59514404Y-53824104D02*
X59466785Y-53728866D01*
X59466785Y-53728866D02*
X59419166Y-53681247D01*
X59419166Y-53681247D02*
X59323928Y-53633628D01*
X59323928Y-53633628D02*
X59133452Y-53586009D01*
X59133452Y-53586009D02*
X59038214Y-53538390D01*
X59038214Y-53538390D02*
X58990595Y-53490771D01*
X58990595Y-53490771D02*
X58942976Y-53395533D01*
X58942976Y-53395533D02*
X58942976Y-53300295D01*
X58942976Y-53300295D02*
X58990595Y-53205057D01*
X58990595Y-53205057D02*
X59038214Y-53157438D01*
X59038214Y-53157438D02*
X59133452Y-53109819D01*
X59133452Y-53109819D02*
X59371547Y-53109819D01*
X59371547Y-53109819D02*
X59514404Y-53157438D01*
X59847738Y-53109819D02*
X60085833Y-54109819D01*
X60085833Y-54109819D02*
X60276309Y-53395533D01*
X60276309Y-53395533D02*
X60466785Y-54109819D01*
X60466785Y-54109819D02*
X60704881Y-53109819D01*
X61038214Y-53205057D02*
X61085833Y-53157438D01*
X61085833Y-53157438D02*
X61181071Y-53109819D01*
X61181071Y-53109819D02*
X61419166Y-53109819D01*
X61419166Y-53109819D02*
X61514404Y-53157438D01*
X61514404Y-53157438D02*
X61562023Y-53205057D01*
X61562023Y-53205057D02*
X61609642Y-53300295D01*
X61609642Y-53300295D02*
X61609642Y-53395533D01*
X61609642Y-53395533D02*
X61562023Y-53538390D01*
X61562023Y-53538390D02*
X60990595Y-54109819D01*
X60990595Y-54109819D02*
X61609642Y-54109819D01*
X62085833Y-54109819D02*
X62276309Y-54109819D01*
X62276309Y-54109819D02*
X62371547Y-54062200D01*
X62371547Y-54062200D02*
X62419166Y-54014580D01*
X62419166Y-54014580D02*
X62514404Y-53871723D01*
X62514404Y-53871723D02*
X62562023Y-53681247D01*
X62562023Y-53681247D02*
X62562023Y-53300295D01*
X62562023Y-53300295D02*
X62514404Y-53205057D01*
X62514404Y-53205057D02*
X62466785Y-53157438D01*
X62466785Y-53157438D02*
X62371547Y-53109819D01*
X62371547Y-53109819D02*
X62181071Y-53109819D01*
X62181071Y-53109819D02*
X62085833Y-53157438D01*
X62085833Y-53157438D02*
X62038214Y-53205057D01*
X62038214Y-53205057D02*
X61990595Y-53300295D01*
X61990595Y-53300295D02*
X61990595Y-53538390D01*
X61990595Y-53538390D02*
X62038214Y-53633628D01*
X62038214Y-53633628D02*
X62085833Y-53681247D01*
X62085833Y-53681247D02*
X62181071Y-53728866D01*
X62181071Y-53728866D02*
X62371547Y-53728866D01*
X62371547Y-53728866D02*
X62466785Y-53681247D01*
X62466785Y-53681247D02*
X62514404Y-53633628D01*
X62514404Y-53633628D02*
X62562023Y-53538390D01*
X216370476Y-67668450D02*
X216513333Y-67716069D01*
X216513333Y-67716069D02*
X216751428Y-67716069D01*
X216751428Y-67716069D02*
X216846666Y-67668450D01*
X216846666Y-67668450D02*
X216894285Y-67620830D01*
X216894285Y-67620830D02*
X216941904Y-67525592D01*
X216941904Y-67525592D02*
X216941904Y-67430354D01*
X216941904Y-67430354D02*
X216894285Y-67335116D01*
X216894285Y-67335116D02*
X216846666Y-67287497D01*
X216846666Y-67287497D02*
X216751428Y-67239878D01*
X216751428Y-67239878D02*
X216560952Y-67192259D01*
X216560952Y-67192259D02*
X216465714Y-67144640D01*
X216465714Y-67144640D02*
X216418095Y-67097021D01*
X216418095Y-67097021D02*
X216370476Y-67001783D01*
X216370476Y-67001783D02*
X216370476Y-66906545D01*
X216370476Y-66906545D02*
X216418095Y-66811307D01*
X216418095Y-66811307D02*
X216465714Y-66763688D01*
X216465714Y-66763688D02*
X216560952Y-66716069D01*
X216560952Y-66716069D02*
X216799047Y-66716069D01*
X216799047Y-66716069D02*
X216941904Y-66763688D01*
X217275238Y-66716069D02*
X217513333Y-67716069D01*
X217513333Y-67716069D02*
X217703809Y-67001783D01*
X217703809Y-67001783D02*
X217894285Y-67716069D01*
X217894285Y-67716069D02*
X218132381Y-66716069D01*
X219037142Y-67716069D02*
X218465714Y-67716069D01*
X218751428Y-67716069D02*
X218751428Y-66716069D01*
X218751428Y-66716069D02*
X218656190Y-66858926D01*
X218656190Y-66858926D02*
X218560952Y-66954164D01*
X218560952Y-66954164D02*
X218465714Y-67001783D01*
X219656190Y-66716069D02*
X219751428Y-66716069D01*
X219751428Y-66716069D02*
X219846666Y-66763688D01*
X219846666Y-66763688D02*
X219894285Y-66811307D01*
X219894285Y-66811307D02*
X219941904Y-66906545D01*
X219941904Y-66906545D02*
X219989523Y-67097021D01*
X219989523Y-67097021D02*
X219989523Y-67335116D01*
X219989523Y-67335116D02*
X219941904Y-67525592D01*
X219941904Y-67525592D02*
X219894285Y-67620830D01*
X219894285Y-67620830D02*
X219846666Y-67668450D01*
X219846666Y-67668450D02*
X219751428Y-67716069D01*
X219751428Y-67716069D02*
X219656190Y-67716069D01*
X219656190Y-67716069D02*
X219560952Y-67668450D01*
X219560952Y-67668450D02*
X219513333Y-67620830D01*
X219513333Y-67620830D02*
X219465714Y-67525592D01*
X219465714Y-67525592D02*
X219418095Y-67335116D01*
X219418095Y-67335116D02*
X219418095Y-67097021D01*
X219418095Y-67097021D02*
X219465714Y-66906545D01*
X219465714Y-66906545D02*
X219513333Y-66811307D01*
X219513333Y-66811307D02*
X219560952Y-66763688D01*
X219560952Y-66763688D02*
X219656190Y-66716069D01*
X58932976Y-111357200D02*
X59075833Y-111404819D01*
X59075833Y-111404819D02*
X59313928Y-111404819D01*
X59313928Y-111404819D02*
X59409166Y-111357200D01*
X59409166Y-111357200D02*
X59456785Y-111309580D01*
X59456785Y-111309580D02*
X59504404Y-111214342D01*
X59504404Y-111214342D02*
X59504404Y-111119104D01*
X59504404Y-111119104D02*
X59456785Y-111023866D01*
X59456785Y-111023866D02*
X59409166Y-110976247D01*
X59409166Y-110976247D02*
X59313928Y-110928628D01*
X59313928Y-110928628D02*
X59123452Y-110881009D01*
X59123452Y-110881009D02*
X59028214Y-110833390D01*
X59028214Y-110833390D02*
X58980595Y-110785771D01*
X58980595Y-110785771D02*
X58932976Y-110690533D01*
X58932976Y-110690533D02*
X58932976Y-110595295D01*
X58932976Y-110595295D02*
X58980595Y-110500057D01*
X58980595Y-110500057D02*
X59028214Y-110452438D01*
X59028214Y-110452438D02*
X59123452Y-110404819D01*
X59123452Y-110404819D02*
X59361547Y-110404819D01*
X59361547Y-110404819D02*
X59504404Y-110452438D01*
X59837738Y-110404819D02*
X60075833Y-111404819D01*
X60075833Y-111404819D02*
X60266309Y-110690533D01*
X60266309Y-110690533D02*
X60456785Y-111404819D01*
X60456785Y-111404819D02*
X60694881Y-110404819D01*
X60980595Y-110404819D02*
X61599642Y-110404819D01*
X61599642Y-110404819D02*
X61266309Y-110785771D01*
X61266309Y-110785771D02*
X61409166Y-110785771D01*
X61409166Y-110785771D02*
X61504404Y-110833390D01*
X61504404Y-110833390D02*
X61552023Y-110881009D01*
X61552023Y-110881009D02*
X61599642Y-110976247D01*
X61599642Y-110976247D02*
X61599642Y-111214342D01*
X61599642Y-111214342D02*
X61552023Y-111309580D01*
X61552023Y-111309580D02*
X61504404Y-111357200D01*
X61504404Y-111357200D02*
X61409166Y-111404819D01*
X61409166Y-111404819D02*
X61123452Y-111404819D01*
X61123452Y-111404819D02*
X61028214Y-111357200D01*
X61028214Y-111357200D02*
X60980595Y-111309580D01*
X61980595Y-110500057D02*
X62028214Y-110452438D01*
X62028214Y-110452438D02*
X62123452Y-110404819D01*
X62123452Y-110404819D02*
X62361547Y-110404819D01*
X62361547Y-110404819D02*
X62456785Y-110452438D01*
X62456785Y-110452438D02*
X62504404Y-110500057D01*
X62504404Y-110500057D02*
X62552023Y-110595295D01*
X62552023Y-110595295D02*
X62552023Y-110690533D01*
X62552023Y-110690533D02*
X62504404Y-110833390D01*
X62504404Y-110833390D02*
X61932976Y-111404819D01*
X61932976Y-111404819D02*
X62552023Y-111404819D01*
X197796667Y-50999700D02*
X197939524Y-51047319D01*
X197939524Y-51047319D02*
X198177619Y-51047319D01*
X198177619Y-51047319D02*
X198272857Y-50999700D01*
X198272857Y-50999700D02*
X198320476Y-50952080D01*
X198320476Y-50952080D02*
X198368095Y-50856842D01*
X198368095Y-50856842D02*
X198368095Y-50761604D01*
X198368095Y-50761604D02*
X198320476Y-50666366D01*
X198320476Y-50666366D02*
X198272857Y-50618747D01*
X198272857Y-50618747D02*
X198177619Y-50571128D01*
X198177619Y-50571128D02*
X197987143Y-50523509D01*
X197987143Y-50523509D02*
X197891905Y-50475890D01*
X197891905Y-50475890D02*
X197844286Y-50428271D01*
X197844286Y-50428271D02*
X197796667Y-50333033D01*
X197796667Y-50333033D02*
X197796667Y-50237795D01*
X197796667Y-50237795D02*
X197844286Y-50142557D01*
X197844286Y-50142557D02*
X197891905Y-50094938D01*
X197891905Y-50094938D02*
X197987143Y-50047319D01*
X197987143Y-50047319D02*
X198225238Y-50047319D01*
X198225238Y-50047319D02*
X198368095Y-50094938D01*
X198701429Y-50047319D02*
X198939524Y-51047319D01*
X198939524Y-51047319D02*
X199130000Y-50333033D01*
X199130000Y-50333033D02*
X199320476Y-51047319D01*
X199320476Y-51047319D02*
X199558572Y-50047319D01*
X199844286Y-50047319D02*
X200463333Y-50047319D01*
X200463333Y-50047319D02*
X200130000Y-50428271D01*
X200130000Y-50428271D02*
X200272857Y-50428271D01*
X200272857Y-50428271D02*
X200368095Y-50475890D01*
X200368095Y-50475890D02*
X200415714Y-50523509D01*
X200415714Y-50523509D02*
X200463333Y-50618747D01*
X200463333Y-50618747D02*
X200463333Y-50856842D01*
X200463333Y-50856842D02*
X200415714Y-50952080D01*
X200415714Y-50952080D02*
X200368095Y-50999700D01*
X200368095Y-50999700D02*
X200272857Y-51047319D01*
X200272857Y-51047319D02*
X199987143Y-51047319D01*
X199987143Y-51047319D02*
X199891905Y-50999700D01*
X199891905Y-50999700D02*
X199844286Y-50952080D01*
X77895476Y-67518450D02*
X78038333Y-67566069D01*
X78038333Y-67566069D02*
X78276428Y-67566069D01*
X78276428Y-67566069D02*
X78371666Y-67518450D01*
X78371666Y-67518450D02*
X78419285Y-67470830D01*
X78419285Y-67470830D02*
X78466904Y-67375592D01*
X78466904Y-67375592D02*
X78466904Y-67280354D01*
X78466904Y-67280354D02*
X78419285Y-67185116D01*
X78419285Y-67185116D02*
X78371666Y-67137497D01*
X78371666Y-67137497D02*
X78276428Y-67089878D01*
X78276428Y-67089878D02*
X78085952Y-67042259D01*
X78085952Y-67042259D02*
X77990714Y-66994640D01*
X77990714Y-66994640D02*
X77943095Y-66947021D01*
X77943095Y-66947021D02*
X77895476Y-66851783D01*
X77895476Y-66851783D02*
X77895476Y-66756545D01*
X77895476Y-66756545D02*
X77943095Y-66661307D01*
X77943095Y-66661307D02*
X77990714Y-66613688D01*
X77990714Y-66613688D02*
X78085952Y-66566069D01*
X78085952Y-66566069D02*
X78324047Y-66566069D01*
X78324047Y-66566069D02*
X78466904Y-66613688D01*
X78800238Y-66566069D02*
X79038333Y-67566069D01*
X79038333Y-67566069D02*
X79228809Y-66851783D01*
X79228809Y-66851783D02*
X79419285Y-67566069D01*
X79419285Y-67566069D02*
X79657381Y-66566069D01*
X79943095Y-66566069D02*
X80562142Y-66566069D01*
X80562142Y-66566069D02*
X80228809Y-66947021D01*
X80228809Y-66947021D02*
X80371666Y-66947021D01*
X80371666Y-66947021D02*
X80466904Y-66994640D01*
X80466904Y-66994640D02*
X80514523Y-67042259D01*
X80514523Y-67042259D02*
X80562142Y-67137497D01*
X80562142Y-67137497D02*
X80562142Y-67375592D01*
X80562142Y-67375592D02*
X80514523Y-67470830D01*
X80514523Y-67470830D02*
X80466904Y-67518450D01*
X80466904Y-67518450D02*
X80371666Y-67566069D01*
X80371666Y-67566069D02*
X80085952Y-67566069D01*
X80085952Y-67566069D02*
X79990714Y-67518450D01*
X79990714Y-67518450D02*
X79943095Y-67470830D01*
X81419285Y-66899402D02*
X81419285Y-67566069D01*
X81181190Y-66518450D02*
X80943095Y-67232735D01*
X80943095Y-67232735D02*
X81562142Y-67232735D01*
X39892976Y-58827200D02*
X40035833Y-58874819D01*
X40035833Y-58874819D02*
X40273928Y-58874819D01*
X40273928Y-58874819D02*
X40369166Y-58827200D01*
X40369166Y-58827200D02*
X40416785Y-58779580D01*
X40416785Y-58779580D02*
X40464404Y-58684342D01*
X40464404Y-58684342D02*
X40464404Y-58589104D01*
X40464404Y-58589104D02*
X40416785Y-58493866D01*
X40416785Y-58493866D02*
X40369166Y-58446247D01*
X40369166Y-58446247D02*
X40273928Y-58398628D01*
X40273928Y-58398628D02*
X40083452Y-58351009D01*
X40083452Y-58351009D02*
X39988214Y-58303390D01*
X39988214Y-58303390D02*
X39940595Y-58255771D01*
X39940595Y-58255771D02*
X39892976Y-58160533D01*
X39892976Y-58160533D02*
X39892976Y-58065295D01*
X39892976Y-58065295D02*
X39940595Y-57970057D01*
X39940595Y-57970057D02*
X39988214Y-57922438D01*
X39988214Y-57922438D02*
X40083452Y-57874819D01*
X40083452Y-57874819D02*
X40321547Y-57874819D01*
X40321547Y-57874819D02*
X40464404Y-57922438D01*
X40797738Y-57874819D02*
X41035833Y-58874819D01*
X41035833Y-58874819D02*
X41226309Y-58160533D01*
X41226309Y-58160533D02*
X41416785Y-58874819D01*
X41416785Y-58874819D02*
X41654881Y-57874819D01*
X41988214Y-57970057D02*
X42035833Y-57922438D01*
X42035833Y-57922438D02*
X42131071Y-57874819D01*
X42131071Y-57874819D02*
X42369166Y-57874819D01*
X42369166Y-57874819D02*
X42464404Y-57922438D01*
X42464404Y-57922438D02*
X42512023Y-57970057D01*
X42512023Y-57970057D02*
X42559642Y-58065295D01*
X42559642Y-58065295D02*
X42559642Y-58160533D01*
X42559642Y-58160533D02*
X42512023Y-58303390D01*
X42512023Y-58303390D02*
X41940595Y-58874819D01*
X41940595Y-58874819D02*
X42559642Y-58874819D01*
X43464404Y-57874819D02*
X42988214Y-57874819D01*
X42988214Y-57874819D02*
X42940595Y-58351009D01*
X42940595Y-58351009D02*
X42988214Y-58303390D01*
X42988214Y-58303390D02*
X43083452Y-58255771D01*
X43083452Y-58255771D02*
X43321547Y-58255771D01*
X43321547Y-58255771D02*
X43416785Y-58303390D01*
X43416785Y-58303390D02*
X43464404Y-58351009D01*
X43464404Y-58351009D02*
X43512023Y-58446247D01*
X43512023Y-58446247D02*
X43512023Y-58684342D01*
X43512023Y-58684342D02*
X43464404Y-58779580D01*
X43464404Y-58779580D02*
X43416785Y-58827200D01*
X43416785Y-58827200D02*
X43321547Y-58874819D01*
X43321547Y-58874819D02*
X43083452Y-58874819D01*
X43083452Y-58874819D02*
X42988214Y-58827200D01*
X42988214Y-58827200D02*
X42940595Y-58779580D01*
X159220476Y-116087200D02*
X159363333Y-116134819D01*
X159363333Y-116134819D02*
X159601428Y-116134819D01*
X159601428Y-116134819D02*
X159696666Y-116087200D01*
X159696666Y-116087200D02*
X159744285Y-116039580D01*
X159744285Y-116039580D02*
X159791904Y-115944342D01*
X159791904Y-115944342D02*
X159791904Y-115849104D01*
X159791904Y-115849104D02*
X159744285Y-115753866D01*
X159744285Y-115753866D02*
X159696666Y-115706247D01*
X159696666Y-115706247D02*
X159601428Y-115658628D01*
X159601428Y-115658628D02*
X159410952Y-115611009D01*
X159410952Y-115611009D02*
X159315714Y-115563390D01*
X159315714Y-115563390D02*
X159268095Y-115515771D01*
X159268095Y-115515771D02*
X159220476Y-115420533D01*
X159220476Y-115420533D02*
X159220476Y-115325295D01*
X159220476Y-115325295D02*
X159268095Y-115230057D01*
X159268095Y-115230057D02*
X159315714Y-115182438D01*
X159315714Y-115182438D02*
X159410952Y-115134819D01*
X159410952Y-115134819D02*
X159649047Y-115134819D01*
X159649047Y-115134819D02*
X159791904Y-115182438D01*
X160125238Y-115134819D02*
X160363333Y-116134819D01*
X160363333Y-116134819D02*
X160553809Y-115420533D01*
X160553809Y-115420533D02*
X160744285Y-116134819D01*
X160744285Y-116134819D02*
X160982381Y-115134819D01*
X161887142Y-116134819D02*
X161315714Y-116134819D01*
X161601428Y-116134819D02*
X161601428Y-115134819D01*
X161601428Y-115134819D02*
X161506190Y-115277676D01*
X161506190Y-115277676D02*
X161410952Y-115372914D01*
X161410952Y-115372914D02*
X161315714Y-115420533D01*
X162363333Y-116134819D02*
X162553809Y-116134819D01*
X162553809Y-116134819D02*
X162649047Y-116087200D01*
X162649047Y-116087200D02*
X162696666Y-116039580D01*
X162696666Y-116039580D02*
X162791904Y-115896723D01*
X162791904Y-115896723D02*
X162839523Y-115706247D01*
X162839523Y-115706247D02*
X162839523Y-115325295D01*
X162839523Y-115325295D02*
X162791904Y-115230057D01*
X162791904Y-115230057D02*
X162744285Y-115182438D01*
X162744285Y-115182438D02*
X162649047Y-115134819D01*
X162649047Y-115134819D02*
X162458571Y-115134819D01*
X162458571Y-115134819D02*
X162363333Y-115182438D01*
X162363333Y-115182438D02*
X162315714Y-115230057D01*
X162315714Y-115230057D02*
X162268095Y-115325295D01*
X162268095Y-115325295D02*
X162268095Y-115563390D01*
X162268095Y-115563390D02*
X162315714Y-115658628D01*
X162315714Y-115658628D02*
X162363333Y-115706247D01*
X162363333Y-115706247D02*
X162458571Y-115753866D01*
X162458571Y-115753866D02*
X162649047Y-115753866D01*
X162649047Y-115753866D02*
X162744285Y-115706247D01*
X162744285Y-115706247D02*
X162791904Y-115658628D01*
X162791904Y-115658628D02*
X162839523Y-115563390D01*
D13*
%TO.C,SW17*%
X230130000Y-92777500D02*
X230130000Y-106977500D01*
X230130000Y-106977500D02*
X244330000Y-106977500D01*
X244330000Y-92777500D02*
X230130000Y-92777500D01*
X244330000Y-106977500D02*
X244330000Y-92777500D01*
%TO.C,SW30*%
X53540000Y-73565000D02*
X53540000Y-87765000D01*
X53540000Y-87765000D02*
X67740000Y-87765000D01*
X67740000Y-73565000D02*
X53540000Y-73565000D01*
X67740000Y-87765000D02*
X67740000Y-73565000D01*
%TO.C,SW38*%
X91670000Y-70392500D02*
X91670000Y-84592500D01*
X91670000Y-84592500D02*
X105870000Y-84592500D01*
X105870000Y-70392500D02*
X91670000Y-70392500D01*
X105870000Y-84592500D02*
X105870000Y-70392500D01*
%TO.C,SW12*%
X249180000Y-78480000D02*
X249180000Y-92680000D01*
X249180000Y-92680000D02*
X263380000Y-92680000D01*
X263380000Y-78480000D02*
X249180000Y-78480000D01*
X263380000Y-92680000D02*
X263380000Y-78480000D01*
%TO.C,SW33*%
X72722500Y-48993750D02*
X72722500Y-63193750D01*
X72722500Y-63193750D02*
X86922500Y-63193750D01*
X86922500Y-48993750D02*
X72722500Y-48993750D01*
X86922500Y-63193750D02*
X86922500Y-48993750D01*
%TO.C,SW23*%
X230130000Y-111817500D02*
X230130000Y-126017500D01*
X230130000Y-126017500D02*
X244330000Y-126017500D01*
X244330000Y-111817500D02*
X230130000Y-111817500D01*
X244330000Y-126017500D02*
X244330000Y-111817500D01*
D14*
%TO.C,U1*%
X267613750Y-131719000D02*
X267613750Y-114574000D01*
X269518750Y-133624000D02*
X283488750Y-133624000D01*
X272008750Y-112669000D02*
X272012478Y-111658728D01*
X272512478Y-111159000D02*
X280507750Y-111159000D01*
X281007750Y-111659000D02*
X281007750Y-112669000D01*
D15*
X283488750Y-112669000D02*
X269518750Y-112669000D01*
D14*
X283488750Y-112669000D02*
X269518750Y-112669000D01*
X285393750Y-131719000D02*
X285393750Y-114574000D01*
X267613750Y-114574000D02*
G75*
G02*
X269518750Y-112669000I1905001J-1D01*
G01*
X269518750Y-133624000D02*
G75*
G02*
X267613750Y-131719000I1J1905001D01*
G01*
X272012478Y-111658728D02*
G75*
G02*
X272512478Y-111159001I500018J-291D01*
G01*
X280507750Y-111159000D02*
G75*
G02*
X281007750Y-111659000I-100J-500100D01*
G01*
X283488750Y-112669000D02*
G75*
G02*
X285393750Y-114574000I0J-1905000D01*
G01*
X285393750Y-131719000D02*
G75*
G02*
X283488750Y-133624000I-1905000J0D01*
G01*
D16*
X267905750Y-112810000D02*
G75*
G02*
X267401750Y-112810000I-252000J0D01*
G01*
X267401750Y-112810000D02*
G75*
G02*
X267905750Y-112810000I252000J0D01*
G01*
X269048750Y-113690000D02*
G75*
G02*
X268544750Y-113690000I-252000J0D01*
G01*
X268544750Y-113690000D02*
G75*
G02*
X269048750Y-113690000I252000J0D01*
G01*
D13*
%TO.C,SW46*%
X129735000Y-78330000D02*
X129735000Y-92530000D01*
X129735000Y-92530000D02*
X143935000Y-92530000D01*
X143935000Y-78330000D02*
X129735000Y-78330000D01*
X143935000Y-92530000D02*
X143935000Y-78330000D01*
%TO.C,SW28*%
X34500000Y-116460000D02*
X34500000Y-130660000D01*
X34500000Y-130660000D02*
X48700000Y-130660000D01*
X48700000Y-116460000D02*
X34500000Y-116460000D01*
X48700000Y-130660000D02*
X48700000Y-116460000D01*
%TO.C,SW45*%
X129847500Y-59320000D02*
X129847500Y-73520000D01*
X129847500Y-73520000D02*
X144047500Y-73520000D01*
X144047500Y-59320000D02*
X129847500Y-59320000D01*
X144047500Y-73520000D02*
X144047500Y-59320000D01*
%TO.C,SW13*%
X153930000Y-97530000D02*
X153930000Y-111730000D01*
X153930000Y-111730000D02*
X168130000Y-111730000D01*
X168130000Y-97530000D02*
X153930000Y-97530000D01*
X168130000Y-111730000D02*
X168130000Y-97530000D01*
%TO.C,SW24*%
X249180000Y-116580000D02*
X249180000Y-130780000D01*
X249180000Y-130780000D02*
X263380000Y-130780000D01*
X263380000Y-116580000D02*
X249180000Y-116580000D01*
X263380000Y-130780000D02*
X263380000Y-116580000D01*
%TO.C,SW44*%
X110760000Y-113380000D02*
X110760000Y-127580000D01*
X110760000Y-127580000D02*
X124960000Y-127580000D01*
X124960000Y-113380000D02*
X110760000Y-113380000D01*
X124960000Y-127580000D02*
X124960000Y-113380000D01*
%TO.C,SW35*%
X72632500Y-87230000D02*
X72632500Y-101430000D01*
X72632500Y-101430000D02*
X86832500Y-101430000D01*
X86832500Y-87230000D02*
X72632500Y-87230000D01*
X86832500Y-101430000D02*
X86832500Y-87230000D01*
%TO.C,SW2*%
X172980000Y-56255000D02*
X172980000Y-70455000D01*
X172980000Y-70455000D02*
X187180000Y-70455000D01*
X187180000Y-56255000D02*
X172980000Y-56255000D01*
X187180000Y-70455000D02*
X187180000Y-56255000D01*
%TO.C,SW42*%
X110685000Y-75155000D02*
X110685000Y-89355000D01*
X110685000Y-89355000D02*
X124885000Y-89355000D01*
X124885000Y-75155000D02*
X110685000Y-75155000D01*
X124885000Y-89355000D02*
X124885000Y-75155000D01*
%TO.C,SW20*%
X172980000Y-113405000D02*
X172980000Y-127605000D01*
X172980000Y-127605000D02*
X187180000Y-127605000D01*
X187180000Y-113405000D02*
X172980000Y-113405000D01*
X187180000Y-127605000D02*
X187180000Y-113405000D01*
%TO.C,SW22*%
X211080000Y-106261250D02*
X211080000Y-120461250D01*
X211080000Y-120461250D02*
X225280000Y-120461250D01*
X225280000Y-106261250D02*
X211080000Y-106261250D01*
X225280000Y-120461250D02*
X225280000Y-106261250D01*
%TO.C,SW43*%
X110732500Y-94270000D02*
X110732500Y-108470000D01*
X110732500Y-108470000D02*
X124932500Y-108470000D01*
X124932500Y-94270000D02*
X110732500Y-94270000D01*
X124932500Y-108470000D02*
X124932500Y-94270000D01*
%TO.C,SW11*%
X230130000Y-73717500D02*
X230130000Y-87917500D01*
X230130000Y-87917500D02*
X244330000Y-87917500D01*
X244330000Y-73717500D02*
X230130000Y-73717500D01*
X244330000Y-87917500D02*
X244330000Y-73717500D01*
%TO.C,SW4*%
X211080000Y-49111250D02*
X211080000Y-63311250D01*
X211080000Y-63311250D02*
X225280000Y-63311250D01*
X225280000Y-49111250D02*
X211080000Y-49111250D01*
X225280000Y-63311250D02*
X225280000Y-49111250D01*
%TO.C,SW47*%
X129790000Y-97510000D02*
X129790000Y-111710000D01*
X129790000Y-111710000D02*
X143990000Y-111710000D01*
X143990000Y-97510000D02*
X129790000Y-97510000D01*
X143990000Y-111710000D02*
X143990000Y-97510000D01*
%TO.C,SW36*%
X72500000Y-106250000D02*
X72500000Y-120450000D01*
X72500000Y-120450000D02*
X86700000Y-120450000D01*
X86700000Y-106250000D02*
X72500000Y-106250000D01*
X86700000Y-120450000D02*
X86700000Y-106250000D01*
%TO.C,SW9*%
X192030000Y-70542500D02*
X192030000Y-84742500D01*
X192030000Y-84742500D02*
X206230000Y-84742500D01*
X206230000Y-70542500D02*
X192030000Y-70542500D01*
X206230000Y-84742500D02*
X206230000Y-70542500D01*
%TO.C,SW41*%
X110797500Y-56145000D02*
X110797500Y-70345000D01*
X110797500Y-70345000D02*
X124997500Y-70345000D01*
X124997500Y-56145000D02*
X110797500Y-56145000D01*
X124997500Y-70345000D02*
X124997500Y-56145000D01*
%TO.C,SW26*%
X34490000Y-78330000D02*
X34490000Y-92530000D01*
X34490000Y-92530000D02*
X48690000Y-92530000D01*
X48690000Y-78330000D02*
X34490000Y-78330000D01*
X48690000Y-92530000D02*
X48690000Y-78330000D01*
%TO.C,SW39*%
X91612500Y-89570000D02*
X91612500Y-103770000D01*
X91612500Y-103770000D02*
X105812500Y-103770000D01*
X105812500Y-89570000D02*
X91612500Y-89570000D01*
X105812500Y-103770000D02*
X105812500Y-89570000D01*
%TO.C,SW48*%
X129690000Y-116440000D02*
X129690000Y-130640000D01*
X129690000Y-130640000D02*
X143890000Y-130640000D01*
X143890000Y-116440000D02*
X129690000Y-116440000D01*
X143890000Y-130640000D02*
X143890000Y-116440000D01*
%TO.C,SW18*%
X249180000Y-97530000D02*
X249180000Y-111730000D01*
X249180000Y-111730000D02*
X263380000Y-111730000D01*
X263380000Y-97530000D02*
X249180000Y-97530000D01*
X263380000Y-111730000D02*
X263380000Y-97530000D01*
%TO.C,SW6*%
X249180000Y-59430000D02*
X249180000Y-73630000D01*
X249180000Y-73630000D02*
X263380000Y-73630000D01*
X263380000Y-59430000D02*
X249180000Y-59430000D01*
X263380000Y-73630000D02*
X263380000Y-59430000D01*
D14*
%TO.C,U2*%
X11933750Y-131662750D02*
X11933750Y-114517750D01*
X13838750Y-133567750D02*
X27808750Y-133567750D01*
X16328750Y-112612750D02*
X16332478Y-111602478D01*
X16832478Y-111102750D02*
X24827750Y-111102750D01*
X25327750Y-111602750D02*
X25327750Y-112612750D01*
D15*
X27808750Y-112612750D02*
X13838750Y-112612750D01*
D14*
X27808750Y-112612750D02*
X13838750Y-112612750D01*
X29713750Y-131662750D02*
X29713750Y-114517750D01*
X11933750Y-114517750D02*
G75*
G02*
X13838750Y-112612750I1905001J-1D01*
G01*
X13838750Y-133567750D02*
G75*
G02*
X11933750Y-131662750I1J1905001D01*
G01*
X16332478Y-111602478D02*
G75*
G02*
X16832478Y-111102751I500018J-291D01*
G01*
X24827750Y-111102750D02*
G75*
G02*
X25327750Y-111602750I-100J-500100D01*
G01*
X27808750Y-112612750D02*
G75*
G02*
X29713750Y-114517750I0J-1905000D01*
G01*
X29713750Y-131662750D02*
G75*
G02*
X27808750Y-133567750I-1905000J0D01*
G01*
D16*
X12225750Y-112753750D02*
G75*
G02*
X11721750Y-112753750I-252000J0D01*
G01*
X11721750Y-112753750D02*
G75*
G02*
X12225750Y-112753750I252000J0D01*
G01*
X13368750Y-113633750D02*
G75*
G02*
X12864750Y-113633750I-252000J0D01*
G01*
X12864750Y-113633750D02*
G75*
G02*
X13368750Y-113633750I252000J0D01*
G01*
D13*
%TO.C,SW7*%
X153930000Y-78480000D02*
X153930000Y-92680000D01*
X153930000Y-92680000D02*
X168130000Y-92680000D01*
X168130000Y-78480000D02*
X153930000Y-78480000D01*
X168130000Y-92680000D02*
X168130000Y-78480000D01*
%TO.C,SW15*%
X192030000Y-89592500D02*
X192030000Y-103792500D01*
X192030000Y-103792500D02*
X206230000Y-103792500D01*
X206230000Y-89592500D02*
X192030000Y-89592500D01*
X206230000Y-103792500D02*
X206230000Y-89592500D01*
%TO.C,SW1*%
X153930000Y-59430000D02*
X153930000Y-73630000D01*
X153930000Y-73630000D02*
X168130000Y-73630000D01*
X168130000Y-59430000D02*
X153930000Y-59430000D01*
X168130000Y-73630000D02*
X168130000Y-59430000D01*
%TO.C,SW5*%
X230130000Y-54667500D02*
X230130000Y-68867500D01*
X230130000Y-68867500D02*
X244330000Y-68867500D01*
X244330000Y-54667500D02*
X230130000Y-54667500D01*
X244330000Y-68867500D02*
X244330000Y-54667500D01*
%TO.C,SW27*%
X34560000Y-97490000D02*
X34560000Y-111690000D01*
X34560000Y-111690000D02*
X48760000Y-111690000D01*
X48760000Y-97490000D02*
X34560000Y-97490000D01*
X48760000Y-111690000D02*
X48760000Y-97490000D01*
%TO.C,SW8*%
X172980000Y-75305000D02*
X172980000Y-89505000D01*
X172980000Y-89505000D02*
X187180000Y-89505000D01*
X187180000Y-75305000D02*
X172980000Y-75305000D01*
X187180000Y-89505000D02*
X187180000Y-75305000D01*
%TO.C,SW31*%
X53542500Y-92860000D02*
X53542500Y-107060000D01*
X53542500Y-107060000D02*
X67742500Y-107060000D01*
X67742500Y-92860000D02*
X53542500Y-92860000D01*
X67742500Y-107060000D02*
X67742500Y-92860000D01*
%TO.C,SW21*%
X192030000Y-108642500D02*
X192030000Y-122842500D01*
X192030000Y-122842500D02*
X206230000Y-122842500D01*
X206230000Y-108642500D02*
X192030000Y-108642500D01*
X206230000Y-122842500D02*
X206230000Y-108642500D01*
%TO.C,SW40*%
X91720000Y-108650000D02*
X91720000Y-122850000D01*
X91720000Y-122850000D02*
X105920000Y-122850000D01*
X105920000Y-108650000D02*
X91720000Y-108650000D01*
X105920000Y-122850000D02*
X105920000Y-108650000D01*
%TO.C,SW16*%
X211080000Y-87211250D02*
X211080000Y-101411250D01*
X211080000Y-101411250D02*
X225280000Y-101411250D01*
X225280000Y-87211250D02*
X211080000Y-87211250D01*
X225280000Y-101411250D02*
X225280000Y-87211250D01*
%TO.C,SW37*%
X91782500Y-51382500D02*
X91782500Y-65582500D01*
X91782500Y-65582500D02*
X105982500Y-65582500D01*
X105982500Y-51382500D02*
X91782500Y-51382500D01*
X105982500Y-65582500D02*
X105982500Y-51382500D01*
%TO.C,SW14*%
X172980000Y-94355000D02*
X172980000Y-108555000D01*
X172980000Y-108555000D02*
X187180000Y-108555000D01*
X187180000Y-94355000D02*
X172980000Y-94355000D01*
X187180000Y-108555000D02*
X187180000Y-94355000D01*
%TO.C,SW29*%
X53652500Y-54555000D02*
X53652500Y-68755000D01*
X53652500Y-68755000D02*
X67852500Y-68755000D01*
X67852500Y-54555000D02*
X53652500Y-54555000D01*
X67852500Y-68755000D02*
X67852500Y-54555000D01*
%TO.C,SW10*%
X211080000Y-68161250D02*
X211080000Y-82361250D01*
X211080000Y-82361250D02*
X225280000Y-82361250D01*
X225280000Y-68161250D02*
X211080000Y-68161250D01*
X225280000Y-82361250D02*
X225280000Y-68161250D01*
%TO.C,SW32*%
X53642500Y-111850000D02*
X53642500Y-126050000D01*
X53642500Y-126050000D02*
X67842500Y-126050000D01*
X67842500Y-111850000D02*
X53642500Y-111850000D01*
X67842500Y-126050000D02*
X67842500Y-111850000D01*
%TO.C,SW3*%
X192030000Y-51492500D02*
X192030000Y-65692500D01*
X192030000Y-65692500D02*
X206230000Y-65692500D01*
X206230000Y-51492500D02*
X192030000Y-51492500D01*
X206230000Y-65692500D02*
X206230000Y-51492500D01*
%TO.C,SW34*%
X72605000Y-68011250D02*
X72605000Y-82211250D01*
X72605000Y-82211250D02*
X86805000Y-82211250D01*
X86805000Y-68011250D02*
X72605000Y-68011250D01*
X86805000Y-82211250D02*
X86805000Y-68011250D01*
%TO.C,SW25*%
X34602500Y-59320000D02*
X34602500Y-73520000D01*
X34602500Y-73520000D02*
X48802500Y-73520000D01*
X48802500Y-59320000D02*
X34602500Y-59320000D01*
X48802500Y-73520000D02*
X48802500Y-59320000D01*
%TO.C,SW19*%
X153930000Y-116580000D02*
X153930000Y-130780000D01*
X153930000Y-130780000D02*
X168130000Y-130780000D01*
X168130000Y-116580000D02*
X153930000Y-116580000D01*
X168130000Y-130780000D02*
X168130000Y-116580000D01*
D17*
%TO.C,G\u002A\u002A\u002A*%
G36*
X23076209Y-120628514D02*
G01*
X23202772Y-120671269D01*
X23409871Y-120676621D01*
X23411773Y-120676467D01*
X23635399Y-120707323D01*
X23975532Y-120819539D01*
X24405519Y-121004037D01*
X24486992Y-121042587D01*
X24880500Y-121229213D01*
X25270524Y-121410841D01*
X25598775Y-121560469D01*
X25732615Y-121619665D01*
X25979242Y-121729870D01*
X26103408Y-121805334D01*
X26138233Y-121878156D01*
X26116841Y-121980436D01*
X26114132Y-121989401D01*
X25968512Y-122211107D01*
X25713128Y-122325667D01*
X25370623Y-122331483D01*
X24963649Y-122226957D01*
X24661423Y-122091926D01*
X24363799Y-121937007D01*
X24424782Y-122391858D01*
X24443234Y-122972575D01*
X24348413Y-123512344D01*
X24153439Y-123985675D01*
X23871436Y-124367080D01*
X23515525Y-124631068D01*
X23218718Y-124734563D01*
X22806720Y-124748275D01*
X22394122Y-124645028D01*
X22039953Y-124445257D01*
X21991294Y-124395756D01*
X21863013Y-124265250D01*
X21638639Y-123833519D01*
X21511412Y-123307964D01*
X21485668Y-122736397D01*
X21501318Y-122625041D01*
X22258875Y-122625041D01*
X22265974Y-122901500D01*
X22307977Y-123349261D01*
X22405532Y-123649415D01*
X22569391Y-123817658D01*
X22810306Y-123869685D01*
X22924176Y-123862262D01*
X23226212Y-123745399D01*
X23455634Y-123476893D01*
X23610859Y-123058817D01*
X23638359Y-122928619D01*
X23666472Y-122365813D01*
X23531178Y-121842499D01*
X23364761Y-121532868D01*
X23227320Y-121333723D01*
X23126483Y-121210813D01*
X23099644Y-121191710D01*
X23031220Y-121254096D01*
X22888956Y-121419601D01*
X22700432Y-121655750D01*
X22649859Y-121721298D01*
X22447109Y-121992546D01*
X22327847Y-122192127D01*
X22271845Y-122382230D01*
X22258875Y-122625041D01*
X21501318Y-122625041D01*
X21565743Y-122166627D01*
X21647929Y-121894311D01*
X21780592Y-121638666D01*
X21985143Y-121365340D01*
X22232727Y-121099907D01*
X22494488Y-120867940D01*
X22741568Y-120695011D01*
X22945112Y-120606697D01*
X23076209Y-120628514D01*
G37*
G36*
X29724736Y-113151233D02*
G01*
X29757356Y-113180725D01*
X29885668Y-113352399D01*
X29901299Y-113524530D01*
X29795872Y-113728361D01*
X29561011Y-113995131D01*
X29530769Y-114025783D01*
X29303201Y-114290737D01*
X29109546Y-114580807D01*
X28969032Y-114857955D01*
X28900882Y-115084144D01*
X28924325Y-115221337D01*
X28925731Y-115222782D01*
X28996267Y-115249137D01*
X29135671Y-115240733D01*
X29362311Y-115193034D01*
X29694550Y-115101505D01*
X30150756Y-114961612D01*
X30702254Y-114784174D01*
X31140677Y-114649622D01*
X31556654Y-114536966D01*
X31906036Y-114457204D01*
X32144674Y-114421328D01*
X32162339Y-114420531D01*
X32600653Y-114465587D01*
X32924495Y-114618555D01*
X33122003Y-114865797D01*
X33181315Y-115193672D01*
X33116843Y-115517989D01*
X32960741Y-115822071D01*
X32698289Y-116180422D01*
X32365365Y-116555416D01*
X31997844Y-116909425D01*
X31631604Y-117204821D01*
X31332168Y-117389745D01*
X30812552Y-117614266D01*
X30401057Y-117716013D01*
X30088887Y-117694705D01*
X29867243Y-117550060D01*
X29746769Y-117338929D01*
X29724241Y-117155636D01*
X29822951Y-117015442D01*
X30058403Y-116907340D01*
X30446103Y-116820326D01*
X30487065Y-116813469D01*
X30702246Y-116771958D01*
X30873906Y-116713173D01*
X31041985Y-116612580D01*
X31246425Y-116445641D01*
X31527166Y-116187818D01*
X31568206Y-116149301D01*
X31920241Y-115802959D01*
X32145959Y-115540487D01*
X32241537Y-115360104D01*
X32203153Y-115260034D01*
X32026983Y-115238499D01*
X31709205Y-115293720D01*
X31245997Y-115423920D01*
X30633537Y-115627321D01*
X30526482Y-115664765D01*
X29817315Y-115903121D01*
X29245529Y-116068016D01*
X28796214Y-116160029D01*
X28454462Y-116179739D01*
X28205366Y-116127725D01*
X28034016Y-116004567D01*
X27925504Y-115810843D01*
X27910846Y-115766389D01*
X27899123Y-115511088D01*
X27970030Y-115156589D01*
X28107451Y-114741258D01*
X28295276Y-114303459D01*
X28517389Y-113881557D01*
X28757676Y-113513919D01*
X28953967Y-113282851D01*
X29217788Y-113102451D01*
X29488922Y-113056772D01*
X29724736Y-113151233D01*
G37*
G36*
X27281444Y-117064122D02*
G01*
X27799688Y-117150266D01*
X28234908Y-117352423D01*
X28618865Y-117670528D01*
X28873992Y-118033312D01*
X28977443Y-118447416D01*
X28931865Y-118894458D01*
X28739905Y-119356054D01*
X28404210Y-119813821D01*
X28293571Y-119930086D01*
X28037978Y-120145591D01*
X27773330Y-120260811D01*
X27584736Y-120299672D01*
X27298696Y-120334387D01*
X27051804Y-120346799D01*
X26982344Y-120343863D01*
X26904879Y-120345862D01*
X26889172Y-120385897D01*
X26948162Y-120484218D01*
X27094792Y-120661074D01*
X27342003Y-120936713D01*
X27406408Y-121007400D01*
X27851212Y-121476332D01*
X28231060Y-121830187D01*
X28577237Y-122093217D01*
X28921027Y-122289672D01*
X29229267Y-122420397D01*
X29504443Y-122528514D01*
X29659981Y-122614437D01*
X29736880Y-122709546D01*
X29774599Y-122837772D01*
X29766280Y-123082602D01*
X29622084Y-123228728D01*
X29346228Y-123272557D01*
X29269041Y-123268179D01*
X28961099Y-123182957D01*
X28569885Y-122984018D01*
X28118221Y-122689622D01*
X27628924Y-122318035D01*
X27124812Y-121887518D01*
X26628704Y-121416334D01*
X26163420Y-120922746D01*
X25808959Y-120498909D01*
X25475750Y-120048393D01*
X25425240Y-119980101D01*
X25160890Y-119543838D01*
X25007259Y-119161829D01*
X24955694Y-118805780D01*
X24961439Y-118756590D01*
X25797338Y-118756590D01*
X25851057Y-119031825D01*
X25941578Y-119239648D01*
X26066464Y-119457680D01*
X26199088Y-119574019D01*
X26333158Y-119628227D01*
X26545384Y-119648400D01*
X26855064Y-119624472D01*
X27198968Y-119565764D01*
X27513865Y-119481597D01*
X27631838Y-119436779D01*
X27812256Y-119301531D01*
X27994037Y-119082574D01*
X28130245Y-118845596D01*
X28175147Y-118676444D01*
X28099376Y-118440764D01*
X27900489Y-118208175D01*
X27621121Y-118016399D01*
X27303912Y-117903162D01*
X27300397Y-117902499D01*
X26823238Y-117881935D01*
X26408174Y-118015958D01*
X26075862Y-118270165D01*
X25869805Y-118520522D01*
X25797338Y-118756590D01*
X24961439Y-118756590D01*
X24997549Y-118447399D01*
X25089856Y-118147035D01*
X25204305Y-117869152D01*
X25320997Y-117690258D01*
X25488937Y-117546591D01*
X25615751Y-117462755D01*
X26208370Y-117185581D01*
X26867782Y-117063514D01*
X27281444Y-117064122D01*
G37*
G36*
X19086449Y-122821093D02*
G01*
X19234995Y-122884524D01*
X19292917Y-123002476D01*
X19255858Y-123192521D01*
X19119454Y-123472231D01*
X18879346Y-123859178D01*
X18798769Y-123980451D01*
X18532757Y-124369946D01*
X18347231Y-124653418D01*
X18247240Y-124865163D01*
X18237830Y-125039479D01*
X18324050Y-125210664D01*
X18510945Y-125413018D01*
X18803564Y-125680837D01*
X19086760Y-125937320D01*
X19431416Y-126249703D01*
X19744211Y-126526128D01*
X19998546Y-126743611D01*
X20167823Y-126879170D01*
X20209746Y-126907655D01*
X20415013Y-126940432D01*
X20626878Y-126843095D01*
X20817217Y-126651264D01*
X20957907Y-126400560D01*
X21020825Y-126126605D01*
X20995544Y-125912357D01*
X20901809Y-125690409D01*
X20797931Y-125534441D01*
X20710830Y-125349271D01*
X20706495Y-125113948D01*
X20785627Y-124924007D01*
X20793387Y-124915798D01*
X20978612Y-124828994D01*
X21188273Y-124887348D01*
X21398698Y-125073669D01*
X21586213Y-125370759D01*
X21660353Y-125545540D01*
X21759554Y-125930764D01*
X21754237Y-126306743D01*
X21639371Y-126723575D01*
X21512127Y-127021946D01*
X21300425Y-127431806D01*
X21107325Y-127699997D01*
X20911187Y-127849333D01*
X20690372Y-127902627D01*
X20676134Y-127903259D01*
X20441580Y-127897421D01*
X20222157Y-127852480D01*
X19992755Y-127753888D01*
X19728263Y-127587099D01*
X19403572Y-127337564D01*
X18993571Y-126990738D01*
X18782977Y-126806471D01*
X18388667Y-126457792D01*
X18101312Y-126210023D01*
X17896990Y-126056624D01*
X17751774Y-125991060D01*
X17641742Y-126006794D01*
X17542972Y-126097288D01*
X17431537Y-126256005D01*
X17329688Y-126409364D01*
X17104367Y-126633075D01*
X16853825Y-126693826D01*
X16596600Y-126589353D01*
X16505090Y-126510018D01*
X16360282Y-126297177D01*
X16348488Y-126061904D01*
X16473320Y-125778728D01*
X16642642Y-125540004D01*
X16945487Y-125154363D01*
X16323283Y-124532159D01*
X16042288Y-124246664D01*
X15864715Y-124050306D01*
X15771111Y-123915709D01*
X15742028Y-123815493D01*
X15754906Y-123732180D01*
X15840177Y-123544250D01*
X15900932Y-123462204D01*
X16054290Y-123417295D01*
X16283927Y-123468406D01*
X16540767Y-123597718D01*
X16764041Y-123775549D01*
X16983493Y-123975225D01*
X17202151Y-124145735D01*
X17218892Y-124157104D01*
X17438779Y-124303696D01*
X18176627Y-123543611D01*
X18490710Y-123223886D01*
X18713124Y-123009909D01*
X18867210Y-122883142D01*
X18976312Y-122825053D01*
X19063768Y-122817102D01*
X19086449Y-122821093D01*
G37*
G36*
X14900436Y-127146355D02*
G01*
X15552668Y-127295346D01*
X15711141Y-127349062D01*
X16003747Y-127460960D01*
X16227782Y-127574003D01*
X16433525Y-127722301D01*
X16671248Y-127939958D01*
X16861384Y-128129380D01*
X17177501Y-128464917D01*
X17398066Y-128744790D01*
X17559863Y-129018981D01*
X17635068Y-129180710D01*
X17797305Y-129681010D01*
X17833049Y-130115762D01*
X17752110Y-130469465D01*
X17564294Y-130726617D01*
X17279410Y-130871715D01*
X16907268Y-130889258D01*
X16599662Y-130817192D01*
X16169671Y-130673220D01*
X16198452Y-130979442D01*
X16177447Y-131389304D01*
X16053787Y-131783038D01*
X15850244Y-132117057D01*
X15589591Y-132347772D01*
X15451652Y-132408791D01*
X15265122Y-132416096D01*
X15004938Y-132371135D01*
X14897929Y-132340486D01*
X14491244Y-132125343D01*
X14307381Y-131937305D01*
X14163782Y-131790446D01*
X13925324Y-131370481D01*
X13785652Y-130900133D01*
X13782170Y-130845721D01*
X14545095Y-130845721D01*
X14545786Y-131067877D01*
X14626954Y-131278884D01*
X14770149Y-131474537D01*
X14932357Y-131608691D01*
X15070564Y-131635199D01*
X15073500Y-131634015D01*
X15325944Y-131440793D01*
X15459775Y-131129159D01*
X15476605Y-131008783D01*
X15428802Y-130629528D01*
X15308321Y-130402303D01*
X15168319Y-130147163D01*
X15083956Y-129885916D01*
X15079322Y-129855099D01*
X15047006Y-129584548D01*
X14908518Y-129724159D01*
X14795467Y-129908152D01*
X14685926Y-130198225D01*
X14596824Y-130531655D01*
X14545095Y-130845721D01*
X13782170Y-130845721D01*
X13754547Y-130414087D01*
X13841790Y-129947031D01*
X14057164Y-129533648D01*
X14093433Y-129487658D01*
X14386114Y-129179167D01*
X14646893Y-129014097D01*
X14903058Y-128977219D01*
X14986021Y-128989480D01*
X15168767Y-129048865D01*
X15239361Y-129152000D01*
X15248681Y-129212992D01*
X15294812Y-129348599D01*
X15373477Y-129359442D01*
X15574184Y-129383141D01*
X15836210Y-129509630D01*
X16110708Y-129713100D01*
X16198203Y-129795233D01*
X16449326Y-129996419D01*
X16670460Y-130082716D01*
X16833476Y-130048457D01*
X16901570Y-129936863D01*
X16895676Y-129664516D01*
X16775124Y-129323744D01*
X16560712Y-128947732D01*
X16273240Y-128569665D01*
X15933505Y-128222730D01*
X15716136Y-128045462D01*
X15337979Y-127864581D01*
X14891839Y-127805571D01*
X14421056Y-127862704D01*
X13968962Y-128030253D01*
X13578896Y-128302485D01*
X13548182Y-128332056D01*
X13214376Y-128768475D01*
X12961052Y-129314289D01*
X12799197Y-129924475D01*
X12739803Y-130554011D01*
X12793856Y-131157874D01*
X12825096Y-131294615D01*
X12889735Y-131514905D01*
X12969872Y-131693642D01*
X13093059Y-131871207D01*
X13286849Y-132087979D01*
X13546837Y-132352415D01*
X13826555Y-132628383D01*
X14030885Y-132810778D01*
X14203091Y-132926837D01*
X14386439Y-133003797D01*
X14624194Y-133068896D01*
X14722497Y-133092544D01*
X15168722Y-133162980D01*
X15576246Y-133138070D01*
X15994573Y-133008037D01*
X16473206Y-132763102D01*
X16515196Y-132738480D01*
X16861604Y-132489033D01*
X17263780Y-132126405D01*
X17690839Y-131682894D01*
X18111891Y-131190798D01*
X18496046Y-130682415D01*
X18534940Y-130626573D01*
X18757665Y-130343598D01*
X19008975Y-130081389D01*
X19153886Y-129958350D01*
X19356273Y-129820228D01*
X19483453Y-129782654D01*
X19590454Y-129837948D01*
X19645348Y-129889748D01*
X19745935Y-130032185D01*
X19744018Y-130197764D01*
X19679968Y-130373845D01*
X19562573Y-130596808D01*
X19377953Y-130893097D01*
X19163598Y-131202961D01*
X19137562Y-131238347D01*
X18919461Y-131539343D01*
X18720773Y-131825251D01*
X18580451Y-132039856D01*
X18568480Y-132059665D01*
X18291989Y-132426788D01*
X17901072Y-132813616D01*
X17439763Y-133180157D01*
X17071820Y-133419009D01*
X16443545Y-133717365D01*
X15779489Y-133909807D01*
X15114632Y-133993229D01*
X14483949Y-133964522D01*
X13922421Y-133820577D01*
X13703355Y-133718335D01*
X13218602Y-133378785D01*
X12767551Y-132929330D01*
X12395251Y-132421566D01*
X12163882Y-131955052D01*
X12031499Y-131435808D01*
X11968685Y-130818332D01*
X11973057Y-130156656D01*
X12042232Y-129504813D01*
X12173826Y-128916836D01*
X12314290Y-128545570D01*
X12457452Y-128293111D01*
X12656358Y-127997078D01*
X12781522Y-127831108D01*
X12966603Y-127613274D01*
X13132695Y-127472914D01*
X13340539Y-127370840D01*
X13650881Y-127267862D01*
X13657838Y-127265741D01*
X14284110Y-127137107D01*
X14900436Y-127146355D01*
G37*
G36*
X277708373Y-122815743D02*
G01*
X277980689Y-122897929D01*
X278236334Y-123030592D01*
X278509660Y-123235143D01*
X278775093Y-123482727D01*
X279007060Y-123744488D01*
X279179989Y-123991568D01*
X279268303Y-124195112D01*
X279246486Y-124326209D01*
X279203731Y-124452772D01*
X279198379Y-124659871D01*
X279198533Y-124661773D01*
X279167677Y-124885399D01*
X279055461Y-125225532D01*
X278870963Y-125655519D01*
X278832413Y-125736992D01*
X278645787Y-126130500D01*
X278464159Y-126520524D01*
X278314531Y-126848775D01*
X278255335Y-126982615D01*
X278145130Y-127229242D01*
X278069666Y-127353408D01*
X277996844Y-127388233D01*
X277894564Y-127366841D01*
X277885599Y-127364132D01*
X277663893Y-127218512D01*
X277549333Y-126963128D01*
X277543517Y-126620623D01*
X277648043Y-126213649D01*
X277783074Y-125911423D01*
X277937993Y-125613799D01*
X277483142Y-125674782D01*
X276902425Y-125693234D01*
X276362656Y-125598413D01*
X275889325Y-125403439D01*
X275507920Y-125121436D01*
X275243932Y-124765525D01*
X275140437Y-124468718D01*
X275126844Y-124060306D01*
X276005315Y-124060306D01*
X276012738Y-124174176D01*
X276129601Y-124476212D01*
X276398107Y-124705634D01*
X276816183Y-124860859D01*
X276946381Y-124888359D01*
X277509187Y-124916472D01*
X278032501Y-124781178D01*
X278342132Y-124614761D01*
X278541277Y-124477320D01*
X278664187Y-124376483D01*
X278683290Y-124349644D01*
X278620904Y-124281220D01*
X278455399Y-124138956D01*
X278219250Y-123950432D01*
X278153702Y-123899859D01*
X277882454Y-123697109D01*
X277682873Y-123577847D01*
X277492770Y-123521845D01*
X277249959Y-123508875D01*
X276973500Y-123515974D01*
X276525739Y-123557977D01*
X276225585Y-123655532D01*
X276057342Y-123819391D01*
X276005315Y-124060306D01*
X275126844Y-124060306D01*
X275126725Y-124056720D01*
X275229972Y-123644122D01*
X275429743Y-123289953D01*
X275479244Y-123241294D01*
X275609750Y-123113013D01*
X276041481Y-122888639D01*
X276567036Y-122761412D01*
X277138603Y-122735668D01*
X277708373Y-122815743D01*
G37*
G36*
X284718411Y-129220030D02*
G01*
X285133742Y-129357451D01*
X285571541Y-129545276D01*
X285993443Y-129767389D01*
X286361081Y-130007676D01*
X286592149Y-130203967D01*
X286772549Y-130467788D01*
X286818228Y-130738922D01*
X286723767Y-130974736D01*
X286694275Y-131007356D01*
X286522601Y-131135668D01*
X286350470Y-131151299D01*
X286146639Y-131045872D01*
X285879869Y-130811011D01*
X285849217Y-130780769D01*
X285584263Y-130553201D01*
X285294193Y-130359546D01*
X285017045Y-130219032D01*
X284790856Y-130150882D01*
X284653663Y-130174325D01*
X284652218Y-130175731D01*
X284625863Y-130246267D01*
X284634267Y-130385671D01*
X284681966Y-130612311D01*
X284773495Y-130944550D01*
X284913388Y-131400756D01*
X285090826Y-131952254D01*
X285225378Y-132390677D01*
X285338034Y-132806654D01*
X285417796Y-133156036D01*
X285453672Y-133394674D01*
X285454469Y-133412339D01*
X285409413Y-133850653D01*
X285256445Y-134174495D01*
X285009203Y-134372003D01*
X284681328Y-134431315D01*
X284357011Y-134366843D01*
X284052929Y-134210741D01*
X283694578Y-133948289D01*
X283319584Y-133615365D01*
X282965575Y-133247844D01*
X282670179Y-132881604D01*
X282485255Y-132582168D01*
X282260734Y-132062552D01*
X282158987Y-131651057D01*
X282180295Y-131338887D01*
X282324940Y-131117243D01*
X282536071Y-130996769D01*
X282719364Y-130974241D01*
X282859558Y-131072951D01*
X282967660Y-131308403D01*
X283054674Y-131696103D01*
X283061531Y-131737065D01*
X283103042Y-131952246D01*
X283161827Y-132123906D01*
X283262420Y-132291985D01*
X283429359Y-132496425D01*
X283687182Y-132777166D01*
X283725699Y-132818206D01*
X284072041Y-133170241D01*
X284334513Y-133395959D01*
X284514896Y-133491537D01*
X284614966Y-133453153D01*
X284636501Y-133276983D01*
X284581280Y-132959205D01*
X284451080Y-132495997D01*
X284247679Y-131883537D01*
X284210235Y-131776482D01*
X283971879Y-131067315D01*
X283806984Y-130495529D01*
X283714971Y-130046214D01*
X283695261Y-129704462D01*
X283747275Y-129455366D01*
X283870433Y-129284016D01*
X284064157Y-129175504D01*
X284108611Y-129160846D01*
X284363912Y-129149123D01*
X284718411Y-129220030D01*
G37*
G36*
X281427601Y-126247549D02*
G01*
X281727965Y-126339856D01*
X282005848Y-126454305D01*
X282184742Y-126570997D01*
X282328409Y-126738937D01*
X282412245Y-126865751D01*
X282689419Y-127458370D01*
X282811486Y-128117782D01*
X282810878Y-128531444D01*
X282724734Y-129049688D01*
X282522577Y-129484908D01*
X282204472Y-129868865D01*
X281841688Y-130123992D01*
X281427584Y-130227443D01*
X280980542Y-130181865D01*
X280518946Y-129989905D01*
X280061179Y-129654210D01*
X279944914Y-129543571D01*
X279729409Y-129287978D01*
X279614189Y-129023330D01*
X279575328Y-128834736D01*
X279540613Y-128548696D01*
X279528201Y-128301804D01*
X279531137Y-128232344D01*
X279529138Y-128154879D01*
X279489103Y-128139172D01*
X279390782Y-128198162D01*
X279213926Y-128344792D01*
X278938287Y-128592003D01*
X278867600Y-128656408D01*
X278398668Y-129101212D01*
X278044813Y-129481060D01*
X277781783Y-129827237D01*
X277585328Y-130171027D01*
X277454603Y-130479267D01*
X277346486Y-130754443D01*
X277260563Y-130909981D01*
X277165454Y-130986880D01*
X277037228Y-131024599D01*
X276792398Y-131016280D01*
X276646272Y-130872084D01*
X276602443Y-130596228D01*
X276606821Y-130519041D01*
X276692043Y-130211099D01*
X276890982Y-129819885D01*
X277185378Y-129368221D01*
X277556965Y-128878924D01*
X277987482Y-128374812D01*
X278458666Y-127878704D01*
X278547054Y-127795384D01*
X280226600Y-127795384D01*
X280250528Y-128105064D01*
X280309236Y-128448968D01*
X280393403Y-128763865D01*
X280438221Y-128881838D01*
X280573469Y-129062256D01*
X280792426Y-129244037D01*
X281029404Y-129380245D01*
X281198556Y-129425147D01*
X281434236Y-129349376D01*
X281666825Y-129150489D01*
X281858601Y-128871121D01*
X281971838Y-128553912D01*
X281972501Y-128550397D01*
X281993065Y-128073238D01*
X281859042Y-127658174D01*
X281604835Y-127325862D01*
X281354478Y-127119805D01*
X281118410Y-127047338D01*
X280843175Y-127101057D01*
X280635352Y-127191578D01*
X280417320Y-127316464D01*
X280300981Y-127449088D01*
X280246773Y-127583158D01*
X280226600Y-127795384D01*
X278547054Y-127795384D01*
X278952254Y-127413420D01*
X279376091Y-127058959D01*
X279826607Y-126725750D01*
X279894899Y-126675240D01*
X280331162Y-126410890D01*
X280713171Y-126257259D01*
X281069220Y-126205694D01*
X281427601Y-126247549D01*
G37*
G36*
X276142820Y-117004906D02*
G01*
X276330750Y-117090177D01*
X276412796Y-117150932D01*
X276457705Y-117304290D01*
X276406594Y-117533927D01*
X276277282Y-117790767D01*
X276099451Y-118014041D01*
X275899775Y-118233493D01*
X275729265Y-118452151D01*
X275717896Y-118468892D01*
X275571304Y-118688779D01*
X276331389Y-119426627D01*
X276651114Y-119740710D01*
X276865091Y-119963124D01*
X276991858Y-120117210D01*
X277049947Y-120226312D01*
X277057898Y-120313768D01*
X277053907Y-120336449D01*
X276990476Y-120484995D01*
X276872524Y-120542917D01*
X276682479Y-120505858D01*
X276402769Y-120369454D01*
X276015822Y-120129346D01*
X275894549Y-120048769D01*
X275505054Y-119782757D01*
X275221582Y-119597231D01*
X275009837Y-119497240D01*
X274835521Y-119487830D01*
X274664336Y-119574050D01*
X274461982Y-119760945D01*
X274194163Y-120053564D01*
X273937680Y-120336760D01*
X273625297Y-120681416D01*
X273348872Y-120994211D01*
X273131389Y-121248546D01*
X272995830Y-121417823D01*
X272967345Y-121459746D01*
X272934568Y-121665013D01*
X273031905Y-121876878D01*
X273223736Y-122067217D01*
X273474440Y-122207907D01*
X273748395Y-122270825D01*
X273962643Y-122245544D01*
X274184591Y-122151809D01*
X274340559Y-122047931D01*
X274525729Y-121960830D01*
X274761052Y-121956495D01*
X274950993Y-122035627D01*
X274959202Y-122043387D01*
X275046006Y-122228612D01*
X274987652Y-122438273D01*
X274801331Y-122648698D01*
X274504241Y-122836213D01*
X274329460Y-122910353D01*
X273944236Y-123009554D01*
X273568257Y-123004237D01*
X273151425Y-122889371D01*
X272853054Y-122762127D01*
X272443194Y-122550425D01*
X272175003Y-122357325D01*
X272025667Y-122161187D01*
X271972373Y-121940372D01*
X271971741Y-121926134D01*
X271977579Y-121691580D01*
X272022520Y-121472157D01*
X272121112Y-121242755D01*
X272287901Y-120978263D01*
X272537436Y-120653572D01*
X272884262Y-120243571D01*
X273068529Y-120032977D01*
X273417208Y-119638667D01*
X273664977Y-119351312D01*
X273818376Y-119146990D01*
X273883940Y-119001774D01*
X273868206Y-118891742D01*
X273777712Y-118792972D01*
X273618995Y-118681537D01*
X273465636Y-118579688D01*
X273241925Y-118354367D01*
X273181174Y-118103825D01*
X273285647Y-117846600D01*
X273364982Y-117755090D01*
X273577823Y-117610282D01*
X273813096Y-117598488D01*
X274096272Y-117723320D01*
X274334996Y-117892642D01*
X274720637Y-118195487D01*
X275342841Y-117573283D01*
X275628336Y-117292288D01*
X275824694Y-117114715D01*
X275959291Y-117021111D01*
X276059507Y-116992028D01*
X276142820Y-117004906D01*
G37*
G36*
X269718344Y-113223057D02*
G01*
X270370187Y-113292232D01*
X270958164Y-113423826D01*
X271329430Y-113564290D01*
X271581889Y-113707452D01*
X271877922Y-113906358D01*
X272043892Y-114031522D01*
X272261726Y-114216603D01*
X272402086Y-114382695D01*
X272504160Y-114590539D01*
X272607138Y-114900881D01*
X272609259Y-114907838D01*
X272737893Y-115534110D01*
X272728645Y-116150436D01*
X272579654Y-116802668D01*
X272525938Y-116961141D01*
X272414040Y-117253747D01*
X272300997Y-117477782D01*
X272152699Y-117683525D01*
X271935042Y-117921248D01*
X271745620Y-118111384D01*
X271410083Y-118427501D01*
X271130210Y-118648066D01*
X270856019Y-118809863D01*
X270694290Y-118885068D01*
X270193990Y-119047305D01*
X269759238Y-119083049D01*
X269405535Y-119002110D01*
X269148383Y-118814294D01*
X269003285Y-118529410D01*
X268985742Y-118157268D01*
X269057808Y-117849662D01*
X269201780Y-117419671D01*
X268895558Y-117448452D01*
X268485696Y-117427447D01*
X268091962Y-117303787D01*
X267757943Y-117100244D01*
X267527228Y-116839591D01*
X267466209Y-116701652D01*
X267458904Y-116515122D01*
X267492525Y-116320564D01*
X268239801Y-116320564D01*
X268240985Y-116323500D01*
X268434207Y-116575944D01*
X268745841Y-116709775D01*
X268866217Y-116726605D01*
X269245472Y-116678802D01*
X269472697Y-116558321D01*
X269727837Y-116418319D01*
X269989084Y-116333956D01*
X270019901Y-116329322D01*
X270290452Y-116297006D01*
X270150841Y-116158518D01*
X269966848Y-116045467D01*
X269676775Y-115935926D01*
X269343345Y-115846824D01*
X269029279Y-115795095D01*
X268807123Y-115795786D01*
X268596116Y-115876954D01*
X268400463Y-116020149D01*
X268266309Y-116182357D01*
X268239801Y-116320564D01*
X267492525Y-116320564D01*
X267503865Y-116254938D01*
X267534514Y-116147929D01*
X267749657Y-115741244D01*
X267937695Y-115557381D01*
X268084554Y-115413782D01*
X268504519Y-115175324D01*
X268974867Y-115035652D01*
X269460913Y-115004547D01*
X269927969Y-115091790D01*
X270341352Y-115307164D01*
X270387342Y-115343433D01*
X270695833Y-115636114D01*
X270860903Y-115896893D01*
X270897781Y-116153058D01*
X270885520Y-116236021D01*
X270826135Y-116418767D01*
X270723000Y-116489361D01*
X270662008Y-116498681D01*
X270526401Y-116544812D01*
X270515558Y-116623477D01*
X270491859Y-116824184D01*
X270365370Y-117086210D01*
X270161900Y-117360708D01*
X270079767Y-117448203D01*
X269878581Y-117699326D01*
X269792284Y-117920460D01*
X269826543Y-118083476D01*
X269938137Y-118151570D01*
X270210484Y-118145676D01*
X270551256Y-118025124D01*
X270927268Y-117810712D01*
X271305335Y-117523240D01*
X271652270Y-117183505D01*
X271829538Y-116966136D01*
X272010419Y-116587979D01*
X272069429Y-116141839D01*
X272012296Y-115671056D01*
X271844747Y-115218962D01*
X271572515Y-114828896D01*
X271542944Y-114798182D01*
X271106525Y-114464376D01*
X270560711Y-114211052D01*
X269950525Y-114049197D01*
X269320989Y-113989803D01*
X268717126Y-114043856D01*
X268580385Y-114075096D01*
X268360095Y-114139735D01*
X268181358Y-114219872D01*
X268003793Y-114343059D01*
X267787021Y-114536849D01*
X267522585Y-114796837D01*
X267246617Y-115076555D01*
X267064222Y-115280885D01*
X266948163Y-115453091D01*
X266871203Y-115636439D01*
X266806104Y-115874194D01*
X266782456Y-115972497D01*
X266712020Y-116418722D01*
X266736930Y-116826246D01*
X266866963Y-117244573D01*
X267111898Y-117723206D01*
X267136520Y-117765196D01*
X267385967Y-118111604D01*
X267748595Y-118513780D01*
X268192106Y-118940839D01*
X268684202Y-119361891D01*
X269192585Y-119746046D01*
X269248427Y-119784940D01*
X269531402Y-120007665D01*
X269793611Y-120258975D01*
X269916650Y-120403886D01*
X270054772Y-120606273D01*
X270092346Y-120733453D01*
X270037052Y-120840454D01*
X269985252Y-120895348D01*
X269842815Y-120995935D01*
X269677236Y-120994018D01*
X269501155Y-120929968D01*
X269278192Y-120812573D01*
X268981903Y-120627953D01*
X268672039Y-120413598D01*
X268636653Y-120387562D01*
X268335657Y-120169461D01*
X268049749Y-119970773D01*
X267835144Y-119830451D01*
X267815335Y-119818480D01*
X267448212Y-119541989D01*
X267061384Y-119151072D01*
X266694843Y-118689763D01*
X266455991Y-118321820D01*
X266157635Y-117693545D01*
X265965193Y-117029489D01*
X265881771Y-116364632D01*
X265910478Y-115733949D01*
X266054423Y-115172421D01*
X266156665Y-114953355D01*
X266496215Y-114468602D01*
X266945670Y-114017551D01*
X267453434Y-113645251D01*
X267919948Y-113413882D01*
X268439192Y-113281499D01*
X269056668Y-113218685D01*
X269718344Y-113223057D01*
G37*
%TD*%
M02*
