%TF.GenerationSoftware,KiCad,Pcbnew,9.0.7*%
%TF.CreationDate,2026-02-23T18:54:17+05:30*%
%TF.ProjectId,Tao Te Ching,54616f20-5465-4204-9368-696e672e6b69,rev?*%
%TF.SameCoordinates,Original*%
%TF.FileFunction,Paste,Bot*%
%TF.FilePolarity,Positive*%
%FSLAX46Y46*%
G04 Gerber Fmt 4.6, Leading zero omitted, Abs format (unit mm)*
G04 Created by KiCad (PCBNEW 9.0.7) date 2026-02-23 18:54:17*
%MOMM*%
%LPD*%
G01*
G04 APERTURE LIST*
G04 Aperture macros list*
%AMRoundRect*
0 Rectangle with rounded corners*
0 $1 Rounding radius*
0 $2 $3 $4 $5 $6 $7 $8 $9 X,Y pos of 4 corners*
0 Add a 4 corners polygon primitive as box body*
4,1,4,$2,$3,$4,$5,$6,$7,$8,$9,$2,$3,0*
0 Add four circle primitives for the rounded corners*
1,1,$1+$1,$2,$3*
1,1,$1+$1,$4,$5*
1,1,$1+$1,$6,$7*
1,1,$1+$1,$8,$9*
0 Add four rect primitives between the rounded corners*
20,1,$1+$1,$2,$3,$4,$5,0*
20,1,$1+$1,$4,$5,$6,$7,0*
20,1,$1+$1,$6,$7,$8,$9,0*
20,1,$1+$1,$8,$9,$2,$3,0*%
G04 Aperture macros list end*
%ADD10RoundRect,0.250000X-1.025000X-1.000000X1.025000X-1.000000X1.025000X1.000000X-1.025000X1.000000X0*%
%ADD11RoundRect,0.225000X0.375000X-0.225000X0.375000X0.225000X-0.375000X0.225000X-0.375000X-0.225000X0*%
G04 APERTURE END LIST*
D10*
%TO.C,SW17*%
X230145000Y-97337500D03*
X243072000Y-94797500D03*
%TD*%
%TO.C,SW30*%
X53555000Y-78125000D03*
X66482000Y-75585000D03*
%TD*%
%TO.C,SW38*%
X91685000Y-74952500D03*
X104612000Y-72412500D03*
%TD*%
%TO.C,SW12*%
X249195000Y-83040000D03*
X262122000Y-80500000D03*
%TD*%
%TO.C,SW33*%
X72737500Y-53553750D03*
X85664500Y-51013750D03*
%TD*%
%TO.C,SW23*%
X230145000Y-116377500D03*
X243072000Y-113837500D03*
%TD*%
%TO.C,SW46*%
X129750000Y-82890000D03*
X142677000Y-80350000D03*
%TD*%
%TO.C,SW28*%
X34515000Y-121020000D03*
X47442000Y-118480000D03*
%TD*%
%TO.C,SW45*%
X129862500Y-63880000D03*
X142789500Y-61340000D03*
%TD*%
%TO.C,SW13*%
X153945000Y-102090000D03*
X166872000Y-99550000D03*
%TD*%
%TO.C,SW24*%
X249195000Y-121140000D03*
X262122000Y-118600000D03*
%TD*%
%TO.C,SW44*%
X110775000Y-117940000D03*
X123702000Y-115400000D03*
%TD*%
%TO.C,SW35*%
X72647500Y-91790000D03*
X85574500Y-89250000D03*
%TD*%
%TO.C,SW2*%
X172995000Y-60815000D03*
X185922000Y-58275000D03*
%TD*%
%TO.C,SW42*%
X110700000Y-79715000D03*
X123627000Y-77175000D03*
%TD*%
%TO.C,SW20*%
X172995000Y-117965000D03*
X185922000Y-115425000D03*
%TD*%
%TO.C,SW22*%
X211095000Y-110821250D03*
X224022000Y-108281250D03*
%TD*%
%TO.C,SW43*%
X110747500Y-98830000D03*
X123674500Y-96290000D03*
%TD*%
%TO.C,SW11*%
X230145000Y-78277500D03*
X243072000Y-75737500D03*
%TD*%
%TO.C,SW4*%
X211095000Y-53671250D03*
X224022000Y-51131250D03*
%TD*%
%TO.C,SW47*%
X129805000Y-102070000D03*
X142732000Y-99530000D03*
%TD*%
%TO.C,SW36*%
X72515000Y-110810000D03*
X85442000Y-108270000D03*
%TD*%
%TO.C,SW9*%
X192045000Y-75102500D03*
X204972000Y-72562500D03*
%TD*%
%TO.C,SW41*%
X110812500Y-60705000D03*
X123739500Y-58165000D03*
%TD*%
%TO.C,SW26*%
X34505000Y-82890000D03*
X47432000Y-80350000D03*
%TD*%
%TO.C,SW39*%
X91627500Y-94130000D03*
X104554500Y-91590000D03*
%TD*%
%TO.C,SW48*%
X129705000Y-121000000D03*
X142632000Y-118460000D03*
%TD*%
%TO.C,SW18*%
X249195000Y-102090000D03*
X262122000Y-99550000D03*
%TD*%
%TO.C,SW6*%
X249195000Y-63990000D03*
X262122000Y-61450000D03*
%TD*%
%TO.C,SW7*%
X153945000Y-83040000D03*
X166872000Y-80500000D03*
%TD*%
%TO.C,SW15*%
X192045000Y-94152500D03*
X204972000Y-91612500D03*
%TD*%
%TO.C,SW1*%
X153945000Y-63990000D03*
X166872000Y-61450000D03*
%TD*%
%TO.C,SW5*%
X230145000Y-59227500D03*
X243072000Y-56687500D03*
%TD*%
%TO.C,SW27*%
X34575000Y-102050000D03*
X47502000Y-99510000D03*
%TD*%
%TO.C,SW8*%
X172995000Y-79865000D03*
X185922000Y-77325000D03*
%TD*%
%TO.C,SW31*%
X53557500Y-97420000D03*
X66484500Y-94880000D03*
%TD*%
%TO.C,SW21*%
X192045000Y-113202500D03*
X204972000Y-110662500D03*
%TD*%
%TO.C,SW40*%
X91735000Y-113210000D03*
X104662000Y-110670000D03*
%TD*%
%TO.C,SW16*%
X211095000Y-91771250D03*
X224022000Y-89231250D03*
%TD*%
%TO.C,SW37*%
X91797500Y-55942500D03*
X104724500Y-53402500D03*
%TD*%
%TO.C,SW14*%
X172995000Y-98915000D03*
X185922000Y-96375000D03*
%TD*%
%TO.C,SW29*%
X53667500Y-59115000D03*
X66594500Y-56575000D03*
%TD*%
%TO.C,SW10*%
X211095000Y-72721250D03*
X224022000Y-70181250D03*
%TD*%
%TO.C,SW32*%
X53657500Y-116410000D03*
X66584500Y-113870000D03*
%TD*%
%TO.C,SW3*%
X192045000Y-56052500D03*
X204972000Y-53512500D03*
%TD*%
%TO.C,SW34*%
X72620000Y-72571250D03*
X85547000Y-70031250D03*
%TD*%
%TO.C,SW25*%
X34617500Y-63880000D03*
X47544500Y-61340000D03*
%TD*%
%TO.C,SW19*%
X153945000Y-121140000D03*
X166872000Y-118600000D03*
%TD*%
D11*
%TO.C,D22*%
X226680000Y-115197500D03*
X226680000Y-111897500D03*
%TD*%
%TO.C,D38*%
X107480000Y-79100000D03*
X107480000Y-75800000D03*
%TD*%
%TO.C,D41*%
X126550000Y-65000000D03*
X126550000Y-61700000D03*
%TD*%
%TO.C,D42*%
X126360000Y-83680000D03*
X126360000Y-80380000D03*
%TD*%
%TO.C,D44*%
X126490000Y-121917500D03*
X126490000Y-118617500D03*
%TD*%
%TO.C,D19*%
X169370000Y-125177500D03*
X169370000Y-121877500D03*
%TD*%
%TO.C,D25*%
X50160000Y-68307500D03*
X50160000Y-65007500D03*
%TD*%
%TO.C,D39*%
X107440000Y-98220000D03*
X107440000Y-94920000D03*
%TD*%
%TO.C,D40*%
X107420000Y-117437500D03*
X107420000Y-114137500D03*
%TD*%
%TO.C,D23*%
X245840000Y-120630000D03*
X245840000Y-117330000D03*
%TD*%
%TO.C,D16*%
X227010000Y-95877500D03*
X227010000Y-92577500D03*
%TD*%
%TO.C,D18*%
X265070000Y-106217500D03*
X265070000Y-102917500D03*
%TD*%
%TO.C,D35*%
X88400000Y-95937500D03*
X88400000Y-92637500D03*
%TD*%
%TO.C,D24*%
X264850000Y-125287500D03*
X264850000Y-121987500D03*
%TD*%
%TO.C,D17*%
X246020000Y-101687500D03*
X246020000Y-98387500D03*
%TD*%
%TO.C,D14*%
X188710000Y-102910000D03*
X188710000Y-99610000D03*
%TD*%
%TO.C,D48*%
X145220000Y-125020000D03*
X145220000Y-121720000D03*
%TD*%
%TO.C,D32*%
X69300000Y-120557500D03*
X69300000Y-117257500D03*
%TD*%
%TO.C,D27*%
X50490000Y-105997500D03*
X50490000Y-102697500D03*
%TD*%
%TO.C,D5*%
X246000000Y-63507500D03*
X246000000Y-60207500D03*
%TD*%
%TO.C,D13*%
X169620000Y-105990000D03*
X169620000Y-102690000D03*
%TD*%
%TO.C,D29*%
X69750000Y-63500000D03*
X69750000Y-60200000D03*
%TD*%
%TO.C,D28*%
X50230000Y-125090000D03*
X50230000Y-121790000D03*
%TD*%
%TO.C,D7*%
X169740000Y-87120000D03*
X169740000Y-83820000D03*
%TD*%
%TO.C,D6*%
X265090000Y-68347500D03*
X265090000Y-65047500D03*
%TD*%
%TO.C,D8*%
X188790000Y-83877500D03*
X188790000Y-80577500D03*
%TD*%
%TO.C,D1*%
X169890000Y-68087500D03*
X169890000Y-64787500D03*
%TD*%
%TO.C,D45*%
X145920000Y-68220000D03*
X145920000Y-64920000D03*
%TD*%
%TO.C,D21*%
X207770000Y-117747500D03*
X207770000Y-114447500D03*
%TD*%
%TO.C,D46*%
X145700000Y-87360000D03*
X145700000Y-84060000D03*
%TD*%
%TO.C,D43*%
X126460000Y-102930000D03*
X126460000Y-99630000D03*
%TD*%
%TO.C,D33*%
X88440000Y-57610000D03*
X88440000Y-54310000D03*
%TD*%
%TO.C,D15*%
X207830000Y-98257500D03*
X207830000Y-94957500D03*
%TD*%
%TO.C,D10*%
X226990000Y-76867500D03*
X226990000Y-73567500D03*
%TD*%
%TO.C,D34*%
X88370000Y-76920000D03*
X88370000Y-73620000D03*
%TD*%
%TO.C,D4*%
X226700000Y-57757500D03*
X226700000Y-54457500D03*
%TD*%
%TO.C,D30*%
X69200000Y-82310000D03*
X69200000Y-79010000D03*
%TD*%
%TO.C,D3*%
X207930000Y-60287500D03*
X207930000Y-56987500D03*
%TD*%
%TO.C,D37*%
X107540000Y-60280000D03*
X107540000Y-56980000D03*
%TD*%
%TO.C,D2*%
X188830000Y-64907500D03*
X188830000Y-61607500D03*
%TD*%
%TO.C,D36*%
X88260000Y-114737500D03*
X88260000Y-111437500D03*
%TD*%
%TO.C,D20*%
X188560000Y-122310000D03*
X188560000Y-119010000D03*
%TD*%
%TO.C,D26*%
X50070000Y-87140000D03*
X50070000Y-83840000D03*
%TD*%
%TO.C,D12*%
X265110000Y-87360000D03*
X265110000Y-84060000D03*
%TD*%
%TO.C,D11*%
X246010000Y-82397500D03*
X246010000Y-79097500D03*
%TD*%
%TO.C,D47*%
X145600000Y-106370000D03*
X145600000Y-103070000D03*
%TD*%
%TO.C,D31*%
X69080000Y-101430000D03*
X69080000Y-98130000D03*
%TD*%
%TO.C,D9*%
X207860000Y-79300000D03*
X207860000Y-76000000D03*
%TD*%
M02*
