M48
; DRILL file {KiCad 9.0.7} date 2026-02-10T15:30:18+0530
; FORMAT={-:-/ absolute / metric / decimal}
; #@! TF.CreationDate,2026-02-10T15:30:18+05:30
; #@! TF.GenerationSoftware,Kicad,Pcbnew,9.0.7
; #@! TF.FileFunction,Plated,1,2,PTH
FMAT,2
METRIC
; #@! TA.AperFunction,Plated,PTH,ViaDrill
T1C0.300
; #@! TA.AperFunction,Plated,PTH,ComponentDrill
T2C0.889
; #@! TA.AperFunction,Plated,PTH,ComponentDrill
T3C1.500
%
G90
G05
T1
X31.6Y-128.834
X32.63Y-133.421
X33.0Y-108.5
X33.25Y-127.35
X34.1Y-71.1
X36.8Y-132.4
X39.2Y-116.35
X76.0Y-112.7
X76.0Y-122.6
X97.7Y-123.801
X102.4Y-122.2
X192.86Y-118.814
X211.69Y-121.01
X261.01Y-117.25
X265.964Y-126.144
T2
X13.204Y-115.534
X13.204Y-118.074
X13.204Y-120.614
X13.204Y-123.154
X13.204Y-125.694
X13.204Y-128.234
X13.204Y-130.774
X28.444Y-115.534
X28.444Y-118.074
X28.444Y-120.614
X28.444Y-123.154
X28.444Y-125.694
X28.444Y-128.234
X28.444Y-130.774
X268.884Y-115.59
X268.884Y-118.13
X268.884Y-120.67
X268.884Y-123.21
X268.884Y-125.75
X268.884Y-128.29
X268.884Y-130.83
X284.124Y-115.59
X284.124Y-118.13
X284.124Y-120.67
X284.124Y-123.21
X284.124Y-125.75
X284.124Y-128.29
X284.124Y-130.83
T3
X37.81Y-121.042
X37.815Y-63.94
X37.815Y-82.99
X37.815Y-102.04
X44.16Y-118.502
X44.165Y-61.4
X44.165Y-80.45
X44.165Y-99.5
X56.865Y-59.175
X56.865Y-78.225
X56.865Y-97.275
X56.865Y-116.325
X63.215Y-56.635
X63.215Y-75.685
X63.215Y-94.735
X63.215Y-113.785
X75.91Y-110.771
X75.93Y-72.671
X75.93Y-91.721
X75.935Y-53.614
X82.26Y-108.231
X82.28Y-70.131
X82.28Y-89.181
X82.285Y-51.074
X94.995Y-56.002
X94.995Y-75.052
X94.995Y-94.102
X94.995Y-113.13
X101.345Y-53.462
X101.345Y-72.513
X101.345Y-91.562
X101.345Y-110.59
X114.01Y-60.765
X114.01Y-79.815
X114.01Y-98.865
X114.01Y-117.915
X120.36Y-58.225
X120.36Y-77.275
X120.36Y-96.325
X120.36Y-115.375
X133.06Y-63.94
X133.06Y-82.99
X133.06Y-102.04
X133.06Y-121.09
X139.41Y-61.4
X139.41Y-80.45
X139.41Y-99.5
X139.41Y-118.55
X157.144Y-64.017
X157.144Y-83.067
X157.144Y-102.117
X157.144Y-121.167
X163.494Y-61.477
X163.494Y-80.528
X163.494Y-99.578
X163.494Y-118.627
X176.194Y-60.842
X176.194Y-79.892
X176.194Y-98.942
X176.194Y-117.992
X182.544Y-58.302
X182.544Y-77.352
X182.544Y-96.402
X182.544Y-115.453
X195.244Y-56.08
X195.244Y-75.13
X195.244Y-94.18
X195.244Y-113.23
X201.594Y-53.54
X201.594Y-72.59
X201.594Y-91.64
X201.594Y-110.69
X214.294Y-53.699
X214.294Y-72.749
X214.294Y-91.799
X214.294Y-110.849
X220.644Y-51.159
X220.644Y-70.209
X220.644Y-89.259
X220.644Y-108.309
X233.344Y-59.255
X233.344Y-78.305
X233.344Y-97.365
X233.344Y-116.405
X239.694Y-56.715
X239.694Y-75.765
X239.694Y-94.825
X239.694Y-113.865
X252.394Y-64.017
X252.394Y-83.067
X252.394Y-102.117
X252.394Y-121.167
X258.744Y-61.477
X258.744Y-80.528
X258.744Y-99.578
X258.744Y-118.627
M30
