M48
; DRILL file {KiCad 9.0.7} date 2026-02-10T15:30:18+0530
; FORMAT={-:-/ absolute / metric / decimal}
; #@! TF.CreationDate,2026-02-10T15:30:18+05:30
; #@! TF.GenerationSoftware,Kicad,Pcbnew,9.0.7
; #@! TF.FileFunction,NonPlated,1,2,NPTH
FMAT,2
METRIC
; #@! TA.AperFunction,NonPlated,NPTH,ComponentDrill
T1C0.500
; #@! TA.AperFunction,NonPlated,NPTH,ComponentDrill
T2C1.700
; #@! TA.AperFunction,NonPlated,NPTH,ComponentDrill
T3C4.000
%
G90
G05
T1
X148.17Y-63.35
X148.17Y-64.2
X148.17Y-65.05
X148.17Y-79.64
X148.17Y-80.49
X148.17Y-81.34
X148.17Y-120.65
X148.17Y-121.5
X148.17Y-122.35
X149.67Y-63.35
X149.67Y-64.2
X149.67Y-65.05
X149.67Y-79.64
X149.67Y-80.49
X149.67Y-81.34
X149.67Y-120.65
X149.67Y-121.5
X149.67Y-122.35
T2
X36.54Y-123.582
X36.545Y-66.48
X36.545Y-85.53
X36.545Y-104.58
X46.7Y-123.582
X46.705Y-66.48
X46.705Y-85.53
X46.705Y-104.58
X55.595Y-61.715
X55.595Y-80.765
X55.595Y-99.815
X55.595Y-118.865
X65.755Y-61.715
X65.755Y-80.765
X65.755Y-99.815
X65.755Y-118.865
X74.64Y-113.311
X74.66Y-75.211
X74.66Y-94.261
X74.665Y-56.154
X84.8Y-113.311
X84.82Y-75.211
X84.82Y-94.261
X84.825Y-56.154
X93.725Y-58.542
X93.725Y-77.593
X93.725Y-96.642
X93.725Y-115.67
X103.885Y-58.542
X103.885Y-77.593
X103.885Y-96.642
X103.885Y-115.67
X112.74Y-63.305
X112.74Y-82.355
X112.74Y-101.405
X112.74Y-120.455
X122.9Y-63.305
X122.9Y-82.355
X122.9Y-101.405
X122.9Y-120.455
X131.79Y-66.48
X131.79Y-85.53
X131.79Y-104.58
X131.79Y-123.63
X141.95Y-66.48
X141.95Y-85.53
X141.95Y-104.58
X141.95Y-123.63
X155.874Y-66.557
X155.874Y-85.608
X155.874Y-104.657
X155.874Y-123.707
X166.034Y-66.557
X166.034Y-85.608
X166.034Y-104.657
X166.034Y-123.707
X174.924Y-63.383
X174.924Y-82.432
X174.924Y-101.483
X174.924Y-120.532
X185.084Y-63.383
X185.084Y-82.432
X185.084Y-101.483
X185.084Y-120.532
X193.974Y-58.62
X193.974Y-77.67
X193.974Y-96.72
X193.974Y-115.77
X204.134Y-58.62
X204.134Y-77.67
X204.134Y-96.72
X204.134Y-115.77
X213.024Y-56.239
X213.024Y-75.289
X213.024Y-94.339
X213.024Y-113.389
X223.184Y-56.239
X223.184Y-75.289
X223.184Y-94.339
X223.184Y-113.389
X232.074Y-61.795
X232.074Y-80.845
X232.074Y-99.905
X232.074Y-118.945
X242.234Y-61.795
X242.234Y-80.845
X242.234Y-99.905
X242.234Y-118.945
X251.124Y-66.557
X251.124Y-85.608
X251.124Y-104.657
X251.124Y-123.707
X261.284Y-66.557
X261.284Y-85.608
X261.284Y-104.657
X261.284Y-123.707
T3
X41.62Y-123.582
X41.625Y-66.48
X41.625Y-85.53
X41.625Y-104.58
X60.675Y-61.715
X60.675Y-80.765
X60.675Y-99.815
X60.675Y-118.865
X79.72Y-113.311
X79.74Y-75.211
X79.74Y-94.261
X79.745Y-56.154
X98.805Y-58.542
X98.805Y-77.593
X98.805Y-96.642
X98.805Y-115.67
X117.82Y-63.305
X117.82Y-82.355
X117.82Y-101.405
X117.82Y-120.455
X136.87Y-66.48
X136.87Y-85.53
X136.87Y-104.58
X136.87Y-123.63
X160.954Y-66.557
X160.954Y-85.608
X160.954Y-104.657
X160.954Y-123.707
X180.004Y-63.383
X180.004Y-82.432
X180.004Y-101.483
X180.004Y-120.532
X199.054Y-58.62
X199.054Y-77.67
X199.054Y-96.72
X199.054Y-115.77
X218.104Y-56.239
X218.104Y-75.289
X218.104Y-94.339
X218.104Y-113.389
X237.154Y-61.795
X237.154Y-80.845
X237.154Y-99.905
X237.154Y-118.945
X256.204Y-66.557
X256.204Y-85.608
X256.204Y-104.657
X256.204Y-123.707
M30
