%TF.GenerationSoftware,KiCad,Pcbnew,9.0.7*%
%TF.CreationDate,2026-02-23T18:54:17+05:30*%
%TF.ProjectId,Tao Te Ching,54616f20-5465-4204-9368-696e672e6b69,rev?*%
%TF.SameCoordinates,Original*%
%TF.FileFunction,Copper,L2,Bot*%
%TF.FilePolarity,Positive*%
%FSLAX46Y46*%
G04 Gerber Fmt 4.6, Leading zero omitted, Abs format (unit mm)*
G04 Created by KiCad (PCBNEW 9.0.7) date 2026-02-23 18:54:17*
%MOMM*%
%LPD*%
G01*
G04 APERTURE LIST*
G04 Aperture macros list*
%AMRoundRect*
0 Rectangle with rounded corners*
0 $1 Rounding radius*
0 $2 $3 $4 $5 $6 $7 $8 $9 X,Y pos of 4 corners*
0 Add a 4 corners polygon primitive as box body*
4,1,4,$2,$3,$4,$5,$6,$7,$8,$9,$2,$3,0*
0 Add four circle primitives for the rounded corners*
1,1,$1+$1,$2,$3*
1,1,$1+$1,$4,$5*
1,1,$1+$1,$6,$7*
1,1,$1+$1,$8,$9*
0 Add four rect primitives between the rounded corners*
20,1,$1+$1,$2,$3,$4,$5,0*
20,1,$1+$1,$4,$5,$6,$7,0*
20,1,$1+$1,$6,$7,$8,$9,0*
20,1,$1+$1,$8,$9,$2,$3,0*%
G04 Aperture macros list end*
%TA.AperFunction,SMDPad,CuDef*%
%ADD10RoundRect,0.250000X-1.025000X-1.000000X1.025000X-1.000000X1.025000X1.000000X-1.025000X1.000000X0*%
%TD*%
%TA.AperFunction,ComponentPad*%
%ADD11C,1.524000*%
%TD*%
%TA.AperFunction,SMDPad,CuDef*%
%ADD12RoundRect,0.225000X0.375000X-0.225000X0.375000X0.225000X-0.375000X0.225000X-0.375000X-0.225000X0*%
%TD*%
%TA.AperFunction,ViaPad*%
%ADD13C,0.600000*%
%TD*%
%TA.AperFunction,Conductor*%
%ADD14C,0.200000*%
%TD*%
G04 APERTURE END LIST*
D10*
%TO.P,SW17,1,1*%
%TO.N,Col4*%
X230145000Y-97337500D03*
%TO.P,SW17,2,2*%
%TO.N,Net-(D17-A)*%
X243072000Y-94797500D03*
%TD*%
%TO.P,SW30,1,1*%
%TO.N,Col7*%
X53555000Y-78125000D03*
%TO.P,SW30,2,2*%
%TO.N,Net-(D30-A)*%
X66482000Y-75585000D03*
%TD*%
%TO.P,SW38,1,1*%
%TO.N,Col9*%
X91685000Y-74952500D03*
%TO.P,SW38,2,2*%
%TO.N,Net-(D38-A)*%
X104612000Y-72412500D03*
%TD*%
%TO.P,SW12,1,1*%
%TO.N,Col5*%
X249195000Y-83040000D03*
%TO.P,SW12,2,2*%
%TO.N,Net-(D12-A)*%
X262122000Y-80500000D03*
%TD*%
%TO.P,SW33,1,1*%
%TO.N,Col8*%
X72737500Y-53553750D03*
%TO.P,SW33,2,2*%
%TO.N,Net-(D33-A)*%
X85664500Y-51013750D03*
%TD*%
%TO.P,SW23,1,1*%
%TO.N,Col4*%
X230145000Y-116377500D03*
%TO.P,SW23,2,2*%
%TO.N,Net-(D23-A)*%
X243072000Y-113837500D03*
%TD*%
D11*
%TO.P,U1,1,P0.02_AIN0_LOW_A0_D0*%
%TO.N,Row0*%
X268883750Y-115590000D03*
%TO.P,U1,2,P0.03_AIN1_LOW_A1_D1*%
%TO.N,Row1*%
X268883750Y-118130000D03*
%TO.P,U1,3,P0.28_AIN4_LOW_A2_D2*%
%TO.N,Row2*%
X268883750Y-120670000D03*
%TO.P,U1,4,P0.29_AIN5_LOW_A3_D3*%
%TO.N,Row3*%
X268883750Y-123210000D03*
%TO.P,U1,5,P0.04_AIN2_A4_D4*%
%TO.N,Col0*%
X268883750Y-125750000D03*
%TO.P,U1,6,P0.05_AIN3_A5_D5*%
%TO.N,Col1*%
X268883750Y-128290000D03*
%TO.P,U1,7,P1.11_TX_D6*%
%TO.N,Col2*%
X268883750Y-130830000D03*
%TO.P,U1,8,P1.12_RX_D7*%
%TO.N,Col5*%
X284123750Y-130830000D03*
%TO.P,U1,9,P1.13_SCK_D8*%
%TO.N,Col4*%
X284123750Y-128290000D03*
%TO.P,U1,10,P1.14_MISO_D9*%
%TO.N,Col3*%
X284123750Y-125750000D03*
%TO.P,U1,11,P1.15_MOSI_D10*%
%TO.N,unconnected-(U1-P1.15_MOSI_D10-Pad11)*%
X284123750Y-123210000D03*
%TO.P,U1,12,3V3*%
%TO.N,unconnected-(U1-3V3-Pad12)_1*%
X284123750Y-120670000D03*
%TO.P,U1,13,GND*%
%TO.N,unconnected-(U1-GND-Pad13)*%
X284123750Y-118130000D03*
%TO.P,U1,14,VBUS*%
%TO.N,unconnected-(U1-VBUS-Pad14)*%
X284123750Y-115590000D03*
%TD*%
D10*
%TO.P,SW46,1,1*%
%TO.N,Col11*%
X129750000Y-82890000D03*
%TO.P,SW46,2,2*%
%TO.N,Net-(D46-A)*%
X142677000Y-80350000D03*
%TD*%
%TO.P,SW28,1,1*%
%TO.N,Col6*%
X34515000Y-121020000D03*
%TO.P,SW28,2,2*%
%TO.N,Net-(D28-A)*%
X47442000Y-118480000D03*
%TD*%
%TO.P,SW45,1,1*%
%TO.N,Col11*%
X129862500Y-63880000D03*
%TO.P,SW45,2,2*%
%TO.N,Net-(D45-A)*%
X142789500Y-61340000D03*
%TD*%
%TO.P,SW13,1,1*%
%TO.N,Col0*%
X153945000Y-102090000D03*
%TO.P,SW13,2,2*%
%TO.N,Net-(D13-A)*%
X166872000Y-99550000D03*
%TD*%
%TO.P,SW24,1,1*%
%TO.N,Col5*%
X249195000Y-121140000D03*
%TO.P,SW24,2,2*%
%TO.N,Net-(D24-A)*%
X262122000Y-118600000D03*
%TD*%
%TO.P,SW44,1,1*%
%TO.N,Col10*%
X110775000Y-117940000D03*
%TO.P,SW44,2,2*%
%TO.N,Net-(D44-A)*%
X123702000Y-115400000D03*
%TD*%
%TO.P,SW35,1,1*%
%TO.N,Col8*%
X72647500Y-91790000D03*
%TO.P,SW35,2,2*%
%TO.N,Net-(D35-A)*%
X85574500Y-89250000D03*
%TD*%
%TO.P,SW2,1,1*%
%TO.N,Col1*%
X172995000Y-60815000D03*
%TO.P,SW2,2,2*%
%TO.N,Net-(D2-A)*%
X185922000Y-58275000D03*
%TD*%
%TO.P,SW42,1,1*%
%TO.N,Col10*%
X110700000Y-79715000D03*
%TO.P,SW42,2,2*%
%TO.N,Net-(D42-A)*%
X123627000Y-77175000D03*
%TD*%
%TO.P,SW20,1,1*%
%TO.N,Col1*%
X172995000Y-117965000D03*
%TO.P,SW20,2,2*%
%TO.N,Net-(D20-A)*%
X185922000Y-115425000D03*
%TD*%
%TO.P,SW22,1,1*%
%TO.N,Col3*%
X211095000Y-110821250D03*
%TO.P,SW22,2,2*%
%TO.N,Net-(D22-A)*%
X224022000Y-108281250D03*
%TD*%
%TO.P,SW43,1,1*%
%TO.N,Col10*%
X110747500Y-98830000D03*
%TO.P,SW43,2,2*%
%TO.N,Net-(D43-A)*%
X123674500Y-96290000D03*
%TD*%
%TO.P,SW11,1,1*%
%TO.N,Col4*%
X230145000Y-78277500D03*
%TO.P,SW11,2,2*%
%TO.N,Net-(D11-A)*%
X243072000Y-75737500D03*
%TD*%
%TO.P,SW4,1,1*%
%TO.N,Col3*%
X211095000Y-53671250D03*
%TO.P,SW4,2,2*%
%TO.N,Net-(D4-A)*%
X224022000Y-51131250D03*
%TD*%
%TO.P,SW47,1,1*%
%TO.N,Col11*%
X129805000Y-102070000D03*
%TO.P,SW47,2,2*%
%TO.N,Net-(D47-A)*%
X142732000Y-99530000D03*
%TD*%
%TO.P,SW36,1,1*%
%TO.N,Col8*%
X72515000Y-110810000D03*
%TO.P,SW36,2,2*%
%TO.N,Net-(D36-A)*%
X85442000Y-108270000D03*
%TD*%
%TO.P,SW9,1,1*%
%TO.N,Col2*%
X192045000Y-75102500D03*
%TO.P,SW9,2,2*%
%TO.N,Net-(D9-A)*%
X204972000Y-72562500D03*
%TD*%
%TO.P,SW41,1,1*%
%TO.N,Col10*%
X110812500Y-60705000D03*
%TO.P,SW41,2,2*%
%TO.N,Net-(D41-A)*%
X123739500Y-58165000D03*
%TD*%
%TO.P,SW26,1,1*%
%TO.N,Col6*%
X34505000Y-82890000D03*
%TO.P,SW26,2,2*%
%TO.N,Net-(D26-A)*%
X47432000Y-80350000D03*
%TD*%
%TO.P,SW39,1,1*%
%TO.N,Col9*%
X91627500Y-94130000D03*
%TO.P,SW39,2,2*%
%TO.N,Net-(D39-A)*%
X104554500Y-91590000D03*
%TD*%
%TO.P,SW48,1,1*%
%TO.N,Col11*%
X129705000Y-121000000D03*
%TO.P,SW48,2,2*%
%TO.N,Net-(D48-A)*%
X142632000Y-118460000D03*
%TD*%
%TO.P,SW18,1,1*%
%TO.N,Col5*%
X249195000Y-102090000D03*
%TO.P,SW18,2,2*%
%TO.N,Net-(D18-A)*%
X262122000Y-99550000D03*
%TD*%
%TO.P,SW6,1,1*%
%TO.N,Col5*%
X249195000Y-63990000D03*
%TO.P,SW6,2,2*%
%TO.N,Net-(D6-A)*%
X262122000Y-61450000D03*
%TD*%
D11*
%TO.P,U2,1,P0.02_AIN0_LOW_A0_D0*%
%TO.N,Row4*%
X13203750Y-115533750D03*
%TO.P,U2,2,P0.03_AIN1_LOW_A1_D1*%
%TO.N,Row5*%
X13203750Y-118073750D03*
%TO.P,U2,3,P0.28_AIN4_LOW_A2_D2*%
%TO.N,Row6*%
X13203750Y-120613750D03*
%TO.P,U2,4,P0.29_AIN5_LOW_A3_D3*%
%TO.N,Row7*%
X13203750Y-123153750D03*
%TO.P,U2,5,P0.04_AIN2_A4_D4*%
%TO.N,Col6*%
X13203750Y-125693750D03*
%TO.P,U2,6,P0.05_AIN3_A5_D5*%
%TO.N,Col7*%
X13203750Y-128233750D03*
%TO.P,U2,7,P1.11_TX_D6*%
%TO.N,Col8*%
X13203750Y-130773750D03*
%TO.P,U2,8,P1.12_RX_D7*%
%TO.N,Col9*%
X28443750Y-130773750D03*
%TO.P,U2,9,P1.13_SCK_D8*%
%TO.N,Col10*%
X28443750Y-128233750D03*
%TO.P,U2,10,P1.14_MISO_D9*%
%TO.N,Col11*%
X28443750Y-125693750D03*
%TO.P,U2,11,P1.15_MOSI_D10*%
%TO.N,unconnected-(U2-P1.15_MOSI_D10-Pad11)*%
X28443750Y-123153750D03*
%TO.P,U2,12,3V3*%
%TO.N,unconnected-(U2-3V3-Pad12)_1*%
X28443750Y-120613750D03*
%TO.P,U2,13,GND*%
%TO.N,unconnected-(U2-GND-Pad13)_1*%
X28443750Y-118073750D03*
%TO.P,U2,14,VBUS*%
%TO.N,unconnected-(U2-VBUS-Pad14)_1*%
X28443750Y-115533750D03*
%TD*%
D10*
%TO.P,SW7,1,1*%
%TO.N,Col0*%
X153945000Y-83040000D03*
%TO.P,SW7,2,2*%
%TO.N,Net-(D7-A)*%
X166872000Y-80500000D03*
%TD*%
%TO.P,SW15,1,1*%
%TO.N,Col2*%
X192045000Y-94152500D03*
%TO.P,SW15,2,2*%
%TO.N,Net-(D15-A)*%
X204972000Y-91612500D03*
%TD*%
%TO.P,SW1,1,1*%
%TO.N,Col0*%
X153945000Y-63990000D03*
%TO.P,SW1,2,2*%
%TO.N,Net-(D1-A)*%
X166872000Y-61450000D03*
%TD*%
%TO.P,SW5,1,1*%
%TO.N,Col4*%
X230145000Y-59227500D03*
%TO.P,SW5,2,2*%
%TO.N,Net-(D5-A)*%
X243072000Y-56687500D03*
%TD*%
%TO.P,SW27,1,1*%
%TO.N,Col6*%
X34575000Y-102050000D03*
%TO.P,SW27,2,2*%
%TO.N,Net-(D27-A)*%
X47502000Y-99510000D03*
%TD*%
%TO.P,SW8,1,1*%
%TO.N,Col1*%
X172995000Y-79865000D03*
%TO.P,SW8,2,2*%
%TO.N,Net-(D8-A)*%
X185922000Y-77325000D03*
%TD*%
%TO.P,SW31,1,1*%
%TO.N,Col7*%
X53557500Y-97420000D03*
%TO.P,SW31,2,2*%
%TO.N,Net-(D31-A)*%
X66484500Y-94880000D03*
%TD*%
%TO.P,SW21,1,1*%
%TO.N,Col2*%
X192045000Y-113202500D03*
%TO.P,SW21,2,2*%
%TO.N,Net-(D21-A)*%
X204972000Y-110662500D03*
%TD*%
%TO.P,SW40,1,1*%
%TO.N,Col9*%
X91735000Y-113210000D03*
%TO.P,SW40,2,2*%
%TO.N,Net-(D40-A)*%
X104662000Y-110670000D03*
%TD*%
%TO.P,SW16,1,1*%
%TO.N,Col3*%
X211095000Y-91771250D03*
%TO.P,SW16,2,2*%
%TO.N,Net-(D16-A)*%
X224022000Y-89231250D03*
%TD*%
%TO.P,SW37,1,1*%
%TO.N,Col9*%
X91797500Y-55942500D03*
%TO.P,SW37,2,2*%
%TO.N,Net-(D37-A)*%
X104724500Y-53402500D03*
%TD*%
%TO.P,SW14,1,1*%
%TO.N,Col1*%
X172995000Y-98915000D03*
%TO.P,SW14,2,2*%
%TO.N,Net-(D14-A)*%
X185922000Y-96375000D03*
%TD*%
%TO.P,SW29,1,1*%
%TO.N,Col7*%
X53667500Y-59115000D03*
%TO.P,SW29,2,2*%
%TO.N,Net-(D29-A)*%
X66594500Y-56575000D03*
%TD*%
%TO.P,SW10,1,1*%
%TO.N,Col3*%
X211095000Y-72721250D03*
%TO.P,SW10,2,2*%
%TO.N,Net-(D10-A)*%
X224022000Y-70181250D03*
%TD*%
%TO.P,SW32,1,1*%
%TO.N,Col7*%
X53657500Y-116410000D03*
%TO.P,SW32,2,2*%
%TO.N,Net-(D32-A)*%
X66584500Y-113870000D03*
%TD*%
%TO.P,SW3,1,1*%
%TO.N,Col2*%
X192045000Y-56052500D03*
%TO.P,SW3,2,2*%
%TO.N,Net-(D3-A)*%
X204972000Y-53512500D03*
%TD*%
%TO.P,SW34,1,1*%
%TO.N,Col8*%
X72620000Y-72571250D03*
%TO.P,SW34,2,2*%
%TO.N,Net-(D34-A)*%
X85547000Y-70031250D03*
%TD*%
%TO.P,SW25,1,1*%
%TO.N,Col6*%
X34617500Y-63880000D03*
%TO.P,SW25,2,2*%
%TO.N,Net-(D25-A)*%
X47544500Y-61340000D03*
%TD*%
%TO.P,SW19,1,1*%
%TO.N,Col0*%
X153945000Y-121140000D03*
%TO.P,SW19,2,2*%
%TO.N,Net-(D19-A)*%
X166872000Y-118600000D03*
%TD*%
D12*
%TO.P,D22,1,K*%
%TO.N,Row3*%
X226680000Y-115197500D03*
%TO.P,D22,2,A*%
%TO.N,Net-(D22-A)*%
X226680000Y-111897500D03*
%TD*%
%TO.P,D38,1,K*%
%TO.N,Row5*%
X107480000Y-79100000D03*
%TO.P,D38,2,A*%
%TO.N,Net-(D38-A)*%
X107480000Y-75800000D03*
%TD*%
%TO.P,D41,1,K*%
%TO.N,Row4*%
X126550000Y-65000000D03*
%TO.P,D41,2,A*%
%TO.N,Net-(D41-A)*%
X126550000Y-61700000D03*
%TD*%
%TO.P,D42,1,K*%
%TO.N,Row5*%
X126360000Y-83680000D03*
%TO.P,D42,2,A*%
%TO.N,Net-(D42-A)*%
X126360000Y-80380000D03*
%TD*%
%TO.P,D44,1,K*%
%TO.N,Row7*%
X126490000Y-121917500D03*
%TO.P,D44,2,A*%
%TO.N,Net-(D44-A)*%
X126490000Y-118617500D03*
%TD*%
%TO.P,D19,1,K*%
%TO.N,Row3*%
X169370000Y-125177500D03*
%TO.P,D19,2,A*%
%TO.N,Net-(D19-A)*%
X169370000Y-121877500D03*
%TD*%
%TO.P,D25,1,K*%
%TO.N,Row4*%
X50160000Y-68307500D03*
%TO.P,D25,2,A*%
%TO.N,Net-(D25-A)*%
X50160000Y-65007500D03*
%TD*%
%TO.P,D39,1,K*%
%TO.N,Row6*%
X107440000Y-98220000D03*
%TO.P,D39,2,A*%
%TO.N,Net-(D39-A)*%
X107440000Y-94920000D03*
%TD*%
%TO.P,D40,1,K*%
%TO.N,Row7*%
X107420000Y-117437500D03*
%TO.P,D40,2,A*%
%TO.N,Net-(D40-A)*%
X107420000Y-114137500D03*
%TD*%
%TO.P,D23,1,K*%
%TO.N,Row3*%
X245840000Y-120630000D03*
%TO.P,D23,2,A*%
%TO.N,Net-(D23-A)*%
X245840000Y-117330000D03*
%TD*%
%TO.P,D16,1,K*%
%TO.N,Row2*%
X227010000Y-95877500D03*
%TO.P,D16,2,A*%
%TO.N,Net-(D16-A)*%
X227010000Y-92577500D03*
%TD*%
%TO.P,D18,1,K*%
%TO.N,Row2*%
X265070000Y-106217500D03*
%TO.P,D18,2,A*%
%TO.N,Net-(D18-A)*%
X265070000Y-102917500D03*
%TD*%
%TO.P,D35,1,K*%
%TO.N,Row6*%
X88400000Y-95937500D03*
%TO.P,D35,2,A*%
%TO.N,Net-(D35-A)*%
X88400000Y-92637500D03*
%TD*%
%TO.P,D24,1,K*%
%TO.N,Row3*%
X264850000Y-125287500D03*
%TO.P,D24,2,A*%
%TO.N,Net-(D24-A)*%
X264850000Y-121987500D03*
%TD*%
%TO.P,D17,1,K*%
%TO.N,Row2*%
X246020000Y-101687500D03*
%TO.P,D17,2,A*%
%TO.N,Net-(D17-A)*%
X246020000Y-98387500D03*
%TD*%
%TO.P,D14,1,K*%
%TO.N,Row2*%
X188710000Y-102910000D03*
%TO.P,D14,2,A*%
%TO.N,Net-(D14-A)*%
X188710000Y-99610000D03*
%TD*%
%TO.P,D48,1,K*%
%TO.N,Row7*%
X145220000Y-125020000D03*
%TO.P,D48,2,A*%
%TO.N,Net-(D48-A)*%
X145220000Y-121720000D03*
%TD*%
%TO.P,D32,1,K*%
%TO.N,Row7*%
X69300000Y-120557500D03*
%TO.P,D32,2,A*%
%TO.N,Net-(D32-A)*%
X69300000Y-117257500D03*
%TD*%
%TO.P,D27,1,K*%
%TO.N,Row6*%
X50490000Y-105997500D03*
%TO.P,D27,2,A*%
%TO.N,Net-(D27-A)*%
X50490000Y-102697500D03*
%TD*%
%TO.P,D5,1,K*%
%TO.N,Row0*%
X246000000Y-63507500D03*
%TO.P,D5,2,A*%
%TO.N,Net-(D5-A)*%
X246000000Y-60207500D03*
%TD*%
%TO.P,D13,1,K*%
%TO.N,Row2*%
X169620000Y-105990000D03*
%TO.P,D13,2,A*%
%TO.N,Net-(D13-A)*%
X169620000Y-102690000D03*
%TD*%
%TO.P,D29,1,K*%
%TO.N,Row4*%
X69750000Y-63500000D03*
%TO.P,D29,2,A*%
%TO.N,Net-(D29-A)*%
X69750000Y-60200000D03*
%TD*%
%TO.P,D28,1,K*%
%TO.N,Row7*%
X50230000Y-125090000D03*
%TO.P,D28,2,A*%
%TO.N,Net-(D28-A)*%
X50230000Y-121790000D03*
%TD*%
%TO.P,D7,1,K*%
%TO.N,Row1*%
X169740000Y-87120000D03*
%TO.P,D7,2,A*%
%TO.N,Net-(D7-A)*%
X169740000Y-83820000D03*
%TD*%
%TO.P,D6,1,K*%
%TO.N,Row0*%
X265090000Y-68347500D03*
%TO.P,D6,2,A*%
%TO.N,Net-(D6-A)*%
X265090000Y-65047500D03*
%TD*%
%TO.P,D8,1,K*%
%TO.N,Row1*%
X188790000Y-83877500D03*
%TO.P,D8,2,A*%
%TO.N,Net-(D8-A)*%
X188790000Y-80577500D03*
%TD*%
%TO.P,D1,1,K*%
%TO.N,Row0*%
X169890000Y-68087500D03*
%TO.P,D1,2,A*%
%TO.N,Net-(D1-A)*%
X169890000Y-64787500D03*
%TD*%
%TO.P,D45,1,K*%
%TO.N,Row4*%
X145920000Y-68220000D03*
%TO.P,D45,2,A*%
%TO.N,Net-(D45-A)*%
X145920000Y-64920000D03*
%TD*%
%TO.P,D21,1,K*%
%TO.N,Row3*%
X207770000Y-117747500D03*
%TO.P,D21,2,A*%
%TO.N,Net-(D21-A)*%
X207770000Y-114447500D03*
%TD*%
%TO.P,D46,1,K*%
%TO.N,Row5*%
X145700000Y-87360000D03*
%TO.P,D46,2,A*%
%TO.N,Net-(D46-A)*%
X145700000Y-84060000D03*
%TD*%
%TO.P,D43,1,K*%
%TO.N,Row6*%
X126460000Y-102930000D03*
%TO.P,D43,2,A*%
%TO.N,Net-(D43-A)*%
X126460000Y-99630000D03*
%TD*%
%TO.P,D33,1,K*%
%TO.N,Row4*%
X88440000Y-57610000D03*
%TO.P,D33,2,A*%
%TO.N,Net-(D33-A)*%
X88440000Y-54310000D03*
%TD*%
%TO.P,D15,1,K*%
%TO.N,Row2*%
X207830000Y-98257500D03*
%TO.P,D15,2,A*%
%TO.N,Net-(D15-A)*%
X207830000Y-94957500D03*
%TD*%
%TO.P,D10,1,K*%
%TO.N,Row1*%
X226990000Y-76867500D03*
%TO.P,D10,2,A*%
%TO.N,Net-(D10-A)*%
X226990000Y-73567500D03*
%TD*%
%TO.P,D34,1,K*%
%TO.N,Row5*%
X88370000Y-76920000D03*
%TO.P,D34,2,A*%
%TO.N,Net-(D34-A)*%
X88370000Y-73620000D03*
%TD*%
%TO.P,D4,1,K*%
%TO.N,Row0*%
X226700000Y-57757500D03*
%TO.P,D4,2,A*%
%TO.N,Net-(D4-A)*%
X226700000Y-54457500D03*
%TD*%
%TO.P,D30,1,K*%
%TO.N,Row5*%
X69200000Y-82310000D03*
%TO.P,D30,2,A*%
%TO.N,Net-(D30-A)*%
X69200000Y-79010000D03*
%TD*%
%TO.P,D3,1,K*%
%TO.N,Row0*%
X207930000Y-60287500D03*
%TO.P,D3,2,A*%
%TO.N,Net-(D3-A)*%
X207930000Y-56987500D03*
%TD*%
%TO.P,D37,1,K*%
%TO.N,Row4*%
X107540000Y-60280000D03*
%TO.P,D37,2,A*%
%TO.N,Net-(D37-A)*%
X107540000Y-56980000D03*
%TD*%
%TO.P,D2,1,K*%
%TO.N,Row0*%
X188830000Y-64907500D03*
%TO.P,D2,2,A*%
%TO.N,Net-(D2-A)*%
X188830000Y-61607500D03*
%TD*%
%TO.P,D36,1,K*%
%TO.N,Row7*%
X88260000Y-114737500D03*
%TO.P,D36,2,A*%
%TO.N,Net-(D36-A)*%
X88260000Y-111437500D03*
%TD*%
%TO.P,D20,1,K*%
%TO.N,Row3*%
X188560000Y-122310000D03*
%TO.P,D20,2,A*%
%TO.N,Net-(D20-A)*%
X188560000Y-119010000D03*
%TD*%
%TO.P,D26,1,K*%
%TO.N,Row5*%
X50070000Y-87140000D03*
%TO.P,D26,2,A*%
%TO.N,Net-(D26-A)*%
X50070000Y-83840000D03*
%TD*%
%TO.P,D12,1,K*%
%TO.N,Row1*%
X265110000Y-87360000D03*
%TO.P,D12,2,A*%
%TO.N,Net-(D12-A)*%
X265110000Y-84060000D03*
%TD*%
%TO.P,D11,1,K*%
%TO.N,Row1*%
X246010000Y-82397500D03*
%TO.P,D11,2,A*%
%TO.N,Net-(D11-A)*%
X246010000Y-79097500D03*
%TD*%
%TO.P,D47,1,K*%
%TO.N,Row6*%
X145600000Y-106370000D03*
%TO.P,D47,2,A*%
%TO.N,Net-(D47-A)*%
X145600000Y-103070000D03*
%TD*%
%TO.P,D31,1,K*%
%TO.N,Row6*%
X69080000Y-101430000D03*
%TO.P,D31,2,A*%
%TO.N,Net-(D31-A)*%
X69080000Y-98130000D03*
%TD*%
%TO.P,D9,1,K*%
%TO.N,Row1*%
X207860000Y-79300000D03*
%TO.P,D9,2,A*%
%TO.N,Net-(D9-A)*%
X207860000Y-76000000D03*
%TD*%
D13*
%TO.N,Col9*%
X92900000Y-78880000D03*
X91627500Y-94130000D03*
%TO.N,Col4*%
X230470000Y-80550000D03*
X230145000Y-97337500D03*
%TO.N,Col11*%
X87370735Y-121580735D03*
X35160000Y-125670000D03*
X48400735Y-126070735D03*
X56300072Y-125890072D03*
X89240000Y-122120000D03*
X127736985Y-124013015D03*
X129705000Y-121000000D03*
%TO.N,Col9*%
X90686985Y-118013015D03*
X86540000Y-123260000D03*
X91735000Y-113210000D03*
%TO.N,Row2*%
X265180000Y-106160000D03*
%TO.N,Col2*%
X243746685Y-122214785D03*
X192450000Y-116700000D03*
X262040000Y-128540000D03*
%TO.N,Col0*%
X153720000Y-123410000D03*
%TO.N,Col4*%
X240600000Y-127827000D03*
X230300000Y-115530000D03*
X245650000Y-129745118D03*
%TO.N,Col5*%
X274020000Y-126627000D03*
%TO.N,Col3*%
X232529535Y-127230465D03*
X212570000Y-119000000D03*
X211250000Y-115200000D03*
X211040000Y-98857500D03*
X211095000Y-91771250D03*
%TO.N,Col4*%
X230310000Y-63260000D03*
X230310000Y-60050000D03*
%TO.N,Col3*%
X211100000Y-56850000D03*
X211100000Y-60887500D03*
X210910000Y-80220000D03*
X210760000Y-78470000D03*
%TO.N,Col2*%
X190850000Y-102310000D03*
X192045000Y-113202500D03*
X191990000Y-84477500D03*
X192045000Y-75102500D03*
%TO.N,Col4*%
X230145000Y-113901500D03*
%TO.N,Col5*%
X249200000Y-101360000D03*
X249180000Y-118664000D03*
X249195000Y-121140000D03*
X249210000Y-64640000D03*
X249195000Y-83040000D03*
%TO.N,Col10*%
X110700000Y-77239000D03*
X111040000Y-97554000D03*
X110700000Y-79715000D03*
X110850000Y-115464000D03*
X110775000Y-117940000D03*
%TO.N,Col8*%
X72670000Y-100710000D03*
X72830000Y-102030000D03*
%TO.N,Col9*%
X91790000Y-98421000D03*
X91790000Y-99780000D03*
X91920000Y-62110000D03*
X91970315Y-60233500D03*
%TO.N,Col8*%
X72600000Y-84250000D03*
X72650000Y-81710000D03*
X72550000Y-64100000D03*
X72737500Y-53553750D03*
%TO.N,Col7*%
X53500000Y-87740000D03*
X53550000Y-86540000D03*
%TO.N,Col8*%
X15770000Y-128310000D03*
X72515000Y-110810000D03*
%TO.N,Col7*%
X15960000Y-127010000D03*
X53657500Y-116410000D03*
%TO.N,Row6*%
X18720000Y-113618500D03*
X50490000Y-105997500D03*
%TO.N,Row4*%
X14800000Y-114760000D03*
X50160000Y-68307500D03*
%TO.N,Col6*%
X35333015Y-96793015D03*
X34505000Y-82890000D03*
%TD*%
D14*
%TO.N,Col4*%
X245650000Y-129745118D02*
X246235118Y-129745118D01*
X246235118Y-129745118D02*
X246710000Y-130220000D01*
X246710000Y-131430803D02*
X247172197Y-131893000D01*
X246710000Y-130220000D02*
X246710000Y-131430803D01*
X247172197Y-131893000D02*
X284564060Y-131893000D01*
X284564060Y-131893000D02*
X285186750Y-131270310D01*
X285186750Y-129353000D02*
X284123750Y-128290000D01*
X285186750Y-131270310D02*
X285186750Y-129353000D01*
%TO.N,Col9*%
X91685000Y-77665000D02*
X92900000Y-78880000D01*
X91685000Y-74952500D02*
X91685000Y-77665000D01*
%TO.N,Col4*%
X230145000Y-80225000D02*
X230470000Y-80550000D01*
X230145000Y-78277500D02*
X230145000Y-80225000D01*
%TO.N,Row7*%
X69300000Y-120557500D02*
X82440000Y-120557500D01*
X82440000Y-120557500D02*
X88260000Y-114737500D01*
%TO.N,Row5*%
X50070000Y-87140000D02*
X44137500Y-87140000D01*
X44137500Y-87140000D02*
X31044750Y-100232750D01*
X31044750Y-100232750D02*
X31044750Y-112975250D01*
X31044750Y-112975250D02*
X30830000Y-113190000D01*
X18259000Y-113018500D02*
X13203750Y-118073750D01*
X30830000Y-113190000D02*
X29980348Y-113190000D01*
X29980348Y-113190000D02*
X29808848Y-113018500D01*
X29808848Y-113018500D02*
X18259000Y-113018500D01*
%TO.N,Col11*%
X69690000Y-125000000D02*
X73109265Y-121580735D01*
X73109265Y-121580735D02*
X87370735Y-121580735D01*
X35160000Y-125670000D02*
X35560735Y-126070735D01*
X35560735Y-126070735D02*
X48400735Y-126070735D01*
X89240000Y-122120000D02*
X91133015Y-124013015D01*
X91133015Y-124013015D02*
X127736985Y-124013015D01*
X68799928Y-125890072D02*
X69690000Y-125000000D01*
X56300072Y-125890072D02*
X68799928Y-125890072D01*
%TO.N,Col9*%
X90686985Y-119113015D02*
X90686985Y-118013015D01*
X86540000Y-123260000D02*
X90686985Y-119113015D01*
%TO.N,Col2*%
X192045000Y-113202500D02*
X192450000Y-113607500D01*
X192450000Y-113607500D02*
X192450000Y-116700000D01*
X250270900Y-128739000D02*
X261841000Y-128739000D01*
X261841000Y-128739000D02*
X262040000Y-128540000D01*
X243746685Y-122214785D02*
X250270900Y-128739000D01*
%TO.N,Col0*%
X153720000Y-121365000D02*
X153720000Y-123410000D01*
X153945000Y-121140000D02*
X153720000Y-121365000D01*
%TO.N,Col4*%
X240600000Y-127827000D02*
X240600000Y-127637000D01*
X240600000Y-127637000D02*
X239590000Y-126627000D01*
%TO.N,Col1*%
X172995000Y-117965000D02*
X172995000Y-120202390D01*
X172995000Y-120202390D02*
X168469000Y-124728390D01*
X168469000Y-124728390D02*
X168469000Y-125626610D01*
X168469000Y-125626610D02*
X168770890Y-125928500D01*
X168770890Y-125928500D02*
X200939110Y-125928500D01*
X200939110Y-125928500D02*
X208719110Y-118148500D01*
X208719110Y-118148500D02*
X224296100Y-118148500D01*
X224296100Y-118148500D02*
X235287600Y-129140000D01*
X235287600Y-129140000D02*
X268033750Y-129140000D01*
X268033750Y-129140000D02*
X268883750Y-128290000D01*
%TO.N,Col3*%
X232529535Y-127230465D02*
X232529535Y-126949035D01*
X213020500Y-118549500D02*
X212570000Y-119000000D01*
X232529535Y-126949035D02*
X224130000Y-118549500D01*
X224130000Y-118549500D02*
X213020500Y-118549500D01*
%TO.N,Col4*%
X237387000Y-126627000D02*
X239590000Y-126627000D01*
X230145000Y-119385000D02*
X237387000Y-126627000D01*
X230145000Y-116377500D02*
X230145000Y-119385000D01*
X230145000Y-115685000D02*
X230300000Y-115530000D01*
X230145000Y-116377500D02*
X230145000Y-115685000D01*
%TO.N,Col5*%
X278223000Y-130830000D02*
X274020000Y-126627000D01*
X284123750Y-130830000D02*
X278223000Y-130830000D01*
%TO.N,Col3*%
X211095000Y-115045000D02*
X211250000Y-115200000D01*
X211095000Y-110821250D02*
X211095000Y-115045000D01*
X211095000Y-98912500D02*
X211040000Y-98857500D01*
X211095000Y-110821250D02*
X211095000Y-98912500D01*
%TO.N,Col0*%
X153945000Y-63990000D02*
X153945000Y-83040000D01*
%TO.N,Col4*%
X230145000Y-63795000D02*
X230145000Y-78277500D01*
X230145000Y-59227500D02*
X230145000Y-59885000D01*
X230145000Y-59885000D02*
X230310000Y-60050000D01*
X230310000Y-63260000D02*
X230310000Y-63630000D01*
X230310000Y-63630000D02*
X230145000Y-63795000D01*
%TO.N,Col3*%
X211095000Y-72721250D02*
X211095000Y-60892500D01*
X211095000Y-60892500D02*
X211100000Y-60887500D01*
X211095000Y-56845000D02*
X211095000Y-53671250D01*
X211100000Y-56850000D02*
X211095000Y-56845000D01*
X211095000Y-72721250D02*
X211095000Y-78135000D01*
X211095000Y-78135000D02*
X210760000Y-78470000D01*
X211095000Y-80405000D02*
X211095000Y-91771250D01*
X210910000Y-80220000D02*
X211095000Y-80405000D01*
%TO.N,Col1*%
X172995000Y-117965000D02*
X168719000Y-113689000D01*
X168719000Y-113689000D02*
X168719000Y-105540890D01*
X168719000Y-105540890D02*
X172995000Y-101264890D01*
X172995000Y-101264890D02*
X172995000Y-98915000D01*
%TO.N,Col11*%
X129705000Y-121000000D02*
X143343000Y-107362000D01*
X142769110Y-83079000D02*
X135861184Y-83079000D01*
X143343000Y-107362000D02*
X145958110Y-107362000D01*
X146601000Y-86910890D02*
X142769110Y-83079000D01*
X145958110Y-107362000D02*
X146601000Y-106719110D01*
X146601000Y-106719110D02*
X146601000Y-86910890D01*
X135861184Y-83079000D02*
X131560184Y-87380000D01*
X131560184Y-87380000D02*
X130627100Y-87380000D01*
X130627100Y-87380000D02*
X129750000Y-86502900D01*
X129750000Y-86502900D02*
X129750000Y-82890000D01*
X131615184Y-106560000D02*
X130657100Y-106560000D01*
X146501000Y-106819110D02*
X146501000Y-105920890D01*
X146501000Y-105920890D02*
X142839110Y-102259000D01*
X142839110Y-102259000D02*
X135916184Y-102259000D01*
X145958110Y-107362000D02*
X146501000Y-106819110D01*
X135916184Y-102259000D02*
X131615184Y-106560000D01*
X130657100Y-106560000D02*
X129805000Y-105707900D01*
X129805000Y-105707900D02*
X129805000Y-102070000D01*
%TO.N,Col0*%
X153945000Y-121140000D02*
X153945000Y-83040000D01*
X153945000Y-121140000D02*
X153945000Y-102090000D01*
%TO.N,Col2*%
X192045000Y-101115000D02*
X190850000Y-102310000D01*
X192045000Y-94152500D02*
X192045000Y-101115000D01*
X192045000Y-84532500D02*
X191990000Y-84477500D01*
X192045000Y-94152500D02*
X192045000Y-84532500D01*
%TO.N,Col1*%
X172995000Y-79865000D02*
X168588000Y-75458000D01*
X172995000Y-63065290D02*
X172995000Y-60815000D01*
X168588000Y-75458000D02*
X168588000Y-67472290D01*
X168588000Y-67472290D02*
X172995000Y-63065290D01*
X172995000Y-79865000D02*
X172995000Y-82514890D01*
X172995000Y-82514890D02*
X168839000Y-86670890D01*
X168839000Y-86670890D02*
X168839000Y-94759000D01*
X168839000Y-94759000D02*
X172995000Y-98915000D01*
%TO.N,Col2*%
X192045000Y-56052500D02*
X192045000Y-60342390D01*
X192045000Y-60342390D02*
X185050890Y-67336500D01*
X185050890Y-67336500D02*
X169290890Y-67336500D01*
X169290890Y-67336500D02*
X168989000Y-67638390D01*
X168989000Y-67638390D02*
X168989000Y-68536610D01*
X168989000Y-68536610D02*
X175554890Y-75102500D01*
X175554890Y-75102500D02*
X192045000Y-75102500D01*
%TO.N,Col4*%
X230145000Y-97337500D02*
X230145000Y-113901500D01*
%TO.N,Col5*%
X249195000Y-101365000D02*
X249200000Y-101360000D01*
X249195000Y-102090000D02*
X249195000Y-101365000D01*
X249195000Y-118649000D02*
X249180000Y-118664000D01*
X249195000Y-102090000D02*
X249195000Y-118649000D01*
X249195000Y-64625000D02*
X249210000Y-64640000D01*
X249195000Y-63990000D02*
X249195000Y-64625000D01*
%TO.N,Col11*%
X129862500Y-63880000D02*
X129862500Y-67745400D01*
X146821000Y-67770890D02*
X146821000Y-68669110D01*
X129862500Y-67745400D02*
X132297284Y-67745400D01*
X132297284Y-67745400D02*
X135973684Y-64069000D01*
X135973684Y-64069000D02*
X143119110Y-64069000D01*
X143119110Y-64069000D02*
X146821000Y-67770890D01*
X143468000Y-69172000D02*
X129750000Y-82890000D01*
X146821000Y-68669110D02*
X146318110Y-69172000D01*
X146318110Y-69172000D02*
X143468000Y-69172000D01*
%TO.N,Col10*%
X110812500Y-60705000D02*
X110812500Y-77126500D01*
X110812500Y-77126500D02*
X110700000Y-77239000D01*
X110747500Y-97846500D02*
X111040000Y-97554000D01*
X110747500Y-98830000D02*
X110747500Y-97846500D01*
X110747500Y-115361500D02*
X110850000Y-115464000D01*
X110747500Y-98830000D02*
X110747500Y-115361500D01*
%TO.N,Col8*%
X72670000Y-100710000D02*
X72647500Y-100687500D01*
X72515000Y-110810000D02*
X72515000Y-102345000D01*
X72647500Y-100687500D02*
X72647500Y-91790000D01*
X72515000Y-102345000D02*
X72830000Y-102030000D01*
%TO.N,Col9*%
X91735000Y-113210000D02*
X91735000Y-99835000D01*
X91735000Y-99835000D02*
X91790000Y-99780000D01*
X91627500Y-98258500D02*
X91627500Y-94130000D01*
X91790000Y-98421000D02*
X91627500Y-98258500D01*
X91797500Y-55942500D02*
X91797500Y-60060685D01*
X91797500Y-60060685D02*
X91970315Y-60233500D01*
X91920000Y-62110000D02*
X91685000Y-62345000D01*
X91685000Y-62345000D02*
X91685000Y-74952500D01*
%TO.N,Col8*%
X72620000Y-72571250D02*
X72620000Y-81680000D01*
X72620000Y-81680000D02*
X72650000Y-81710000D01*
X72647500Y-84617500D02*
X72647500Y-91790000D01*
X72600000Y-84250000D02*
X72600000Y-84570000D01*
X72600000Y-84570000D02*
X72647500Y-84617500D01*
X72620000Y-64170000D02*
X72550000Y-64100000D01*
X72620000Y-72571250D02*
X72620000Y-64170000D01*
%TO.N,Col7*%
X53557500Y-87797500D02*
X53557500Y-97420000D01*
X53500000Y-87740000D02*
X53557500Y-87797500D01*
X53555000Y-78125000D02*
X53555000Y-86535000D01*
X53555000Y-86535000D02*
X53550000Y-86540000D01*
X53555000Y-78125000D02*
X49259000Y-73829000D01*
X49259000Y-73829000D02*
X49259000Y-67858390D01*
X49259000Y-67858390D02*
X53667500Y-63449890D01*
X53667500Y-63449890D02*
X53667500Y-59115000D01*
%TO.N,Col8*%
X15667500Y-128310000D02*
X15770000Y-128310000D01*
X13203750Y-130773750D02*
X15667500Y-128310000D01*
%TO.N,Col7*%
X14736250Y-128233750D02*
X15960000Y-127010000D01*
X13203750Y-128233750D02*
X14736250Y-128233750D01*
%TO.N,Col6*%
X13203750Y-125693750D02*
X12140750Y-124630750D01*
X12140750Y-124630750D02*
X12140750Y-122713440D01*
X12140750Y-122713440D02*
X13024190Y-121830000D01*
X13024190Y-121830000D02*
X33705000Y-121830000D01*
X33705000Y-121830000D02*
X34515000Y-121020000D01*
%TO.N,Row6*%
X14450000Y-119367500D02*
X14450000Y-117610000D01*
X13203750Y-120613750D02*
X14450000Y-119367500D01*
X14450000Y-117610000D02*
X18441500Y-113618500D01*
X18441500Y-113618500D02*
X18720000Y-113618500D01*
%TO.N,Row4*%
X13203750Y-115533750D02*
X14026250Y-115533750D01*
X14026250Y-115533750D02*
X14800000Y-114760000D01*
%TO.N,Col6*%
X34575000Y-97551030D02*
X35333015Y-96793015D01*
X34575000Y-102050000D02*
X34575000Y-97551030D01*
X34575000Y-102050000D02*
X34575000Y-120960000D01*
X34575000Y-120960000D02*
X34515000Y-121020000D01*
%TO.N,Col7*%
X53657500Y-116410000D02*
X49589000Y-112341500D01*
X49589000Y-112341500D02*
X49589000Y-104948610D01*
X49589000Y-104948610D02*
X53557500Y-100980110D01*
X53557500Y-100980110D02*
X53557500Y-97420000D01*
%TO.N,Col6*%
X34617500Y-63880000D02*
X34617500Y-82777500D01*
X34617500Y-82777500D02*
X34505000Y-82890000D01*
%TO.N,Net-(D22-A)*%
X226680000Y-111897500D02*
X226680000Y-110939250D01*
X226680000Y-110939250D02*
X224022000Y-108281250D01*
%TO.N,Net-(D14-A)*%
X188710000Y-99610000D02*
X188710000Y-99163000D01*
X188710000Y-99163000D02*
X185922000Y-96375000D01*
%TO.N,Net-(D21-A)*%
X207770000Y-114447500D02*
X207770000Y-113460500D01*
X207770000Y-113460500D02*
X204972000Y-110662500D01*
%TO.N,Row3*%
X207770000Y-117747500D02*
X203207500Y-122310000D01*
X203207500Y-122310000D02*
X188560000Y-122310000D01*
X207770000Y-117747500D02*
X224130000Y-117747500D01*
X224130000Y-117747500D02*
X226680000Y-115197500D01*
%TO.N,Net-(D20-A)*%
X188560000Y-119010000D02*
X188560000Y-118063000D01*
X188560000Y-118063000D02*
X185922000Y-115425000D01*
%TO.N,Net-(D9-A)*%
X207860000Y-76000000D02*
X207860000Y-75450500D01*
X207860000Y-75450500D02*
X204972000Y-72562500D01*
%TO.N,Net-(D23-A)*%
X245840000Y-117330000D02*
X245840000Y-116605500D01*
X245840000Y-116605500D02*
X243072000Y-113837500D01*
%TO.N,Row3*%
X245840000Y-120630000D02*
X242267316Y-120630000D01*
X236138816Y-114501500D02*
X227376000Y-114501500D01*
X242267316Y-120630000D02*
X236138816Y-114501500D01*
X227376000Y-114501500D02*
X226680000Y-115197500D01*
X245840000Y-120630000D02*
X247206000Y-119264000D01*
X254613065Y-120630000D02*
X260192500Y-120630000D01*
X247206000Y-119264000D02*
X253247065Y-119264000D01*
X253247065Y-119264000D02*
X254613065Y-120630000D01*
X260192500Y-120630000D02*
X264850000Y-125287500D01*
%TO.N,Net-(D18-A)*%
X265070000Y-102917500D02*
X265070000Y-102498000D01*
X265070000Y-102498000D02*
X262122000Y-99550000D01*
%TO.N,Net-(D24-A)*%
X264850000Y-121987500D02*
X264850000Y-121328000D01*
X264850000Y-121328000D02*
X262122000Y-118600000D01*
%TO.N,Row3*%
X264850000Y-125287500D02*
X266806250Y-125287500D01*
X266806250Y-125287500D02*
X268883750Y-123210000D01*
%TO.N,Net-(D17-A)*%
X246020000Y-98387500D02*
X246020000Y-97745500D01*
X246020000Y-97745500D02*
X243072000Y-94797500D01*
%TO.N,Row2*%
X246020000Y-101687500D02*
X242364816Y-101687500D01*
X242364816Y-101687500D02*
X236138816Y-95461500D01*
X236138816Y-95461500D02*
X227426000Y-95461500D01*
X227426000Y-95461500D02*
X227010000Y-95877500D01*
X246020000Y-101687500D02*
X247493500Y-100214000D01*
X260540000Y-101687500D02*
X265070000Y-106217500D01*
X247493500Y-100214000D02*
X253247065Y-100214000D01*
X253247065Y-100214000D02*
X254720565Y-101687500D01*
X254720565Y-101687500D02*
X260540000Y-101687500D01*
%TO.N,Net-(D5-A)*%
X246000000Y-60207500D02*
X246000000Y-59615500D01*
X246000000Y-59615500D02*
X243072000Y-56687500D01*
%TO.N,Net-(D6-A)*%
X265090000Y-65047500D02*
X265090000Y-64418000D01*
X265090000Y-64418000D02*
X262122000Y-61450000D01*
%TO.N,Row0*%
X265090000Y-68347500D02*
X266372000Y-69629500D01*
X266372000Y-69629500D02*
X266372000Y-113078250D01*
X266372000Y-113078250D02*
X268883750Y-115590000D01*
X265090000Y-68347500D02*
X264556500Y-68881000D01*
X264556500Y-68881000D02*
X250923500Y-68881000D01*
X246000000Y-63957500D02*
X246000000Y-63507500D01*
X250923500Y-68881000D02*
X246000000Y-63957500D01*
%TO.N,Net-(D12-A)*%
X265110000Y-84060000D02*
X265110000Y-83488000D01*
X265110000Y-83488000D02*
X262122000Y-80500000D01*
%TO.N,Row1*%
X265110000Y-87360000D02*
X265971000Y-88221000D01*
X265971000Y-88221000D02*
X265971000Y-115217250D01*
X265971000Y-115217250D02*
X268883750Y-118130000D01*
X265110000Y-87360000D02*
X264539000Y-87931000D01*
X264539000Y-87931000D02*
X251093500Y-87931000D01*
X251093500Y-87931000D02*
X246010000Y-82847500D01*
X246010000Y-82847500D02*
X246010000Y-82397500D01*
%TO.N,Net-(D11-A)*%
X246010000Y-79097500D02*
X246010000Y-78675500D01*
X246010000Y-78675500D02*
X243072000Y-75737500D01*
%TO.N,Net-(D19-A)*%
X169370000Y-121877500D02*
X169370000Y-121098000D01*
X169370000Y-121098000D02*
X166872000Y-118600000D01*
%TO.N,Row3*%
X169370000Y-125177500D02*
X185692500Y-125177500D01*
X185692500Y-125177500D02*
X188560000Y-122310000D01*
%TO.N,Net-(D13-A)*%
X169620000Y-102690000D02*
X169620000Y-102298000D01*
X169620000Y-102298000D02*
X166872000Y-99550000D01*
%TO.N,Row2*%
X169620000Y-105990000D02*
X185630000Y-105990000D01*
X185630000Y-105990000D02*
X188710000Y-102910000D01*
%TO.N,Net-(D7-A)*%
X169740000Y-83820000D02*
X169740000Y-83368000D01*
X169740000Y-83368000D02*
X166872000Y-80500000D01*
%TO.N,Net-(D16-A)*%
X227010000Y-92577500D02*
X227010000Y-92219250D01*
X227010000Y-92219250D02*
X224022000Y-89231250D01*
%TO.N,Net-(D15-A)*%
X207830000Y-94957500D02*
X207830000Y-94470500D01*
X207830000Y-94470500D02*
X204972000Y-91612500D01*
%TO.N,Row2*%
X207830000Y-98257500D02*
X203177500Y-102910000D01*
X203177500Y-102910000D02*
X188710000Y-102910000D01*
X207830000Y-98257500D02*
X224630000Y-98257500D01*
X224630000Y-98257500D02*
X227010000Y-95877500D01*
%TO.N,Net-(D10-A)*%
X226990000Y-73567500D02*
X226990000Y-73149250D01*
X226990000Y-73149250D02*
X224022000Y-70181250D01*
%TO.N,Row1*%
X226990000Y-76867500D02*
X226990000Y-77933660D01*
X237087826Y-77613500D02*
X241226000Y-77613500D01*
X241226000Y-77613500D02*
X246010000Y-82397500D01*
X226990000Y-77933660D02*
X231099840Y-82043500D01*
X231099840Y-82043500D02*
X232657826Y-82043500D01*
X232657826Y-82043500D02*
X237087826Y-77613500D01*
X226990000Y-76867500D02*
X224557500Y-79300000D01*
X224557500Y-79300000D02*
X207860000Y-79300000D01*
%TO.N,Net-(D4-A)*%
X226700000Y-54457500D02*
X226700000Y-53809250D01*
X226700000Y-53809250D02*
X224022000Y-51131250D01*
%TO.N,Row0*%
X226700000Y-57757500D02*
X226700000Y-58593660D01*
X226700000Y-58593660D02*
X231099840Y-62993500D01*
X231099840Y-62993500D02*
X232657826Y-62993500D01*
X232657826Y-62993500D02*
X237087826Y-58563500D01*
X237087826Y-58563500D02*
X241056000Y-58563500D01*
X241056000Y-58563500D02*
X246000000Y-63507500D01*
X226700000Y-57757500D02*
X224170000Y-60287500D01*
X224170000Y-60287500D02*
X207930000Y-60287500D01*
%TO.N,Net-(D3-A)*%
X207930000Y-56987500D02*
X207930000Y-56470500D01*
X207930000Y-56470500D02*
X204972000Y-53512500D01*
%TO.N,Net-(D8-A)*%
X188790000Y-80577500D02*
X188790000Y-80193000D01*
X188790000Y-80193000D02*
X185922000Y-77325000D01*
%TO.N,Row1*%
X188790000Y-83877500D02*
X203282500Y-83877500D01*
X203282500Y-83877500D02*
X207860000Y-79300000D01*
X188790000Y-83877500D02*
X185547500Y-87120000D01*
X185547500Y-87120000D02*
X169740000Y-87120000D01*
%TO.N,Net-(D1-A)*%
X169890000Y-64787500D02*
X169890000Y-64468000D01*
X169890000Y-64468000D02*
X166872000Y-61450000D01*
%TO.N,Net-(D2-A)*%
X188830000Y-61607500D02*
X188830000Y-61183000D01*
X188830000Y-61183000D02*
X185922000Y-58275000D01*
%TO.N,Row0*%
X188830000Y-64907500D02*
X203310000Y-64907500D01*
X203310000Y-64907500D02*
X207930000Y-60287500D01*
X188830000Y-64907500D02*
X185650000Y-68087500D01*
X185650000Y-68087500D02*
X169890000Y-68087500D01*
%TO.N,Net-(D42-A)*%
X126360000Y-80380000D02*
X126360000Y-79908000D01*
X126360000Y-79908000D02*
X123627000Y-77175000D01*
%TO.N,Net-(D39-A)*%
X107440000Y-94920000D02*
X107440000Y-94475500D01*
X107440000Y-94475500D02*
X104554500Y-91590000D01*
%TO.N,Row6*%
X107440000Y-98220000D02*
X108706000Y-96954000D01*
X108706000Y-96954000D02*
X114799565Y-96954000D01*
X114799565Y-96954000D02*
X116065565Y-98220000D01*
X121750000Y-98220000D02*
X126460000Y-102930000D01*
X116065565Y-98220000D02*
X121750000Y-98220000D01*
X107440000Y-98220000D02*
X106639000Y-99021000D01*
X106639000Y-99021000D02*
X91483500Y-99021000D01*
X91483500Y-99021000D02*
X88400000Y-95937500D01*
%TO.N,Net-(D35-A)*%
X88400000Y-92637500D02*
X88400000Y-92075500D01*
X88400000Y-92075500D02*
X85574500Y-89250000D01*
%TO.N,Net-(D43-A)*%
X126460000Y-99630000D02*
X126460000Y-99075500D01*
X126460000Y-99075500D02*
X123674500Y-96290000D01*
%TO.N,Net-(D25-A)*%
X50160000Y-65007500D02*
X50160000Y-63955500D01*
X50160000Y-63955500D02*
X47544500Y-61340000D01*
%TO.N,Net-(D32-A)*%
X69300000Y-117257500D02*
X69300000Y-116585500D01*
X69300000Y-116585500D02*
X66584500Y-113870000D01*
%TO.N,Net-(D27-A)*%
X50490000Y-102697500D02*
X50490000Y-102498000D01*
X50490000Y-102498000D02*
X47502000Y-99510000D01*
%TO.N,Net-(D28-A)*%
X50230000Y-121790000D02*
X50230000Y-121268000D01*
X50230000Y-121268000D02*
X47442000Y-118480000D01*
%TO.N,Row7*%
X50230000Y-125090000D02*
X48563250Y-126756750D01*
X48563250Y-126756750D02*
X16806750Y-126756750D01*
X16806750Y-126756750D02*
X13203750Y-123153750D01*
X50230000Y-125090000D02*
X64767500Y-125090000D01*
X64767500Y-125090000D02*
X69300000Y-120557500D01*
%TO.N,Net-(D36-A)*%
X88260000Y-111437500D02*
X88260000Y-111088000D01*
X88260000Y-111088000D02*
X85442000Y-108270000D01*
%TO.N,Net-(D26-A)*%
X50070000Y-83840000D02*
X50070000Y-82988000D01*
X50070000Y-82988000D02*
X47432000Y-80350000D01*
%TO.N,Net-(D31-A)*%
X69080000Y-98130000D02*
X69080000Y-97475500D01*
X69080000Y-97475500D02*
X66484500Y-94880000D01*
%TO.N,Row6*%
X69080000Y-101430000D02*
X82907500Y-101430000D01*
X82907500Y-101430000D02*
X88400000Y-95937500D01*
X69080000Y-101430000D02*
X64512500Y-105997500D01*
X64512500Y-105997500D02*
X50490000Y-105997500D01*
%TO.N,Net-(D38-A)*%
X107480000Y-75800000D02*
X107480000Y-75280500D01*
X107480000Y-75280500D02*
X104612000Y-72412500D01*
%TO.N,Row5*%
X107480000Y-79100000D02*
X108741000Y-77839000D01*
X108741000Y-77839000D02*
X114752065Y-77839000D01*
X114752065Y-77839000D02*
X116013065Y-79100000D01*
X116013065Y-79100000D02*
X121780000Y-79100000D01*
X121780000Y-79100000D02*
X126360000Y-83680000D01*
X107480000Y-79100000D02*
X106736500Y-79843500D01*
X106736500Y-79843500D02*
X91293500Y-79843500D01*
X91293500Y-79843500D02*
X88370000Y-76920000D01*
%TO.N,Net-(D41-A)*%
X126550000Y-61700000D02*
X126550000Y-60975500D01*
X126550000Y-60975500D02*
X123739500Y-58165000D01*
%TO.N,Net-(D33-A)*%
X88440000Y-54310000D02*
X88440000Y-53789250D01*
X88440000Y-53789250D02*
X85664500Y-51013750D01*
%TO.N,Net-(D37-A)*%
X107540000Y-56980000D02*
X107540000Y-56218000D01*
X107540000Y-56218000D02*
X104724500Y-53402500D01*
%TO.N,Row4*%
X107540000Y-60280000D02*
X108991000Y-58829000D01*
X108991000Y-58829000D02*
X114864565Y-58829000D01*
X116315565Y-60280000D02*
X121830000Y-60280000D01*
X114864565Y-58829000D02*
X116315565Y-60280000D01*
X121830000Y-60280000D02*
X126550000Y-65000000D01*
X107540000Y-60280000D02*
X106986500Y-60833500D01*
X106986500Y-60833500D02*
X91663500Y-60833500D01*
X91663500Y-60833500D02*
X88440000Y-57610000D01*
%TO.N,Net-(D44-A)*%
X126490000Y-118617500D02*
X126490000Y-118188000D01*
X126490000Y-118188000D02*
X123702000Y-115400000D01*
%TO.N,Net-(D40-A)*%
X107420000Y-114137500D02*
X107420000Y-113428000D01*
X107420000Y-113428000D02*
X104662000Y-110670000D01*
%TO.N,Row7*%
X107420000Y-117437500D02*
X108793500Y-116064000D01*
X108793500Y-116064000D02*
X114827065Y-116064000D01*
X114827065Y-116064000D02*
X116200565Y-117437500D01*
X116200565Y-117437500D02*
X122010000Y-117437500D01*
X122010000Y-117437500D02*
X126490000Y-121917500D01*
X107420000Y-117437500D02*
X106756500Y-118101000D01*
X106756500Y-118101000D02*
X91623500Y-118101000D01*
X91623500Y-118101000D02*
X88260000Y-114737500D01*
%TO.N,Net-(D48-A)*%
X145220000Y-121720000D02*
X145220000Y-121048000D01*
X145220000Y-121048000D02*
X142632000Y-118460000D01*
%TO.N,Row7*%
X145220000Y-125020000D02*
X144349000Y-125891000D01*
X144349000Y-125891000D02*
X130463500Y-125891000D01*
X130463500Y-125891000D02*
X126490000Y-121917500D01*
%TO.N,Net-(D45-A)*%
X145920000Y-64920000D02*
X145920000Y-64470500D01*
X145920000Y-64470500D02*
X142789500Y-61340000D01*
%TO.N,Row4*%
X145920000Y-68220000D02*
X145369000Y-68771000D01*
X145369000Y-68771000D02*
X130321000Y-68771000D01*
X130321000Y-68771000D02*
X126550000Y-65000000D01*
%TO.N,Net-(D46-A)*%
X145700000Y-84060000D02*
X145700000Y-83373000D01*
X145700000Y-83373000D02*
X142677000Y-80350000D01*
%TO.N,Row5*%
X145700000Y-87360000D02*
X145279000Y-87781000D01*
X130461000Y-87781000D02*
X126360000Y-83680000D01*
X145279000Y-87781000D02*
X130461000Y-87781000D01*
%TO.N,Net-(D47-A)*%
X145600000Y-103070000D02*
X145600000Y-102398000D01*
X145600000Y-102398000D02*
X142732000Y-99530000D01*
%TO.N,Row6*%
X145600000Y-106370000D02*
X145009000Y-106961000D01*
X145009000Y-106961000D02*
X130491000Y-106961000D01*
X130491000Y-106961000D02*
X126460000Y-102930000D01*
%TO.N,Net-(D29-A)*%
X69750000Y-60200000D02*
X69750000Y-59730500D01*
X69750000Y-59730500D02*
X66594500Y-56575000D01*
%TO.N,Row4*%
X69750000Y-63500000D02*
X64942500Y-68307500D01*
X64942500Y-68307500D02*
X50160000Y-68307500D01*
X69750000Y-63500000D02*
X82550000Y-63500000D01*
X82550000Y-63500000D02*
X88440000Y-57610000D01*
%TO.N,Net-(D34-A)*%
X88370000Y-73620000D02*
X88370000Y-72854250D01*
X88370000Y-72854250D02*
X85547000Y-70031250D01*
%TO.N,Net-(D30-A)*%
X69200000Y-79010000D02*
X69200000Y-78303000D01*
X69200000Y-78303000D02*
X66482000Y-75585000D01*
%TO.N,Row5*%
X69200000Y-82310000D02*
X82980000Y-82310000D01*
X82980000Y-82310000D02*
X88370000Y-76920000D01*
X69200000Y-82310000D02*
X64370000Y-87140000D01*
X64370000Y-87140000D02*
X50070000Y-87140000D01*
%TD*%
M02*
